<?xml version="1.0" encoding="utf-8"?>
<!-- Generator: Adobe Illustrator 16.0.0, SVG Export Plug-In . SVG Version: 6.00 Build 0)  -->
<!DOCTYPE svg PUBLIC "-//W3C//DTD SVG 1.1//EN" "http://www.w3.org/Graphics/SVG/1.1/DTD/svg11.dtd">
<svg version="1.1" id="Layer_1" xmlns="http://www.w3.org/2000/svg" xmlns:xlink="http://www.w3.org/1999/xlink" x="0px" y="0px"
	 width="778.54px" height="719.964px" viewBox="0 0 778.54 719.964" enable-background="new 0 0 778.54 719.964"
	 xml:space="preserve">
<g>
	<defs>
		<rect id="SVGID_1_" width="778.54" height="719.964"/>
	</defs>
	<clipPath id="SVGID_2_">
		<use xlink:href="#SVGID_1_"  overflow="visible"/>
	</clipPath>
	<path clip-path="url(#SVGID_2_)" fill="#C95B00" d="M572.429,104.818c1.867,3.668,0.444,6.808-2.414,9.247
		c-3.833,3.268-6.666,0.074-9.05-2.078c-33.358-30.118-67.445-59.531-99.569-90.865C443.573,3.738,424.169-3.563,399.816,1.653
		c-30.619,6.558-62.421,6.726-92.209,17.681c-44.58-0.122-85.627,14.897-125.579,32.053C144.249,67.61,109.204,89.27,75.384,112.603
		c-17.228,11.886-29.218,27.207-38.597,46.131C-3.702,240.429-9.214,324.235,12.643,410.586c7.84,30.973,17.86,60.887,33.475,88.98
		c11.426,20.559,22.024,41.624,31.77,63.01c6.825,14.978,18.086,24.086,32.737,30.817c41.368,19.01,83.173,36.707,128.291,46.135
		c11.668,2.438,22.968,6.455,34.437,9.748c80.244,18.577,162.417-0.654,246.033-10.332c12.02-0.159,24.056-0.711,36.057-0.415"/>
	<path clip-path="url(#SVGID_2_)" fill="#FFFFFF" d="M312.997,426.997c-2.55-0.485-6.909-1.341-12.279-2.545
		c-22.388-5.021-45.784-10.447-69.165-24.472c-2.139-1.284-7.364-5.011-17.84-12.421c-0.5-0.354-36.794-26.955-39.275-28.875
		c-1.816-3.225-1.954-6.888-2.652-10.393c-1.266-6.354-1.558-27.937-0.971-34.188c0.04-0.552,1.536-15.951,2.098-20.567
		c0.053-0.438,1.61-10.963,3.389-15.561l0.013-0.041c6.219-1.858,14.152-3.86,23.479-5.33c13.8-2.173,24.355-2.187,31.209-2.166
		c19.624,0.059,31.081,2.741,33.905,3.429c0.99,0.242,1.811,0.455,2.376,0.605l-0.032-0.034c1.694,3.968,3.025,7.46,4.042,10.291
		c0,0,0.8,2.225,3.271,16.173c0.014,0.079,0.051,0.296-0.041,0.528c-0.101,0.253-0.32,0.438-0.6,0.566
		c-0.597,0.274-0.834-0.242-1.052-0.607c-3.055-5.118-6.227-10.173-9.083-15.399c-1.584-2.9-3.905-3.758-6.965-4.818
		c-3.03-1.049-8.437-2.301-11.905-2.318c-5.76-0.028-11.471-0.215-17.083,0.476c-5.308,0.654-10.474,2.107-15.548,3.822
		c-2.585,0.873-4.644,2.384-6.508,4.455c-8.049,8.941-11.813,19.472-12.258,31.361c-0.256,6.862-0.045,8.742,1.453,20.088
		c0.224,1.699,0.775,3.338,1.648,4.812c0.353,0.595,0.753,1.241,1.171,1.861c0.033,0.048,0.604,0.888,1.375,1.625
		c6.641,6.35,16.841,11.186,16.841,11.186c19.657,9.321,24.307,11.196,30.859,13.198c0.796,0.243,2.065,0.499,4.512,1.307
		c10.758,3.551,21.726,6.169,32.813,8.579c10.053,2.186,26.1,4.916,26.1,4.916s18.899,2.814,21.573,3.296l10.302,1.019l-6.5,38.957
		L312.997,426.997z"/>
	<path clip-path="url(#SVGID_2_)" fill="#E6ECEC" d="M572.916,26.339c-2.428,0.801-4.959,0.608-7.453,0.769
		c-0.883,0.057-1.601-0.386-1.839-1.161c-0.186-0.606,0.332-1.142,0.89-1.511c3.056-2.028,6.423-3.278,10.01-3.928
		c1.853-0.336,3.729-0.533,5.596-0.793c1.578,0.6,2.982,0.547,3.969-1.064c0.979,1.631,0.841,2.652-0.438,2.731
		c-1.865,0.115-3.744-0.009-5.609,0.1c-4.376,0.258-8.428,1.473-12.6,4.454C568.399,26.096,570.657,26.217,572.916,26.339"/>
	<path clip-path="url(#SVGID_2_)" fill="#585553" d="M584.088,18.651c-0.095,1.964-0.132,2.063-1.455,1.842
		c-0.857-0.143-1.678-0.511-2.514-0.778c1.035-0.415,2.415,0.047,3.111-1.225C583.529,18.477,583.815,18.531,584.088,18.651"/>
	<path clip-path="url(#SVGID_2_)" fill="#111111" d="M763.813,367.067c-0.301-1.243-0.256-2.447-1.758-2.053L760.748,368
		c-0.861,1.167-9.927,51.569-11.698,61.787c-0.592,3.407-5.255,26.178-7.438,34.046c-1.389,5.003-3.609,9.702-6.228,14.196
		l-1.871,3.778c1.199,2.521,1.278,5.159,0.735,7.832c-0.247,1.213-1.281,1.673-2.398,0.919c-0.873-0.591-1.4-0.596-1.822,0.294
		c-0.334,0.703-0.446,1.51-0.747,2.232c-0.568,1.362-1.364,1.965-1.917,1.486c-0.684-0.592-0.341-1.472-0.426-2.231
		c-0.334-0.327-0.669-0.654-1.004-0.982c-1.259,1.17-2.07,2.807-3.702,3.578c-0.216,0.103-0.65,0.084-0.785-0.062
		c-0.158-0.172-0.23-0.626-0.113-0.815c0.826-1.33,1.681-2.646,2.591-3.92c0.553-0.773,1.217-1.466,0.98-2.528l0.013-0.13
		c-1.147-0.34-1.545-1.031-0.891-1.959c0.51-0.725,1.319-1.344,2.128-1.731c2.078-0.994,4.231-1.832,6.354-2.731l1.699-5.167
		c0.763-2.553,8.149-28.184,8.781-38.931c0.268-4.536,1.128-18.939,1.297-21.6c0.469-2.169-0.017-4.403,0.412-6.583
		c0.121-0.617,0.04,0.166,0.092-0.463c-0.22,0.112-0.138,0.363-0.244,0.556c-4.544,9.857-8.644,19.887-13.345,29.643
		c-6.287,13.048-39.159,74.854-39.294,75.123c-7.484,14.846-43.027,67.431-44.565,69.204c-4.677,5.395-5.765,11.813-5.462,18.58
		c0.296,6.617,5.092,83.359,4.764,86.626c-0.648,6.447-3.961,12.192-10.645,14.252c-6.058,1.868-12.258,2.952-18.584,3.318
		c-4.148,0.24-5.251,1.147-6.039,5.147c-0.304,1.547-2.152,3.545-3.389,4.134c-3.988,1.897-7.971,3.537-12.538,3.864
		c-7.871,0.563-15.73,1.183-23.626,1.108c-7.575-0.069-15.141-0.384-22.661-1.359c-1.717-0.224-3.453-0.506-5.101-1.015
		c-3.354-1.036-5.992-2.804-6.191-6.809c-0.07-1.409-0.522-2.799-0.596-4.208c-0.326-6.304-0.739-12.609-0.822-18.918
		c-0.164-12.507-1.732-24.855-3.76-37.164c-0.149-0.909-0.095-1.942-1.109-2.453c-0.686-0.345-2.211,0.788-2.815,2.065
		c-0.628,1.325-0.604,2.77-0.677,4.177c-0.395,7.723-2.8,25.936-3.153,33.66c-0.146,3.152-0.234,6.308-0.377,9.461
		c-0.123,2.69-0.712,5.29-1.426,7.89c-0.885,3.216-3.1,4.517-6.145,4.907c-3.437,0.439-6.876,0.871-10.309,1.341
		c-2.006,0.274-2.195,0.488-2.581,2.694c-0.517,2.943-0.809,2.924-2.519,3.635c-3.499,1.562-6.581,1.982-10.456,2.08
		c-9.959,0.251-20.351,0.101-30.251-0.814c-0.78-0.073-8.923-0.617-12.125-1.456c-2.95-0.773-4.397-2.617-4.604-5.755
		c-0.77-11.646-1.677-23.28-1.657-34.965c0.021-11.858-0.85-23.671-3.16-35.298c-2.272-11.446-12.534-47.584-15.038-54.209
		c-2.616-6.922-16.273-37.429-20.234-45.853c-4.369-9.291-9.321-18.261-14.658-27.022c-0.656-1.077-1.221-2.301-2.134-3.111
		c-2.437-2.161-2.709-4.841-2.311-7.779c0.111-1.362,0.096-1.897,0.388-2.812c-0.178,0.036-0.459,0.114-0.756,0.303
		c-0.322,0.205-0.521,0.449-0.628,0.604c-3.138,4.306-6.349,8.563-9.4,12.93c-10.764,18.113-41.543,47.231-44.458,49.735
		l0.028-0.027c-0.561,0.041-1.037,0.856-1.037,0.856c-0.461,0.148-9.981,7.329-13.234,9.223c-2.45,1.426-5.006,2.671-7.464,4.086
		c-13.554,7.806-28.178,12.56-43.548,15.036c-7.927,1.277-15.888,2.352-23.903,3.064c-7.06,0.629-14.073,1.769-21.109,2.667
		c-4.972,0.636-8.853,3.077-11.822,7.058c-0.471,0.631-0.902,1.297-1.412,1.894c-1.584,1.854-5.236,2.063-6.343-1.316
		c-2.321-7.081-6.03-13.467-10.435-19.498c-2.991-4.097-6.198-8.002-9.891-11.419c-2.449-2.267-2.711-4.777-2.411-7.69
		c0.138-1.338,0.82-2.362,1.755-3.249c1.156-1.098,2.501-1.252,3.936-0.66c0.43,0.178,0.915,0.411,1.18,0.766
		c2.244,2.992,4.802,2.538,7.882,1.244c11.008-4.624,22.687-6.496,34.449-7.953c6.099-0.755,12.208-1.411,18.26-2.563
		c9.546-1.816,18.541-4.982,26.676-10.361c3.678-2.431,7.263-5.001,10.875-7.53c0.643-0.45,1.25-0.971,1.805-1.526
		c6.352-6.369,12.324-12.993,17.165-20.684c5.153-8.188,17.936-47.013,18.924-50.491c2.319-8.167,3.479-16.607,6.702-24.467
		c0.75-1.829-2.026-0.071-3.216,0.38c-0.417,0.158-0.988,0.044-1.308-0.183c-0.624-0.44-0.353-1.124-0.1-1.682
		c0.193-0.422,1.69-3.567,2.94-5.344c0.54-0.769,1.043-1.552,1.471-2.389c0.147-0.296,0.326-0.569,0.507-0.801
		c0.246-0.053,0.362-0.231,0.274-0.501c-0.257,0.187-0.482,0.343-0.733,0.506c-0.27,0.219-0.526,0.411-0.779,0.614
		c-0.239,0.229-0.489,0.438-0.736,0.647c-0.234,0.222-0.486,0.425-0.74,0.621c-0.249,0.196-0.517,0.367-0.79,0.528
		c-0.392,0.25-0.78,0.51-1.116,0.837c-0.307,0.359-0.601,0.729-0.947,1.053c-0.139,0.077-0.279,0.152-0.419,0.228
		c-1.145,0.747-2.201,1.867-3.755,0.891c-1.607-3.171-0.484-6.147,0.636-9.123c1.986-4.45,5.441-7.7,8.921-10.884
		c-0.929-1.608-4.091,0.188-4.13-2.711c9.869-7.513,9.869-7.513,12.612-13.315c-1.056-0.078-1.474,0.896-2.223,1.273
		c-0.825,0.417-1.634,1.203-2.573,0.58c-1.027-0.68-1.106-1.884-0.949-2.98c0.564-3.961,2.925-6.855,5.765-9.445
		c0.627-0.564,9.978-9.36,10.579-10.535l-0.9,1.008l4.43-6.482l-4.18-0.37c-0.409,0.312-3.598-0.415-4.093-0.618
		c-0.664-0.272-0.519-1.021-0.309-1.635c0.051-0.148,0.089-0.308,0.17-0.438c3.232-5.163,1.739-9.851-1.325-14.431
		c-1.401,0.531-1.785,1.827-2.559,2.766c-0.799,0.968-1.531,1.994-2.351,2.942c-0.284,0.328-0.694,0.62-1.239,0.346
		c-0.494-0.249-0.616-0.695-0.612-1.14c0.017-1.883,0.078-3.765,0.136-5.647c0.039-1.242,0.511-2.473,0.056-3.856
		c-2.007,0.226-3.685,1.621-5.752,1.681c-1.405,0.041-2.023-0.624-1.539-2.012c1.188-3.402,2.725-6.704,2.839-10.397
		c0.797-2.766,0.226-5.59,0.338-8.385c0.038-0.935-0.089-1.995-1.559-1.449c-0.772,1.28-1.214,2.431-1.482,3.335
		c-0.645,2.178-0.577,3.929-1.406,4.156c-0.427,0.117-0.892-0.226-0.987-0.297c-0.628-0.464-0.716-1.297-0.78-1.601
		c-1.101-5.224-2.102-10.455-1.869-15.836c0.068-1.565,0.112-3.132,0.167-4.698c0.084-1.049,0.656-2.953-0.976-2.704
		c0,0-3.377,4.537-5.293,6.622c-0.753,0.819-1.604,1.527-2.721,1.791c-0.748,0.178-1.595,0.553-2.221-0.115
		c-0.684-0.729-0.155-1.429,0.346-2.04c1.313-1.6,2.214-3.439,3.05-5.309c0.71-1.59,1.275-3.225,1.164-5.014
		c-0.354-5.726,0.653-11.298,1.919-16.84c0.428-0.746-0.06-1.55,0.133-2.267c-0.014,0.041,0.224-0.231,0.224-0.231
		s-0.359-0.042-0.359-0.011c-0.262,0.601-0.607,1.094-1.201,1.363c-0.344,0.324-0.634,0.776-1.041,0.947
		c-1.132,0.475-2.132,0.05-2.172-0.942c-0.058-1.406-0.065-2.835,0.121-4.226c0.332-2.483,0.825-4.945,1.247-7.396
		c-1.248-0.85-2.494-0.149-3.699-0.212c-1.886-0.098-3.778-0.088-5.663-0.192c-0.863-0.048-1.337-1.102-0.812-1.732
		c0.502-0.604,1.07-1.153,1.623-1.713c4.387-4.435,6.574-9.898,7.457-15.967c0.043-0.297-0.045-0.619-0.109-0.922
		c-0.026-0.119-0.152-0.217-0.246-0.343c-1.47,0.198-2.448,1.356-3.719,1.945c-1.422,0.659-2.835,1.343-4.287,1.931
		c-0.795,0.322-1.524-0.305-1.471-1.24c0.141-2.521,0.465-5.016,1.285-7.423c1.722-5.062,3.442-10.125,5.163-15.188
		c0.061-0.489,1.892-5.345,2.192-6.062c0.26-0.463,0.517-0.924,0.747-1.37c-0.013,0.021,0.199-0.322,0.199-0.322
		s-2.661,1.927-4.402,4.542l0.007-0.011c-0.56,1.174-1.276,1.952-2.087,0.274c-0.452-0.933-0.429-2.003-0.54-3.121
		c-1.124-9.589,1.382-18.615,4.451-27.443c-0.856-0.947-1.568-0.122-2.263-0.178c-1.154-0.091-1.748-0.706-1.727-1.781
		c0.181-9.216,1.925-18.066,6.155-26.336c0.344-0.379,0.261-0.88,0.372-1.315c-0.004,0.008,0.143-0.382,0.143-0.382
		s-0.403,0.109-0.405,0.119c-0.356,0.282-0.816,0.334-1.181,0.581c-3.606,2.861-6.903,5.96-8.623,10.405
		c-0.619,1.598-2.106,2.268-3.64,2.757c-1.676,0.535-2.595-0.437-2.232-2.295c2.232-11.413,6.421-22.031,12.86-31.739
		c0.607-0.915,1.144-1.875,1.713-2.815c0.455-0.616,0.752-2.51,0.752-2.51s-4.417,3.437-6.054,3.735
		c-0.776,0.142-1.579,0.435-2.177-0.297c-0.433-0.529-0.286-1.193-0.069-1.789c1.872-5.131,4.715-9.59,8.976-13.093
		c3.434-2.822,7.214-5.05,11.27-6.85c5.197-2.305,10.63-3.916,16.051-5.57c3.01-0.918,6.029-1.818,9.009-2.828
		c3.628-1.228,6.755-3.361,9.729-5.717c0.598-0.475,1.093-1.134,1.479-1.799c0.204-0.352,0.084-0.925-0.562-0.961
		c-1.929-0.106-3.737,0.495-5.547,1.026c-0.902,0.265-1.745,0.723-2.634,1.039c-1.985,0.704-3.096,0.607-3.365-0.267
		c-0.39-1.266,0.414-2.111,1.173-2.882c2.017-2.049,4.479-3.463,7.06-4.667c5.863-2.737,12.009-4.713,18.17-6.641
		c2.253-0.705,4.525-1.347,6.789-2.018c0.301-0.348,0.734-0.358,1.137-0.443c-0.432-0.015-0.818-0.113-1.006-0.564
		c-2.865-1.126-5.894-0.881-8.872-1.081c-0.93-0.063-1.86-0.212-2.775-0.394c-0.521-0.104-0.731-1.114-0.428-1.573
		c0.835-1.262,2.149-1.848,3.458-2.37c4.126-1.645,8.412-2.825,12.844-2.98c5.188-0.181,10.41-0.559,15.553,0.729
		c1.596,0.399,2.222-0.102,2.817-1.727c0.319-0.873-0.092-1.658-0.943-1.661c-1.732-0.006-3.467,0.092-5.198,0.057
		c-0.388-0.008-0.945-0.303-1.102-0.624c-0.164-0.336-0.091-0.974,0.14-1.287c1.606-2.169,3.546-4.013,5.718-5.618
		c1.902-1.407,3.799-2.824,5.668-4.276c0.175-0.136,0.175-0.555,0.177-0.844c0.004-0.382-0.256-0.509-0.629-0.582
		c-1.591-0.314-3.136-0.18-4.662,0.345c-0.596,0.205-1.207,0.371-1.814,0.542c-1.974,0.553-3.198,0.441-3.38-0.378
		c-0.338-1.53,0.914-2.209,1.827-2.979c1.96-1.652,4.363-2.488,6.691-3.461c1.567-0.654,3.367-0.814,4.908-2.176
		c-1.939-2.047-4.657-2.566-6.87-4.046c2.595-2.249,5.489-2.838,8.558-2.675c1.885,0.1,3.845,0.179,5.61,0.759
		c1.894,0.622,2.877-0.081,4.034-1.372c5.645-6.294,12.277-11.313,19.871-15.049c0.565-0.278,1.101-0.64,1.691-0.839
		c1.028-0.346,2.226-0.919,3.1,0.011c0.925,0.982,0.177,2.048-0.412,2.981c-1.256,1.988-2.837,3.782-3.644,6.011
		c0.171,0.161,0.263,0.295,0.39,0.353c0.13,0.06,0.315,0.103,0.438,0.056c14.556-5.638,29.252-10.875,44.164-15.496
		c0.654-1.23-0.546-1.184-1.092-1.588c-1.533-0.316-3.171,0.021-4.631-0.722c-0.266-0.134-0.648-0.4-0.65-0.609
		c-0.006-0.409,0.111-0.913,0.368-1.213c0.74-0.864,1.757-1.296,2.866-1.511c2.315-0.45,4.614-1.03,6.95-1.335
		c7.957-1.039,15.907-2.211,23.97-2.022c1.426,0.034,2.73-0.015,3.928-1.112c4.117-3.776,9.098-6.172,14.141-8.395
		c9.732-4.29,19.917-6.911,30.547-7.449c5.039-0.255,10.06,0.387,14.844,2.195c2.815,1.064,5.466,2.401,7.336,4.895
		c0.221,1.917-1.242,1.777-2.417,1.985c-8.064,0.535-12.421,1.995-16.165,5.598c2.876,0.955,5.562,0.747,8.267,0.266
		c4.212,0.414,8.44,0.478,12.598,1.585c3.936,1.048,7.314,2.795,10.045,5.805c1.161,1.281,2.472,2.451,3.495,3.833
		c2.266,3.058,5.276,4.869,8.895,5.811c0.913,0.237,1.837,0.456,2.713,0.796c0.725,0.281,0.684,0.876,0.413,1.532
		c-0.628,1.518-2.204,2.197-3.091,3.479c0.254,1.198,1.31,1.25,2.114,1.463c5.163,1.373,10.354,2.642,15.519,4.009
		c8.236,2.181,16.178,5.109,23.565,9.426c3.143,1.836,6.06,3.897,8.416,6.745c2.107,2.546,4.528,4.806,7.233,6.745
		c0.732,0.525,0.454,1.363-0.381,1.771c-0.897,0.44-1.762,0.42-2.731,0.345c-2.494-0.194-5.001-0.22-7.502-0.314
		c-0.269,0.161-0.354,0.314-0.257,0.46c0.094,0.142,0.189,0.213,0.284,0.213l0.064,0.042c0.308,0.728,1.315,0.453,1.646,1.149
		c2.215,1.497,4.388,3.06,6.651,4.481c8.589,5.39,16.577,11.478,23.123,19.318c2.234,2.677,4.234,5.475,5.75,8.63
		c1.705,3.552,3.543,7.04,5.264,10.584c0.309,0.635,0.972,1.253,0.41,2.428c-4.676-1.909-8.534-5.628-13.883-6.637
		c-0.027,3.875,1.088,7.26,2.657,10.515c1.307,2.705,2.975,5.196,4.782,7.593c3.521,4.666,7.372,9.042,11.477,13.201
		c0.873,0.884,1.714,1.799,2.585,2.716c-3.435,2.542-5.303,3.028-14.719,3.904c-0.264,1.291,0.931,1.485,1.595,1.97
		c12.232,8.944,22.14,20.079,30.787,32.431c2.831,4.045,5.079,8.33,6.39,13.102c0.245,0.895,0.679,1.739,1.025,2.607
		c0.724,0.78,0.819,1.758,0.181,2.477c-0.885,0.996-1.645,0.039-2.282-0.534c-0.796-0.715-1.685-1.335-2.351-2.189l-0.071-0.069
		c-1.673-0.549-1.599,0.363-1.255,1.501c-0.026,0.313,0.104,0.536,0.389,0.668c0.181,0.355,0.418,0.667,0.707,0.94l0.031,0.045
		c0.349,0.284,0.604,0.637,0.781,1.05v0.002c0.764,0.259,0.468,1.275,1.142,1.599l0.1,0.143c0.229,0.341,0.488,0.657,0.781,0.945
		c6.203,8.252,14.104,14.305,23.603,18.325c1.565,0.663,3.345,0.894,4.794,2.263c-1.85,3.753-5.831,3.812-9.012,5.051
		c-0.199,1.269,0.749,1.755,1.322,2.412c4.149,4.759,8.141,9.64,11.902,14.715c2.573,3.47,4.536,7.18,5.463,11.427
		c0.537,2.462,1.208,4.894,1.818,7.339c0.175,1.104,1.364,2.556-0.963,2.8c-5.144-5.511-10.596-10.674-16.664-15.165
		c-0.722,0.923-0.432,1.679-0.156,2.396c1.012,2.645,2.048,5.282,3.097,7.913c1.714,4.299,4.199,8.09,7.475,11.369
		c1.782,1.783,3.521,3.608,5.258,5.435c1.025,1.079,1.059,1.155-0.437,2.499c-0.499,0.449-0.423,0.839-0.229,1.175
		c0.549,0.951,1.159,1.876,1.83,2.746c3.156,4.103,4.822,8.753,5.489,13.869c0.999,7.659,1.619,15.344,1.979,23.054
		c0.19,4.087,0.349,8.175,0.521,12.267c-0.941,0.579-1.364-0.182-1.876-0.721c-1.181-1.244-2.364-2.485-3.456-3.631
		c-1.385,0.444-0.98,1.33-0.945,2.028c0.42,8.529,0.147,17.007-1.682,25.388c-0.337,1.547-0.611,3.074-1.9,4.2
		c-0.861,0.752-1.763,0.631-2.229-0.432c-0.63-1.437-1.239-2.883-1.856-4.325L763.813,367.067z"/>
	<path clip-path="url(#SVGID_2_)" fill="#FFFFFF" d="M484.496,414.79c0.409,0.67,0.763,1.382,1.234,2.003
		c2.448,3.221,1.371,3.248,5.243,1.668c1.745-0.712,3.437-1.575,5.091-2.48c4.845-2.647,9.498-5.623,13.876-8.97
		c8.521-6.516,15.061-14.714,19.889-24.279c0.922-1.827,1.689-3.731,2.611-5.559c1.833-3.633,2.313-7.509,2.075-11.492
		c-0.726-12.173-4.44-23.458-10.322-34.069c-1.297-2.339-2.738-4.601-4.178-6.857c-4.995-7.829-11.798-13.877-19.162-19.366
		c-0.44-0.094-0.897-0.141-1.273-0.414c0.004,0.009-0.385-0.136-0.385-0.136s0.099,0.402,0.104,0.41
		c0.081,0.443,0.016,0.918,0.376,1.268c1.115,1.895,2.66,3.672,3.217,5.719c0.513,1.881-0.099,4.052-0.111,6.095
		c-0.033,4.891,0.004,9.781-0.01,14.672c-0.003,1.258-0.059,2.518-0.151,3.773c-0.019,0.234-0.291,0.556-0.519,0.639
		c-0.229,0.083-0.657,0.019-0.812-0.151c-2.341-2.591-4.227-5.478-5.596-8.701c-2.101-4.942-3.695-10.06-5.288-15.177
		c-0.843-2.706-1.44-5.493-2.38-8.163c-1.174-3.333-1.522-6.768-1.593-10.235c-0.083-4.096,1.565-6.085,5.715-6.677
		c6.709-0.956,13.425-1.887,20.246-1.659c2.353,0.079,4.226,0.783,5.958,2.365c4.095,3.737,7.736,7.885,11.183,12.196
		c4.134,5.174,8.124,10.464,12.144,15.728c4.691,6.141,9.301,12.344,14.043,18.445c1.493,1.921,2.365,3.983,2.999,6.322
		c1.872,6.9,1.345,13.797,0.073,20.637c-1.905,10.248-5.04,20.18-8.467,30.011c-2.489,7.144-5.09,14.247-7.649,21.366
		c-0.266,0.741-0.602,1.457-0.878,2.194c-1.148,3.064-3.104,5.305-6.01,6.978c-5.188,2.989-10.176,6.323-15.283,9.456
		c-7.54,4.626-15.761,7.931-23.565,12.051c-3.757,1.984-7.64,3.734-11.495,5.523c-1.714,0.795-3.48,1.485-5.263,2.115
		c-1.862,0.656-3.686,0.634-5.415-0.564c-1.682-1.165-3.54-2.092-5.143-3.35c-5.713-4.486-11.174-9.257-16.009-14.709
		c-1.254-1.414-2.604-2.75-3.986-4.04c-3.316-3.097-3.755-6.99-2.38-10.893c1.512-4.292,3.538-8.409,6.296-12.134
		c4.153-5.607,10.034-7.351,16.554-7.656c3.188-0.148,5.812,1.249,7.811,3.748c2.362,2.953,4.781,5.867,6.688,9.155
		C485.53,413.704,483.506,412.641,484.496,414.79"/>
	<path clip-path="url(#SVGID_2_)" fill="#7E7473" d="M499.675,306.517c-0.83-0.347-1.076-1.096-1.285-1.87
		c0.482-0.438,1.004-0.493,1.567-0.165c0.471,0.132,0.882,0.323,0.896,0.907C500.461,305.765,500.068,306.141,499.675,306.517"/>
	<path clip-path="url(#SVGID_2_)" fill="#111111" d="M174.694,280.124c-0.136-0.079-0.393-0.166-0.389-0.236
		c0.018-0.295,0.185-0.214,0.392,0.236H174.694z"/>
	<path clip-path="url(#SVGID_2_)" fill="#AB8F8E" d="M499.957,304.481c-0.522,0.055-1.043,0.111-1.566,0.165
		c-0.513-0.274-0.64-0.706-0.293-1.137c0.105-0.131,0.607-0.087,0.822,0.046C499.308,303.796,499.616,304.165,499.957,304.481"/>
	<path clip-path="url(#SVGID_2_)" fill="#FFFFFF" d="M359.63,352.397c-0.312-5.778-2.427-9.592-3.676-15.157
		c-0.303-1.275-0.704-3.02-1.138-5.098c-0.692-3.312-1.741-8.778-2.563-15.408c-0.461-3.716-0.736-6.872-1.282-15.816
		c-0.347-5.682-0.774-13.225-1.189-22.21c-1.339,0.956-2.037,1.756-3.238,2.691c-1.901,1.479-3.344,4.217-5.643,6.033
		c-3.94-0.136,5.582-20.734,7.733-24.735c1.354-2.52,2.576-4.301,2.287-4.934c-2.002-0.8-0.808-1.985-0.367-3.18
		c0.205-0.568,1.849-3.299,1.983-3.687c1.143-1.992,6.793-8.833,6.465-7.481c0.274-0.299,0.514-0.304,0.806-0.584
		c0.158-0.125,0.329-0.237,0.488-0.361c0.351-0.213,0.712-0.415,1.061-0.632c0.875-1.438,2.649-1.763,0.149-2.201
		c-3.186-1.424,3.107-4.213,5.082-5.68c1.349-1.001,2.858-1.592,3.164-3.533c-0.001-0.038-0.012-0.069-0.029-0.094
		c-0.179-0.262-0.791-0.032-1.21-0.227c-0.466-0.217-0.561-0.933-0.594-1.181c-0.235-1.767,4.889-4.813,6.613-5.892
		c2.294-1.436,2.825-2.233,8.292-6.004c0.615-0.424,0.857-1.217,0.914-1.962c0.663-8.57,4.226-17.597,5.848-25.501
		c0.148-1.04,0.693-2.328,0.958-3.35c2.65-12.25,10.292-25.979,7.899-25.979c-1.1,0.182-7.875,3.409-8.983,4.042
		c-0.55-0.261-2.066,1.898-2.291-0.272c0.328-0.45,1.913-3.591,2.291-4.022c1.058-1.184,2.745-2.609,3.959-3.646
		c1.151-1.062,5.249-3.255,5.851-3.744c0.613-0.501,2.094-1.503,2.78-1.88c0.712-0.401,0.701-0.11,1.069-0.951
		c0.085-0.427-6.335-1.632-6.741-1.702c-1.579,0.237-2.44-0.767-2.43-0.8c0.302-1.045,0.926-1.248,1.549-1.741
		c2.032-0.987,6.995-2.483,9.297-2.394c1.144-0.224,9.069-0.314,11.432-0.412c1.318-0.761,2.687-1.842,4.289-3.085
		c1.54-1.469,3.671-3.195,6.466-4.678c4.157-2.206,9.643-3.796,10.147-2.84c0.084,0.159,0.042,0.41-0.231,0.804
		c-0.607,1.306-3.541,3.656-4.207,4.841c-0.145,0.426-0.556,0.782-0.521,1.231c0.106,0.446,0.494,0.238,0.944,0.152
		c2.05-0.337,21.288-5.902,22.306-6.154c0.574-0.221,2.357,0.001,2.958-0.107c-0.293,0.196-2.782,1.474-3.083,1.611
		c-0.992,0.346-25.938,9.267-28.076,8.439c-0.407-3.026,3.158-5.313,4.014-6.602c0.781-1.296,0.458-1.591-0.394-1.571
		c-1.377,0.661-1.758,0.921-2.903,1.471c-0.367,0.203-0.985,0.649-1.361,0.833c-1.186,0.853-4.11,2.864-4.407,3.16
		c-1.973,1.709-3.247,4.545-5.022,4.406c-3.996-1.16-5.391-0.448-7.891-0.634c-0.674,0.207-1.377,0.196-2.063,0.307
		c-3.057,0.691-7.266,1.71-7.289,2.177c0.122,0.436,0.873,0.55,1.235,0.818c0.877,0.454,3.774,1.591,4.397,1.868
		c0.274,0.114,0.772,0.868,1.054,0.983c-0.325,0.452-0.897,0.72-1.274,0.933c-0.896,0.425-1.98,1.171-2.941,1.516
		c-0.677,0.421-1.431,0.696-2.056,1.192c-0.618,0.51-1.339,0.859-2.013,1.279c-1.175,0.858-2.459,1.525-3.658,2.348
		c-0.788,0.736-1.646,1.742-1.996,2.824c-0.013,0.451,4.012-1.32,5.237-1.715c2.367-1.265,5.533-2.598,4.867,0.569
		c-1.22,3.568-9.521,25.095-10.398,30.097c-1.477,7.861-3.596,15.457-5.133,22.287c-1.256,8.412-0.365,5.756-9.03,10.847
		c-1.479,1.029-5.77,4.072-6.455,4.647c-0.954,1.142-1.256,1.34,0.492,2.374c1.66-0.228,2.169-0.409,3.225-1.076
		c2.377-1.875,2.965-0.172,2.965-0.172s-1.919,1.336-1.863,1.308c-1.911,1.256-4.98,3.71-6.653,5.403
		c-1.315,1.333-4.921,3.847-2.132,4.166c6.773-0.506-1.459,2.759-3.023,3.731c-1.731,1.076-7.08,4.993-7.331,5.355
		c-1.766,2.55-3.779,5.47-4.394,7.083c0.209,1.046,5.021-0.425,0.649,3.933c-0.333,0.302-6.232,8.537-8.968,17.512
		c-0.338,1.108-0.305,2.08-0.028,2.772c2.308-1.73,4.159-3.529,6.719-5.036c0.548-0.528,4.065-2.477,4.538-2.906
		c0.852-0.503,3.215-1.575,2.075,0.049c-0.212,0.119-0.488,0.332-0.764,0.541c-0.249,0.189-0.511,0.351-0.763,0.518
		c-1.858,1.306-3.712,3.341-4.228,5.963c-1,5.084,0.572,23.656,0.586,24.192c0.158,5.94,0.886,11.122,1.33,14.225
		c0.582,4.064,1.474,9.21,2.886,15.176c1.146,5.814,2.628,9.469,3.967,15.24c0.052,0.439,1.879,4.981,1.772,6.035
		c-0.054,0.527-0.266,0.885-0.351,1.082c-5.102,11.707-10.44,19.171-10.44,19.171c-1.138,1.59-4.404,3.848-6.584,6.478
		c2.225-3.833,6.075-8.104,8.25-12.811C356.102,362.007,358.054,357.006,359.63,352.397"/>
</g>
</svg>
