<?xml version="1.0" encoding="utf-8"?>
<!-- Generator: Adobe Illustrator 16.0.0, SVG Export Plug-In . SVG Version: 6.00 Build 0)  -->
<!DOCTYPE svg PUBLIC "-//W3C//DTD SVG 1.1//EN" "http://www.w3.org/Graphics/SVG/1.1/DTD/svg11.dtd">
<svg version="1.1" id="Layer_1" xmlns="http://www.w3.org/2000/svg" xmlns:xlink="http://www.w3.org/1999/xlink" x="0px" y="0px"
	 width="82.53px" height="13.118px" viewBox="0 0 82.53 13.118" enable-background="new 0 0 82.53 13.118" xml:space="preserve">
<g>
	<path fill-rule="evenodd" clip-rule="evenodd" fill="#161616" d="M43.486,1.655c0.199,1.536,1.181,5.755,1.735,8.64
		c0.111,0.572,0.668,1.418-0.006,1.752c-0.631,0.313-1.688,0.449-2.237-0.137c-1.469-1.562-2.724-1.496-4.188,0.002
		c-0.556,0.567-1.618,0.455-2.251,0.152c-0.693-0.332-0.109-1.148,0.008-1.743c0.55-2.753,1.122-5.506,1.688-8.257
		c0.328-1.598,0.328-1.594,1.948-1.818C40.185,0.246,43.287,0.12,43.486,1.655z"/>
	<path fill-rule="evenodd" clip-rule="evenodd" fill="#161616" d="M63.602,11.021c-0.199-1.536-0.69-4.871-0.688-8.625
		c0-0.584-0.668-1.416,0.009-1.752c0.63-0.311,2.534-0.732,2.588,0.07c0.232,3.284-0.339,8.986,1.237,8.929
		c1.354-0.048,0.625,0.402,1.918-0.196c0.641-0.296,0.117-4.513,0.396-8.413c0.555-0.567,1.901-0.707,2.533-0.405
		c0.693,0.328,0.025,1.139-0.007,1.741c-0.153,2.954,0.4,5.554-0.167,8.307c-0.327,1.596-1.851,1.549-3.471,1.771
		C67.951,12.447,63.799,12.557,63.602,11.021z"/>
	<path fill-rule="evenodd" clip-rule="evenodd" fill="#161616" d="M7.279,1.655C7.48,3.191,8.46,7.41,9.017,10.295
		c0.112,0.572,0.669,1.418-0.009,1.752c-0.629,0.313-1.687,0.449-2.237-0.137c-1.467-1.562-2.723-1.496-4.186,0.002
		c-0.558,0.567-1.619,0.455-2.251,0.152c-0.694-0.332-0.11-1.148,0.009-1.743C0.891,7.568,1.464,4.815,2.03,2.064
		c0.33-1.598,0.331-1.594,1.949-1.818C3.979,0.246,7.08,0.12,7.279,1.655z"/>
	<path fill-rule="evenodd" clip-rule="evenodd" fill="#161616" d="M24.53,5.803c0,2.085-0.083,3.767,0.028,5.436
		c0.076,1.19-0.475,1.418-1.374,1.103c-0.772-0.267-2.375,0.69-2.087-1.335c0.421-2.932,0.313-5.873,0.063-8.816
		c-0.048-0.589-0.703-1.69,0.3-1.793c1.145-0.115,2.659-0.787,3.449,0.859c0.791,1.645,1.581,3.289,2.498,5.193
		c0.937-1.864,1.754-3.528,2.608-5.174c0.364-0.7,3.446-1.589,4.028-1.166c0.372,0.271,0.265,0.722,0.193,1.095
		c-0.615,3.185-0.401,6.4-0.258,9.6c0.053,1.199-0.369,1.541-1.418,1.352c-0.852-0.152-2.266,0.679-2.148-1.264
		c0.091-1.489,0.018-2.989,0.018-5.049c-1.175,1.554-2.045,2.71-3.055,4.041C26.468,8.578,25.609,7.35,24.53,5.803z"/>
	<path fill-rule="evenodd" clip-rule="evenodd" fill="#161616" d="M54.407,6.201c1.035-1.641,2.069-2.944,2.457-4.557
		c0.481-1.985,2.045-1.3,3.179-1.23c1.397,0.092,0.668,1.336,0.591,1.982c-0.329,2.817-0.076,5.614,0.118,8.41
		c0.17,2.437-1.755,1.338-2.714,1.552c-1.442,0.321-0.901-0.949-0.77-1.555c0.324-1.493,0.151-2.966,0.166-4.749
		c-1.467,1.065-1.943,2.654-3.214,3.719c-0.861-1.322-1.692-2.602-2.704-4.156c-0.396,1.938-0.335,3.593-0.197,5.217
		c0.158,1.918-1.174,1.205-2.058,1.329c-1.118,0.159-1.415-0.219-1.296-1.408c0.282-2.866,0.181-5.752,0.067-8.634
		c-0.022-0.594-0.663-1.68,0.525-1.69c1.043-0.011,2.391-0.762,3.159,0.688C52.567,2.723,53.416,4.326,54.407,6.201z"/>
	<path fill-rule="evenodd" clip-rule="evenodd" fill="#161616" d="M75.715,6.934c-0.605-1.123,2.02-4.438-2.33-4.227
		c-0.459,0.023-0.64-0.852-0.576-1.439c0.068-0.628,0.405-1.018,1.085-1.028c2.48-0.035,4.96-0.079,7.441-0.11
		c0.795-0.011,1.269,0.302,1.187,1.191c-0.057,0.645,0.121,1.653-0.787,1.553c-2.975-0.335-2.105,1.756-2.127,3.218
		c-0.02,1.463,0.133,2.923,0.193,4.388c0.059,1.364,0.279,2.572-1.908,2.637c-2.274,0.063-2.304-1.052-2.19-2.665
		C75.772,9.44,75.715,8.423,75.715,6.934z"/>
	<path fill-rule="evenodd" clip-rule="evenodd" fill="#161616" d="M12.345,8.048c0,0-0.191-3.273-0.251-4.635
		c-0.055-1.271-0.26-2.396,1.779-2.456c2.117-0.059,2.145,0.981,2.039,2.482c-0.064,0.94-0.014,1.889-0.014,3.271
		c0.103,1.427-0.976,4.06,2.169,3.938c0.429-0.018,0.599,0.796,0.539,1.338c-0.063,0.587-1.009,0.957-1.009,0.957
		C10.234,13.141,12.578,12.98,12.345,8.048z"/>
</g>
</svg>
