<?xml version="1.0" encoding="utf-8"?>
<!-- Generator: Adobe Illustrator 16.0.0, SVG Export Plug-In . SVG Version: 6.00 Build 0)  -->
<!DOCTYPE svg PUBLIC "-//W3C//DTD SVG 1.1//EN" "http://www.w3.org/Graphics/SVG/1.1/DTD/svg11.dtd">
<svg version="1.1" id="Layer_1" xmlns="http://www.w3.org/2000/svg" xmlns:xlink="http://www.w3.org/1999/xlink" x="0px" y="0px"
	 width="91.428px" height="14.532px" viewBox="0 0 91.428 14.532" enable-background="new 0 0 91.428 14.532" xml:space="preserve">
<path fill-rule="evenodd" clip-rule="evenodd" fill="#161616" d="M48.174,1.835c0.222,1.701,1.309,6.375,1.923,9.571
	c0.123,0.635,0.74,1.57-0.007,1.94c-0.699,0.347-1.87,0.497-2.479-0.152c-1.627-1.729-3.017-1.657-4.639,0.003
	c-0.615,0.629-1.793,0.505-2.493,0.17c-0.768-0.367-0.122-1.274,0.009-1.932c0.608-3.051,1.243-6.1,1.871-9.148
	c0.363-1.768,0.363-1.765,2.158-2.014C44.518,0.273,47.953,0.135,48.174,1.835z"/>
<path fill-rule="evenodd" clip-rule="evenodd" fill="#FFFFFF" d="M70.458,12.211c-0.222-1.701-0.764-5.395-0.761-9.554
	c0-0.647-0.74-1.571,0.009-1.941c0.697-0.346,2.807-0.812,2.867,0.077c0.257,3.639-0.376,9.956,1.371,9.892
	c1.499-0.055,0.691,0.444,2.124-0.217c0.711-0.329,0.129-5.001,0.438-9.319c0.615-0.631,2.107-0.785,2.808-0.451
	c0.768,0.365,0.027,1.263-0.009,1.93c-0.168,3.271,0.444,6.153-0.184,9.202c-0.363,1.768-2.051,1.715-3.846,1.962
	C75.276,13.791,70.677,13.912,70.458,12.211z"/>
<path fill-rule="evenodd" clip-rule="evenodd" fill="#FFFFFF" d="M8.063,1.835c0.223,1.701,1.309,6.375,1.926,9.571
	c0.123,0.635,0.739,1.57-0.01,1.94c-0.697,0.347-1.869,0.497-2.479-0.152c-1.625-1.729-3.017-1.657-4.638,0.003
	c-0.616,0.629-1.793,0.505-2.493,0.17C-0.398,13,0.247,12.093,0.379,11.436c0.608-3.051,1.242-6.1,1.871-9.148
	C2.613,0.52,2.615,0.522,4.408,0.273C4.408,0.273,7.844,0.135,8.063,1.835z"/>
<path fill-rule="evenodd" clip-rule="evenodd" fill="#FFFFFF" d="M27.175,6.429c0,2.31-0.092,4.172,0.031,6.022
	c0.085,1.318-0.525,1.57-1.521,1.223c-0.857-0.298-2.633,0.764-2.312-1.48c0.465-3.248,0.345-6.506,0.07-9.769
	c-0.054-0.651-0.78-1.87,0.331-1.983c1.268-0.129,2.946-0.873,3.821,0.951c0.875,1.822,1.753,3.644,2.767,5.753
	c1.039-2.065,1.945-3.908,2.891-5.731c0.404-0.776,3.816-1.761,4.461-1.293c0.414,0.302,0.295,0.801,0.216,1.213
	c-0.681,3.528-0.445,7.091-0.287,10.636c0.06,1.328-0.408,1.707-1.569,1.498c-0.944-0.17-2.512,0.751-2.38-1.4
	c0.101-1.65,0.021-3.312,0.021-5.594c-1.303,1.721-2.269,3.002-3.385,4.478C29.32,9.505,28.371,8.145,27.175,6.429z"/>
<path fill-rule="evenodd" clip-rule="evenodd" fill="#FFFFFF" d="M60.273,6.871c1.146-1.818,2.29-3.263,2.721-5.049
	c0.533-2.199,2.267-1.439,3.521-1.362c1.55,0.101,0.74,1.48,0.655,2.197c-0.364,3.119-0.084,6.219,0.132,9.315
	c0.188,2.7-1.945,1.482-3.007,1.719c-1.599,0.357-0.998-1.053-0.853-1.723c0.359-1.653,0.169-3.284,0.184-5.26
	c-1.624,1.18-2.152,2.939-3.56,4.12c-0.954-1.466-1.875-2.884-2.997-4.604c-0.437,2.146-0.371,3.98-0.219,5.779
	c0.178,2.123-1.3,1.334-2.278,1.472c-1.239,0.176-1.567-0.243-1.437-1.561c0.313-3.175,0.2-6.371,0.076-9.564
	c-0.025-0.657-0.734-1.86,0.581-1.873c1.156-0.011,2.649-0.844,3.501,0.763C58.234,3.017,59.175,4.793,60.273,6.871z"/>
<path fill-rule="evenodd" clip-rule="evenodd" fill="#FFFFFF" d="M83.877,7.683c-0.67-1.245,2.239-4.918-2.58-4.683
	c-0.509,0.025-0.71-0.942-0.64-1.593c0.076-0.697,0.45-1.128,1.201-1.14c2.749-0.042,5.496-0.089,8.245-0.124
	c0.88-0.013,1.404,0.334,1.314,1.321c-0.064,0.714,0.134,1.83-0.873,1.719c-3.294-0.371-2.33,1.945-2.355,3.566
	c-0.022,1.618,0.146,3.237,0.215,4.858c0.065,1.512,0.31,2.851-2.115,2.921c-2.519,0.071-2.551-1.165-2.427-2.952
	C83.941,10.459,83.877,9.332,83.877,7.683z"/>
<path fill-rule="evenodd" clip-rule="evenodd" fill="#FFFFFF" d="M13.677,8.917c0,0-0.213-3.628-0.278-5.135
	c-0.061-1.408-0.288-2.653,1.971-2.72c2.345-0.066,2.376,1.085,2.258,2.749c-0.071,1.041-0.014,2.092-0.014,3.624
	c0.112,1.579-1.082,4.497,2.402,4.361c0.476-0.02,0.662,0.881,0.597,1.483c-0.069,0.649-1.116,1.06-1.116,1.06
	C11.338,14.559,13.935,14.381,13.677,8.917z"/>
</svg>
