<?xml version="1.0" encoding="utf-8"?>
<!-- Generator: Adobe Illustrator 16.0.0, SVG Export Plug-In . SVG Version: 6.00 Build 0)  -->
<!DOCTYPE svg PUBLIC "-//W3C//DTD SVG 1.1//EN" "http://www.w3.org/Graphics/SVG/1.1/DTD/svg11.dtd">
<svg version="1.1" id="Layer_1" xmlns="http://www.w3.org/2000/svg" xmlns:xlink="http://www.w3.org/1999/xlink" x="0px" y="0px"
	 width="90.284px" height="91.762px" viewBox="0 0 90.284 91.762" enable-background="new 0 0 90.284 91.762" xml:space="preserve">
<path fill="#161616" d="M85.446,67.42c-2.285,3.738-6.111,17.396-13.203,20.245c-6.838,2.75-22.509,5.689-33.791,3.088
	c-1.617-0.461-3.205-1.023-4.845-1.362c-6.348-1.326-12.228-3.805-18.046-6.469c-2.058-0.945-3.642-2.22-4.609-4.317
	c-1.367-2.998-2.855-5.949-4.465-8.83c-2.195-3.939-3.605-8.129-4.708-12.47c-3.076-12.104-2.3-23.846,3.398-35.292
	c1.318-2.649,2.997-4.8,5.43-6.466c4.756-3.266,9.681-6.305,14.993-8.579c5.627-2.4,9.501-3.54,17.488-5.145
	C47.782,1.123,50.376,0,56.233,0c4.377,0.089,10.828,1.106,13.452,3.072c4.52,4.389,6.302,6.451,10.634,11.671
	c0.332,0.303,7.722,11.738,9.697,21.438c0.406-0.343,0.429,16.28-0.49,20.04C88.607,59.982,87.733,63.681,85.446,67.42z
	 M63.738,56.405c0.056,0.087,0.104,0.181,0.171,0.266c0.349,0.428,0.195,0.432,0.743,0.218c0.249-0.092,0.491-0.205,0.726-0.323
	c0.692-0.351,1.348-0.75,1.972-1.188c1.215-0.859,2.144-1.951,2.828-3.213c0.131-0.241,0.242-0.491,0.376-0.736
	c0.261-0.477,0.33-0.988,0.289-1.516c-0.102-1.61-0.631-3.109-1.466-4.51c-0.185-0.31-0.385-0.605-0.591-0.902
	c-0.717-1.037-1.259-1.84-2.311-2.564c-0.062-0.008-0.121-0.016-0.179-0.053l-0.054-0.021l0.014,0.059
	c0.009,0.057,0.004,0.117,0.056,0.166c0.159,0.253,0.379,0.484,0.457,0.758c0.065,0.248-0.015,0.532-0.019,0.805
	c-0.005,0.647,0,1.29,0,1.941c0,0.163-0.01,0.331-0.022,0.497c-0.003,0.028-0.043,0.073-0.073,0.086
	c-0.029,0.012-0.511,0-0.532-0.024c-0.333-0.338-0.603-0.721-0.797-1.148c-0.297-0.652-0.524-1.332-0.752-2.007
	c-0.12-0.358-0.207-0.728-0.343-1.078c-0.16-0.443-0.208-0.898-0.223-1.355c-0.014-0.542,0.008-1.301,0.606-1.383
	c0.952-0.126,1.906-0.247,2.875-0.218c0.334,0.011,1.019-0.001,1.266,0.207c0.584,0.497,1.308,1.541,1.801,2.111
	c0.585,0.686,1.155,1.389,1.729,2.084c0.661,0.811,1.316,1.633,1.994,2.438c0.21,0.253,0.822,1.726,0.912,2.036
	c0.265,0.911-0.227,1.929-0.405,2.836c-0.278,1.355-0.722,2.666-1.209,3.969c-0.349,0.944-0.418,1.046-0.776,1.983
	c-0.039,0.098-0.087,0.194-0.127,0.291c-0.167,0.404-0.442,0.705-0.854,0.926c-0.736,0.398-1.752,1.101-2.479,1.513
	c-1.072,0.614-2.239,1.05-3.351,1.591c-0.534,0.265-1.086,0.498-1.634,0.737c-0.238,0.102-0.493,0.191-0.748,0.277
	c-0.261,0.084-1.013-0.544-1.256-0.7c-0.238-0.16-0.507-0.276-0.729-0.443c-0.815-0.601-1.592-1.227-2.282-1.946
	c-0.176-0.188-0.374-0.365-0.563-0.529c-0.476-0.419-0.532-0.932-0.34-1.448c0.213-0.567,0.505-1.111,0.893-1.601
	c0.59-0.743,1.427-0.976,2.354-1.018c0.456-0.021,0.832,0.167,1.112,0.496c0.341,0.395,0.682,0.778,0.949,1.213
	C63.882,56.261,63.599,56.121,63.738,56.405 M68.604,4.333c-0.717,0.296-0.705,0.318-1.291,0.815
	c-0.175,0.146-0.358,0.149-0.558,0.146c-1.147-0.021-2.277,0.13-3.405,0.268c-0.339,0.036-0.665,0.118-0.99,0.181
	c-0.159,0.023-0.303,0.084-0.406,0.193c-0.036,0.043-0.056,0.105-0.056,0.164c0,0.023,0.056,0.066,0.091,0.078
	c0.212,0.102,0.437,0.056,0.664,0.097c0.078,0.053,0.248,0.05,0.15,0.212c-2.115,0.609-4.203,1.302-6.273,2.047
	c-0.021,0.01-0.048,0-0.062-0.009c-0.022-0.008-0.039-0.024-0.066-0.045c0.122-0.295,0.348-0.528,0.525-0.798
	c0.084-0.117,0.189-0.26,0.062-0.389c-0.129-0.126-0.298-0.05-0.444,0c-0.084,0.022-0.16,0.071-0.236,0.104
	c-1.083,0.497-2.028,1.165-2.828,1.99c-0.168,0.173-0.301,0.265-0.573,0.184c-0.253-0.077-0.529-0.085-0.801-0.103
	c-0.433-0.02-0.844,0.058-1.211,0.356c0.31,0.193,0.7,0.263,0.968,0.534c-0.214,0.185-0.471,0.201-0.692,0.291
	c-0.333,0.127-0.675,0.237-0.952,0.457c-0.13,0.1-0.309,0.189-0.256,0.394c0.022,0.11,0.192,0.126,0.476,0.048
	c0.086-0.02,0.173-0.042,0.261-0.072c0.216-0.066,0.437-0.081,0.664-0.045c0.052,0.011,0.087,0.029,0.087,0.083
	c0,0.034,0,0.092-0.019,0.104c-0.27,0.196-0.536,0.387-0.81,0.565c-0.31,0.215-0.59,0.459-0.811,0.751
	c-0.04,0.039-0.047,0.121-0.022,0.165c0.022,0.042,0.102,0.081,0.157,0.081c0.247,0.004,0.489-0.008,0.733-0.008
	c0.123,0,0.185,0.107,0.139,0.227c-0.085,0.208-0.177,0.279-0.4,0.226c-0.735-0.175-1.478-0.118-2.214-0.099
	c-0.631,0.021-1.239,0.175-1.825,0.396c-0.187,0.068-0.372,0.142-0.487,0.313c-0.046,0.056-0.015,0.192,0.056,0.208
	c0.135,0.024,0.261,0.046,0.397,0.048c0.42,0.029,0.847-0.002,1.257,0.146c0.029,0.063,0.08,0.069,0.148,0.077
	c-0.061,0.012-0.122,0.012-0.164,0.055c-0.316,0.088-0.642,0.178-0.966,0.268c-0.875,0.251-1.749,0.517-2.581,0.879
	c-0.367,0.155-0.719,0.346-1.006,0.615c-0.104,0.103-0.224,0.216-0.167,0.384c0.033,0.113,0.198,0.128,0.481,0.035
	c0.122-0.04,0.245-0.102,0.376-0.138c0.254-0.07,0.513-0.151,0.79-0.135c0.085,0.005,0.102,0.076,0.071,0.126
	c-0.054,0.084-0.127,0.176-0.208,0.237c-0.421,0.312-0.867,0.597-1.379,0.757c-0.432,0.134-0.852,0.254-1.282,0.373
	c-0.769,0.22-1.544,0.431-2.284,0.737c-0.573,0.24-1.115,0.533-1.602,0.907c-0.607,0.46-1.01,1.051-1.277,1.729
	c-0.031,0.079-0.047,0.168,0.009,0.237c0.092,0.097,0.205,0.063,0.312,0.041c0.235-0.041,0.858-0.493,0.858-0.493
	s-0.041,0.253-0.106,0.329c-0.083,0.126-0.152,0.249-0.24,0.376c-0.916,1.282-1.512,2.686-1.829,4.195
	c-0.047,0.244,0.084,0.376,0.317,0.302c0.221-0.065,0.427-0.151,0.518-0.361c0.245-0.591,0.71-0.999,1.227-1.377
	c0.051-0.032,0.114-0.041,0.166-0.078c0.005,0,0.061-0.017,0.061-0.017s-0.021,0.054-0.021,0.049c-0.018,0.062,0,0.132-0.053,0.178
	c-0.604,1.092-0.85,2.262-0.875,3.481c0,0.145,0.073,0.221,0.245,0.237c0.1,0.009,0.2-0.102,0.317,0.024
	c-0.432,1.167-0.79,2.357-0.629,3.626c0.018,0.148,0.015,0.289,0.075,0.411c0.117,0.224,0.22,0.121,0.297-0.032l-0.005,0.005
	c0.254-0.346,0.63-0.603,0.63-0.603s-0.03,0.044-0.024,0.04c-0.036,0.062-0.069,0.122-0.11,0.179c-0.039,0.1-0.302,0.74-0.31,0.804
	c-0.247,0.67-0.486,1.343-0.736,2.014c-0.114,0.317-0.164,0.647-0.185,0.979c0,0.125,0.1,0.206,0.213,0.162
	c0.207-0.073,0.41-0.162,0.609-0.253c0.183-0.078,0.322-0.228,0.525-0.257c0.015,0.011,0.036,0.029,0.036,0.045
	c0.008,0.036,0.025,0.081,0.016,0.12c-0.126,0.804-0.436,1.528-1.059,2.114c-0.075,0.072-0.156,0.143-0.231,0.225
	c-0.078,0.084-0.008,0.225,0.12,0.227c0.269,0.017,0.533,0.017,0.806,0.024c0.165,0.013,0.344-0.079,0.52,0.034
	c-0.057,0.32-0.129,0.646-0.176,0.977c-0.025,0.183-0.025,0.374-0.017,0.558c0.003,0.129,0.149,0.187,0.311,0.127
	c0.052-0.025,0.097-0.084,0.145-0.127c0.09-0.033,0.138-0.1,0.176-0.18c0-0.004,0.047,0,0.047,0s-0.035,0.036-0.027,0.033
	c-0.028,0.093,0.038,0.199-0.02,0.3c-0.186,0.729-0.32,1.467-0.276,2.225c0.017,0.234-0.061,0.455-0.162,0.662
	c-0.124,0.249-0.25,0.494-0.433,0.708c-0.075,0.073-0.148,0.17-0.054,0.265c0.089,0.09,0.212,0.041,0.315,0.021
	c0.162-0.04,0.281-0.133,0.388-0.243c0.272-0.273,0.754-0.873,0.754-0.873c0.228-0.038,0.154,0.218,0.139,0.354
	c-0.007,0.209-0.015,0.415-0.03,0.624c-0.029,0.712,0.115,1.405,0.271,2.097c0.01,0.039,0.02,0.149,0.114,0.211
	c0.011,0.008,0.071,0.052,0.137,0.037c0.118-0.029,0.109-0.261,0.2-0.552c0.041-0.118,0.102-0.267,0.207-0.438
	c0.208-0.072,0.232,0.069,0.223,0.191c-0.015,0.37,0.07,0.74-0.044,1.111c-0.014,0.484-0.236,0.924-0.407,1.372
	c-0.064,0.188,0.021,0.272,0.219,0.269c0.296-0.013,0.534-0.191,0.824-0.225c0.064,0.185-0.007,0.349-0.009,0.51
	c-0.011,0.249-0.02,0.5-0.02,0.745c0,0.065,0.014,0.119,0.086,0.154c0.077,0.032,0.134,0,0.172-0.05
	c0.119-0.121,0.224-0.254,0.337-0.39c0.117-0.122,0.162-0.289,0.362-0.362c0.436,0.605,0.648,1.229,0.184,1.908
	c-0.003,0.015-0.012,0.036-0.02,0.061c-0.03,0.077-0.048,0.181,0.048,0.213c0.071,0.025,0.521,0.121,0.578,0.087l0.595,0.039
	l-0.631,0.862l0.125-0.131c-0.081,0.152-1.411,1.313-1.504,1.388c-0.401,0.347-0.734,0.729-0.811,1.254
	c-0.03,0.142-0.015,0.3,0.128,0.388c0.134,0.085,0.25-0.021,0.37-0.073c0.104-0.053,0.164-0.18,0.313-0.167
	c-0.39,0.766-0.39,0.766-1.793,1.759c0.009,0.383,0.453,0.147,0.586,0.362c-0.493,0.42-0.988,0.85-1.263,1.438
	c-0.161,0.394-0.321,0.789-0.092,1.208c0.222,0.126,0.366-0.021,0.533-0.117c0.016-0.008,0.038-0.025,0.062-0.033
	c0.041-0.046,0.091-0.09,0.131-0.138c0.046-0.046,0.104-0.078,0.16-0.109c0.042-0.021,0.081-0.044,0.115-0.07
	c0.035-0.028,0.069-0.053,0.101-0.082c0.041-0.029,0.068-0.053,0.105-0.084c0.035-0.028,0.07-0.056,0.104-0.087
	c0.037-0.021,0.074-0.039,0.108-0.065c0.008,0.037-0.003,0.059-0.034,0.065c-0.031,0.031-0.052,0.07-0.074,0.106
	c-0.063,0.113-0.132,0.217-0.21,0.313c-0.174,0.24-0.389,0.656-0.418,0.708c-0.032,0.079-0.077,0.171,0.017,0.223
	c0.048,0.034,0.126,0.047,0.186,0.026c0.167-0.058,0.565-0.289,0.455-0.049c-0.461,1.037-0.624,2.157-0.948,3.235
	c-0.145,0.457-1.966,5.593-2.695,6.676c-0.688,1.021-1.535,1.9-2.44,2.74c-0.076,0.072-0.169,0.141-0.256,0.198
	c-0.514,0.339-1.022,0.672-1.544,0.997c-1.161,0.708-2.44,1.124-3.792,1.367c-0.862,0.155-1.733,0.24-2.6,0.347
	c-1.673,0.185-3.335,0.436-4.897,1.047c-0.437,0.17-0.794,0.23-1.118-0.162c-0.039-0.05-0.109-0.08-0.166-0.107
	c-0.206-0.078-0.398-0.056-0.561,0.094c-0.134,0.118-0.231,0.25-0.25,0.423c-0.042,0.388-0.011,0.726,0.341,1.022
	c0.526,0.452,0.983,0.964,1.406,1.505c0.629,0.804,1.154,1.646,1.484,2.582c0.156,0.451,0.678,0.418,0.899,0.171
	c0.076-0.078,0.136-0.171,0.202-0.244c0.419-0.525,0.975-0.852,1.678-0.935c1.004-0.12,2.001-0.271,3.004-0.353
	c1.141-0.095,2.271-0.236,3.398-0.406c2.185-0.326,4.26-0.956,6.192-1.986c0.35-0.188,0.713-0.351,1.058-0.543
	c0.463-0.249,1.819-1.2,1.886-1.221c0,0,0.065-0.109,0.145-0.109H40.34c0.416-0.331,4.797-4.181,6.321-6.578
	c0.44-0.573,0.895-1.136,1.342-1.705c0.012-0.021,0.044-0.058,0.086-0.081c0.04-0.024,0.08-0.038,0.109-0.04
	c-0.051,0.121-0.041,0.191-0.057,0.37c-0.056,0.39-0.016,0.745,0.329,1.03c0.132,0.109,0.21,0.268,0.301,0.409
	c0.757,1.158,1.463,2.346,2.084,3.574c0.559,1.116,2.513,5.146,2.878,6.064c0.354,0.881,1.814,5.655,2.139,7.174
	c0.235,1.093,0.432,1.804,0.486,2.923l0.711-0.068c5.189-0.811,9.998-2.013,13.013-2.924c7.587-2.293,10.832-16.437,13.197-20.242
	c2.364-3.806,3.272-7.57,4.227-11.399c0.951-3.827,0.926-20.75,0.507-20.4c-2.046-9.873-10.397-20.511-10.741-20.818
	c-3.752-4.164-3.863-4.894-6.481-7.587L68.604,4.333z M37.535,58.063c0.182-0.433,0.981-1.418,0.981-1.418s-0.475-0.091-0.263-0.525
	c0.196-0.428,1.255-1.216,1.255-1.216c-0.145-0.371-0.061-0.954-0.014-1.084c0.119-0.322,0.241-0.555,0.371-0.741l-0.239-0.139
	l-1.411-0.388c-0.383-0.064-3.069-0.439-3.069-0.439s-2.284-0.358-3.709-0.646c-1.576-0.318-2.795-0.764-4.326-1.23
	c-0.355-0.104-0.534-0.14-0.643-0.166c-0.933-0.269-1.593-0.519-4.391-1.747c0,0-0.521-0.362-1.465-1.201
	c-0.108-0.096-0.19-0.208-0.198-0.215c-0.056-0.083-0.113-0.167-0.164-0.244c-0.129-0.196-0.207-0.412-0.237-0.636
	c-0.21-1.505-0.277-1.301-0.457-2.442c0.061-1.565-0.317-1.954,0.831-3.134c0.262-0.277,0.556-0.473,0.922-0.59
	c0.718-0.229,1.456-0.42,2.21-0.505c0.797-0.093,1.61-0.069,2.431-0.066c0.49,0.004,1.261,0.166,1.696,0.311
	c0.432,0.134,0.748,0.215,1.209,0.563c0.52,0.646,0.498,0.409,0.966,1.06c0.031,0.045,0.071,0.114,0.155,0.076
	c0.044-0.016,0.067-0.038,0.085-0.071c0.011-0.034,0.007-0.062,0.007-0.069c-0.355-1.85-0.469-2.143-0.469-2.143
	c0.24,0.641,0.105,0.12-0.573-1.358l0.002,0.003c-0.08-0.02-0.194-0.052-0.34-0.081c-0.397-0.088-2.027-0.443-4.817-0.451
	c-0.975-0.003-2.476,0-4.435,0.286c-1.325,0.19-2.449,0.458-3.34,0.708v0.001c-0.252,0.609-0.476,2.001-0.48,2.059
	c-0.085,0.608-0.293,2.645-0.299,2.724c-0.088,0.82-0.042,3.677,0.138,4.52c0.096,0.465,0.122,0.945,0.375,1.376
	c0.52,0.759,5.023,4.28,5.096,4.325c1.488,0.979,2.228,1.469,2.535,1.648c3.318,1.852,7.136,2.055,10.326,2.722
	c0.761,0.158,1.381,0.267,1.737,0.334l1.736,0.201L37.535,58.063z"/>
</svg>
