<?xml version="1.0" encoding="utf-8"?>
<!-- Generator: Adobe Illustrator 16.0.0, SVG Export Plug-In . SVG Version: 6.00 Build 0)  -->
<!DOCTYPE svg PUBLIC "-//W3C//DTD SVG 1.1//EN" "http://www.w3.org/Graphics/SVG/1.1/DTD/svg11.dtd">
<svg version="1.1" id="Layer_1" xmlns="http://www.w3.org/2000/svg" xmlns:xlink="http://www.w3.org/1999/xlink" x="0px" y="0px"
	 width="480px" height="480px" viewBox="0 0 480 480" enable-background="new 0 0 480 480" xml:space="preserve">
<path fill="#FEAE1B" d="M380.095,83.929c1.23,2.561,0.283,4.756-1.612,6.454c-2.553,2.299-4.419,0.061-5.996-1.445
	c-22.143-21.034-44.776-41.593-66.089-63.482c-11.824-12.15-24.699-17.256-40.863-13.614c-20.307,4.589-41.426,4.715-61.195,12.364
	c-29.584-0.092-56.823,10.414-83.347,22.384c-25.07,11.339-48.328,26.484-70.76,42.782c-11.457,8.314-19.404,19.024-25.626,32.241
	C-2.261,178.688-5.94,237.225,8.582,297.579c5.195,21.653,11.857,42.547,22.211,62.177c7.596,14.37,14.623,29.092,21.083,44.047
	c4.546,10.454,12.011,16.804,21.731,21.517c27.44,13.281,55.19,25.646,85.159,32.245c7.732,1.696,15.233,4.5,22.849,6.796
	c53.243,12.972,107.765-0.464,163.271-7.239c8.001-0.083,15.974-0.487,23.952-0.235"/>
<path fill="#1E0000" d="M93.836,182.315c-0.092-0.049-0.258-0.104-0.258-0.161C93.6,181.973,93.708,182.026,93.836,182.315
	L93.836,182.315z"/>
<path fill="none" d="M181.708,263.619c0,1.11,6.232,2.005,13.93,2.005"/>
<path fill="#111111" d="M174.224,275.77c-1.618-0.313-4.396-0.855-7.813-1.616c-14.294-3.212-29.198-6.68-44.103-15.598
	c-1.369-0.855-4.687-3.214-11.368-7.945c-0.324-0.214-23.47-17.165-25.042-18.377c-1.148-2.063-1.251-4.39-1.699-6.625
	c-0.79-4.068-0.99-17.829-0.613-21.794c0.019-0.372,0.976-10.185,1.341-13.134c0.03-0.27,1.029-6.983,2.159-9.907v-0.02
	c3.985-1.197,9.029-2.478,14.967-3.417c8.794-1.368,15.53-1.387,19.902-1.368c12.517,0.039,19.822,1.748,21.616,2.182
	c0.636,0.145,1.153,0.293,1.51,0.384l-0.008-0.02c1.077,2.532,1.93,4.765,2.57,6.551c0,0,0.509,1.429,2.088,10.326
	c0.006,0.04,0.022,0.186-0.021,0.333c-0.071,0.159-0.187,0.286-0.375,0.359c-0.38,0.184-0.546-0.146-0.691-0.38
	c-1.93-3.27-3.958-6.483-5.768-9.824c-1.021-1.841-2.505-2.403-4.443-3.066c-1.938-0.672-5.389-1.466-7.595-1.486
	c-3.681-0.015-7.33-0.141-10.908,0.308c-3.373,0.419-6.678,1.343-9.909,2.438c-1.64,0.56-2.954,1.521-4.128,2.839
	c-5.149,5.704-7.555,12.419-7.828,19.984c-0.164,4.39-0.023,5.578,0.919,12.821c0.141,1.087,0.487,2.133,1.052,3.063
	c0.243,0.384,0.487,0.784,0.754,1.19c0.027,0.027,0.386,0.567,0.874,1.034c4.246,4.052,10.745,7.137,10.745,7.137
	c12.53,5.936,15.488,7.126,19.663,8.426c0.504,0.138,1.311,0.294,2.888,0.8c6.868,2.258,13.852,3.944,20.91,5.481
	c6.417,1.388,16.649,3.119,16.649,3.119s12.045,1.791,13.761,2.123l9.251,0.974l-6.827,24.497L174.224,275.77z"/>
<path fill="#FFFFFF" d="M192.076,261.65c-0.645-1.791-0.28-4.595-0.059-5.217c1.818-5.237,3.736-5.629,6.963-8.53
	c6.493-5.855,7.001-6.166,7.001-6.166c0.885-0.868-1.092,2.5,0.582,1.11c-1.858,2.121-4.772,4.36-6.681,7.021
	c-2.144,3.02-3.959,5.94-5.5,8.607c0,0,6.063-2.043,1.094,3.02c-4.958,5.081-6.541,5.686-6.541,5.686l3.549,1.501l-5.842,9.852
	l5.842-1.618l-1.641,5.007l2.749,2.901c0,0-0.81,2.589-2.425,10.029c-1.617,7.438-7.976,48.739-4.491,2.687
	c0.304-4.012,1.585-9.951,1.585-9.951s-1.823,0.468-2.425-2.045c-0.392-1.655-0.842-1.557-2.16-2.18c0,0-1.472,0-0.599-5.96
	c0.232-1.616,4.561-7.36,4.561-7.36s-2.119-0.428-1.199-2.513C187.335,265.467,192.076,261.65,192.076,261.65z"/>
<path fill="#E6ECEC" d="M331.366,161.339c-1.567,0.506-3.178,0.379-4.761,0.491c-0.574,0.034-1.024-0.24-1.178-0.746
	c-0.107-0.38,0.205-0.719,0.571-0.958c1.948-1.3,4.098-2.087,6.358-2.512c1.198-0.213,2.398-0.331,3.586-0.507
	c1.011,0.385,1.887,0.347,2.519-0.661c0.636,1.027,0.554,1.685-0.261,1.727c-1.207,0.079-2.396,0-3.574,0.079
	c-2.803,0.159-5.382,0.935-8.034,2.833C328.477,161.176,329.916,161.266,331.366,161.339"/>
<path fill="#585553" d="M338.462,156.445c-0.047,1.25-0.076,1.294-0.922,1.168c-0.546-0.083-1.071-0.321-1.597-0.507
	c0.67-0.269,1.537,0.036,1.993-0.769C338.124,156.318,338.308,156.352,338.462,156.445"/>
<path fill="#111111" d="M469.425,237.75c-0.191-0.795-0.152-1.573-1.127-1.319l-0.818,1.917c-0.563,0.736-6.337,32.844-7.468,39.368
	c-0.372,2.182-3.359,16.709-4.76,21.714c-0.867,3.193-2.29,6.173-3.954,9.056l-1.195,2.396c0.785,1.615,0.815,3.288,0.475,5.001
	c-0.177,0.78-0.814,1.072-1.528,0.585c-0.556-0.369-0.896-0.369-1.166,0.195c-0.219,0.448-0.293,0.974-0.462,1.402
	c-0.367,0.876-0.866,1.285-1.232,0.974c-0.44-0.391-0.214-0.955-0.265-1.422c-0.223-0.232-0.449-0.429-0.632-0.643
	c-0.82,0.76-1.347,1.791-2.366,2.297c-0.158,0.061-0.419,0.061-0.517-0.038c-0.089-0.138-0.146-0.41-0.067-0.506
	c0.524-0.878,1.07-1.732,1.665-2.531c0.34-0.486,0.769-0.936,0.615-1.598l0.009-0.098c-0.73-0.233-0.996-0.644-0.578-1.226
	c0.313-0.468,0.838-0.858,1.354-1.109c1.323-0.624,2.698-1.19,4.059-1.753l1.081-3.292c0.501-1.634,5.213-17.973,5.602-24.809
	c0.152-2.921,0.738-12.092,0.829-13.785c0.298-1.384-0.015-2.806,0.252-4.188c0.076-0.389,0.046,0.097,0.067-0.312
	c-0.137,0.079-0.1,0.253-0.146,0.371c-2.925,6.27-5.512,12.674-8.521,18.868c-4,8.353-24.962,47.728-25.062,47.921
	c-4.752,9.466-27.417,42.978-28.39,44.108c-3.003,3.446-3.682,7.516-3.489,11.856c0.188,4.209,3.254,53.143,3.04,55.228
	c-0.418,4.105-2.521,7.77-6.789,9.071c-3.872,1.191-7.815,1.909-11.855,2.104c-2.649,0.177-3.359,0.76-3.836,3.293
	c-0.206,1.012-1.384,2.257-2.183,2.628c-2.54,1.205-5.064,2.259-7.993,2.512c-5.024,0.328-10.019,0.699-15.052,0.683
	c-4.83-0.06-9.64-0.257-14.449-0.858c-1.1-0.176-2.21-0.332-3.244-0.684c-2.128-0.641-3.825-1.771-3.962-4.318
	c-0.03-0.897-0.311-1.794-0.37-2.669c-0.205-4.054-0.466-8.046-0.526-12.096c-0.114-7.963-1.097-15.83-2.402-23.655
	c-0.091-0.585-0.052-1.247-0.714-1.58c-0.427-0.235-1.4,0.508-1.78,1.307c-0.398,0.853-0.378,1.789-0.436,2.663
	c-0.256,4.91-1.793,16.536-1.996,21.461c-0.091,2.024-0.169,4.032-0.253,6.037c-0.068,1.714-0.457,3.368-0.919,5.025
	c-0.555,2.045-1.955,2.899-3.91,3.135c-2.183,0.289-4.385,0.563-6.566,0.856c-1.285,0.155-1.392,0.292-1.645,1.713
	c-0.318,1.87-0.524,1.87-1.604,2.318c-2.244,1.013-4.197,1.263-6.66,1.345c-6.356,0.153-13.001,0.037-19.29-0.53
	c-0.508-0.054-5.694-0.405-7.731-0.934c-1.897-0.487-2.813-1.652-2.939-3.659c-0.496-7.419-1.069-14.841-1.053-22.298
	c0-7.554-0.545-15.109-2.013-22.491c-1.454-7.322-8.005-30.336-9.603-34.581c-1.645-4.423-10.38-23.857-12.897-29.229
	c-2.789-5.921-5.951-11.646-9.346-17.215c-0.409-0.701-0.773-1.461-1.353-1.986c-1.541-1.384-1.726-3.096-1.474-4.967
	c0.074-0.873,0.053-1.207,0.252-1.79c-0.132,0.021-0.311,0.077-0.481,0.194c-0.206,0.118-0.333,0.292-0.401,0.389
	c-2.003,2.747-4.044,5.453-5.999,8.237c-6.855,11.549-26.483,30.104-28.347,31.702h0.021c-0.368,0-0.657,0.524-0.657,0.524
	c-0.303,0.099-6.367,4.675-8.446,5.884c-1.553,0.932-3.183,1.711-4.748,2.607c-8.653,4.965-17.976,8.005-27.77,9.581
	c-5.06,0.836-10.136,1.521-15.247,1.967c-4.491,0.39-8.968,1.111-13.452,1.696c-3.168,0.404-5.652,1.964-7.544,4.496
	c-0.29,0.37-0.572,0.818-0.901,1.186c-0.998,1.192-3.327,1.346-4.042-0.815c-1.466-4.517-3.83-8.59-6.644-12.462
	c-1.915-2.591-3.952-5.063-6.305-7.245c-1.567-1.44-1.726-3.056-1.537-4.927c0.092-0.837,0.527-1.479,1.123-2.045
	c0.73-0.722,1.583-0.817,2.505-0.447c0.271,0.136,0.582,0.272,0.748,0.507c1.446,1.908,3.072,1.616,5.029,0.778
	c7.007-2.94,14.47-4.148,21.962-5.043c3.876-0.508,7.786-0.917,11.646-1.656c6.072-1.168,11.813-3.174,17.006-6.602
	c2.335-1.559,4.622-3.173,6.931-4.808c0.397-0.273,0.8-0.605,1.145-0.955c4.057-4.051,7.859-8.276,10.938-13.201
	c3.285-5.22,11.451-29.972,12.087-32.189c1.455-5.2,2.199-10.595,4.261-15.599c0.487-1.149-1.294-0.039-2.037,0.253
	c-0.282,0.099-0.636,0.02-0.853-0.137c-0.397-0.252-0.218-0.699-0.061-1.069c0.124-0.253,1.09-2.26,1.883-3.409
	c0.336-0.487,0.662-0.974,0.939-1.519c0.09-0.174,0.189-0.351,0.321-0.508c0.15-0.038,0.208-0.137,0.167-0.311
	c-0.167,0.116-0.313,0.216-0.484,0.311c-0.157,0.157-0.319,0.274-0.478,0.411c-0.166,0.155-0.303,0.273-0.464,0.409
	c-0.149,0.134-0.305,0.253-0.47,0.389c-0.154,0.136-0.34,0.233-0.5,0.33c-0.269,0.157-0.509,0.332-0.725,0.546
	c-0.188,0.233-0.384,0.448-0.598,0.663c-0.094,0.039-0.183,0.115-0.273,0.156c-0.731,0.465-1.392,1.188-2.388,0.563
	c-1.024-2.024-0.302-3.915,0.412-5.82c1.245-2.824,3.447-4.907,5.669-6.934c-0.586-1.03-2.598,0.099-2.623-1.733
	c6.297-4.789,6.297-4.789,8.044-8.489c-0.68-0.061-0.94,0.563-1.426,0.817c-0.513,0.255-1.042,0.761-1.64,0.352
	c-0.657-0.431-0.706-1.188-0.598-1.891c0.363-2.511,1.858-4.361,3.664-6.015c0.397-0.372,6.373-5.976,6.757-6.694l-0.583,0.623
	l2.831-4.149l-2.673-0.213c-0.265,0.194-2.281-0.274-2.599-0.409c-0.429-0.155-0.338-0.644-0.206-1.022
	c0.034-0.113,0.074-0.204,0.099-0.295c2.083-3.277,1.124-6.277-0.83-9.188c-0.896,0.341-1.122,1.148-1.629,1.749
	c-0.508,0.638-0.979,1.281-1.503,1.879c-0.187,0.219-0.435,0.398-0.777,0.238c-0.328-0.159-0.393-0.448-0.393-0.745
	c0-1.189,0.042-2.406,0.082-3.596c0.021-0.79,0.332-1.562,0.05-2.451c-1.297,0.152-2.356,1.029-3.681,1.071
	c-0.896,0.027-1.29-0.392-0.989-1.289c0.755-2.167,1.757-4.279,1.818-6.626c0.503-1.767,0.149-3.554,0.199-5.34
	c0.043-0.598-0.05-1.284-0.989-0.928c-0.483,0.818-0.759,1.556-0.936,2.117c-0.414,1.393-0.37,2.512-0.901,2.654
	c-0.281,0.072-0.563-0.142-0.617-0.176c-0.416-0.307-0.47-0.832-0.512-1.033c-0.697-3.319-1.337-6.664-1.193-10.092
	c0.04-0.998,0.078-2,0.125-3.004c0.048-0.661,0.398-1.878-0.63-1.714c0,0-2.161,2.893-3.37,4.212
	c-0.486,0.527-1.029,0.974-1.75,1.159c-0.475,0.107-1.021,0.341-1.404-0.077c-0.441-0.471-0.104-0.922,0.216-1.296
	c0.846-1.034,1.4-2.201,1.949-3.398c0.446-1.012,0.806-2.06,0.732-3.194c-0.208-3.653,0.416-7.204,1.235-10.731
	c0.27-0.486-0.046-0.992,0.087-1.444c-0.023,0.019,0.127-0.156,0.127-0.156s-0.214-0.016-0.214,0
	c-0.165,0.375-0.392,0.701-0.781,0.866c-0.227,0.213-0.401,0.487-0.645,0.608c-0.727,0.292-1.371,0.02-1.393-0.608
	c-0.042-0.882-0.042-1.81,0.069-2.696c0.212-1.593,0.525-3.155,0.798-4.709c-0.798-0.543-1.598-0.087-2.358-0.149
	c-1.199-0.049-2.406-0.049-3.597-0.113c-0.569-0.028-0.875-0.696-0.531-1.11c0.33-0.38,0.688-0.719,1.034-1.085
	c2.796-2.828,4.176-6.3,4.764-10.184c0.023-0.182-0.038-0.395-0.08-0.575c-0.008-0.094-0.099-0.152-0.157-0.216
	c-0.932,0.122-1.56,0.849-2.371,1.224c-0.888,0.433-1.789,0.867-2.74,1.225c-0.504,0.221-0.951-0.174-0.935-0.773
	c0.084-1.611,0.307-3.192,0.832-4.728c1.098-3.231,2.182-6.47,3.28-9.702c0.037-0.306,1.216-3.391,1.394-3.865
	c0.176-0.281,0.346-0.568,0.487-0.864c-0.013,0.019,0.132-0.2,0.132-0.2s-1.7,1.231-2.831,2.896l0.021-0.016
	c-0.353,0.756-0.806,1.237-1.335,0.171c-0.281-0.594-0.26-1.277-0.338-1.988c-0.729-6.118,0.884-11.862,2.835-17.49
	c-0.542-0.599-0.994-0.078-1.443-0.111c-0.752-0.073-1.105-0.449-1.105-1.134c0.132-5.891,1.229-11.525,3.931-16.795
	c0.227-0.23,0.162-0.561,0.243-0.848c0,0.021,0.09-0.234,0.09-0.234s-0.252,0.068-0.273,0.068c-0.227,0.186-0.5,0.224-0.748,0.38
	c-2.306,1.829-4.401,3.792-5.495,6.634c-0.405,1.021-1.335,1.436-2.318,1.74c-1.063,0.35-1.652-0.266-1.425-1.457
	c1.425-7.274,4.099-14.031,8.206-20.223c0.389-0.598,0.708-1.188,1.075-1.806c0.298-0.376,0.479-1.593,0.479-1.593
	s-2.805,2.192-3.847,2.386c-0.491,0.092-0.995,0.273-1.4-0.194c-0.261-0.341-0.183-0.766-0.038-1.141
	c1.195-3.271,3.004-6.124,5.732-8.344c2.181-1.802,4.607-3.227,7.177-4.368c3.306-1.479,6.781-2.491,10.244-3.563
	c1.917-0.569,3.828-1.148,5.749-1.802c2.301-0.774,4.292-2.128,6.186-3.646c0.375-0.292,0.697-0.726,0.94-1.14
	c0.137-0.232,0.055-0.598-0.338-0.607c-1.235-0.077-2.391,0.303-3.54,0.642c-0.584,0.186-1.131,0.467-1.687,0.672
	c-1.258,0.452-1.989,0.38-2.15-0.18c-0.252-0.794,0.273-1.339,0.75-1.827c1.295-1.312,2.862-2.219,4.495-2.977
	c3.745-1.749,7.665-3.015,11.579-4.246c1.457-0.429,2.904-0.847,4.346-1.277c0.175-0.213,0.458-0.213,0.723-0.277
	c-0.283-0.019-0.525-0.061-0.657-0.359c-1.829-0.722-3.755-0.569-5.648-0.702c-0.603-0.034-1.174-0.125-1.772-0.236
	c-0.319-0.075-0.45-0.727-0.261-1.015c0.53-0.806,1.356-1.167,2.199-1.51c2.624-1.056,5.351-1.79,8.189-1.901
	c3.299-0.103,6.629-0.356,9.921,0.476c1.001,0.249,1.4-0.072,1.781-1.105c0.212-0.56-0.049-1.066-0.595-1.066
	c-1.103,0-2.198,0.059-3.305,0.035c-0.248,0-0.611-0.2-0.699-0.395c-0.111-0.218-0.074-0.612,0.088-0.808
	c1.004-1.398,2.251-2.566,3.644-3.6c1.215-0.878,2.426-1.786,3.624-2.725c0.099-0.073,0.099-0.346,0.099-0.525
	c0-0.254-0.168-0.323-0.4-0.376c-1.025-0.198-2-0.107-2.972,0.216c-0.392,0.126-0.788,0.236-1.159,0.339
	c-1.274,0.365-2.043,0.293-2.15-0.229c-0.223-0.983,0.575-1.41,1.148-1.897c1.254-1.067,2.783-1.592,4.265-2.201
	c1.013-0.433,2.152-0.525,3.134-1.398c-1.233-1.318-2.967-1.64-4.373-2.581c1.658-1.438,3.505-1.81,5.443-1.717
	c1.218,0.081,2.457,0.126,3.587,0.487c1.217,0.393,1.836-0.049,2.578-0.867c3.591-4.002,7.817-7.215,12.66-9.605
	c0.356-0.155,0.708-0.395,1.079-0.516c0.662-0.225,1.422-0.598,1.995,0c0.565,0.627,0.097,1.314-0.284,1.894
	c-0.798,1.281-1.801,2.416-2.334,3.841c0.115,0.091,0.184,0.18,0.273,0.218c0.077,0.041,0.184,0.075,0.28,0.041
	c9.279-3.593,18.652-6.933,28.148-9.879c0.418-0.777-0.343-0.758-0.683-1.012c-1.004-0.201-2.033,0.019-2.967-0.467
	c-0.165-0.072-0.418-0.259-0.418-0.38c0-0.271,0.075-0.579,0.241-0.779c0.467-0.537,1.11-0.827,1.82-0.948
	c1.479-0.298,2.947-0.683,4.447-0.854c5.078-0.675,10.12-1.411,15.28-1.299c0.893,0.02,1.72,0,2.502-0.709
	c2.627-2.403,5.793-3.931,9.004-5.349c6.232-2.738,12.697-4.399,19.483-4.74c3.203-0.165,6.417,0.228,9.462,1.383
	c1.785,0.692,3.496,1.539,4.684,3.129c0.128,1.224-0.799,1.141-1.559,1.262c-5.12,0.346-7.914,1.266-10.298,3.578
	c1.843,0.589,3.544,0.468,5.256,0.156c2.706,0.278,5.384,0.313,8.041,1.014c2.505,0.671,4.687,1.792,6.418,3.7
	c0.739,0.816,1.567,1.558,2.207,2.438c1.444,1.949,3.392,3.105,5.681,3.705c0.592,0.161,1.169,0.307,1.732,0.525
	c0.466,0.161,0.438,0.537,0.265,0.969c-0.394,0.965-1.405,1.398-1.96,2.207c0.158,0.774,0.828,0.813,1.336,0.938
	c3.288,0.886,6.591,1.68,9.893,2.562c5.247,1.396,10.319,3.258,15.012,6.017c2.013,1.159,3.876,2.472,5.365,4.297
	c1.354,1.622,2.911,3.047,4.623,4.3c0.479,0.326,0.295,0.867-0.244,1.121c-0.554,0.286-1.125,0.271-1.74,0.228
	c-1.59-0.126-3.193-0.141-4.781-0.219c-0.155,0.112-0.235,0.219-0.155,0.311c0.048,0.094,0.115,0.122,0.163,0.122l0.042,0.049
	c0.215,0.448,0.847,0.283,1.051,0.715c1.422,0.961,2.792,1.954,4.234,2.854c5.483,3.452,10.593,7.336,14.773,12.33
	c1.409,1.694,2.677,3.486,3.657,5.488c1.081,2.283,2.251,4.502,3.339,6.756c0.218,0.395,0.636,0.798,0.265,1.554
	c-2.971-1.227-5.442-3.599-8.852-4.241c-0.007,2.475,0.701,4.64,1.706,6.713c0.836,1.714,1.885,3.307,3.046,4.839
	c2.23,2.976,4.702,5.763,7.323,8.417c0.557,0.559,1.081,1.128,1.643,1.729c-2.181,1.625-3.376,1.931-9.383,2.491
	c-0.188,0.814,0.586,0.951,1.02,1.251c7.802,5.706,14.09,12.803,19.622,20.672c1.81,2.585,3.232,5.306,4.068,8.364
	c0.153,0.554,0.418,1.099,0.661,1.66c0.458,0.487,0.525,1.12,0.1,1.572c-0.545,0.653-1.024,0.034-1.451-0.32
	c-0.517-0.479-1.073-0.871-1.49-1.417l-0.046-0.039c-1.058-0.356-1.033,0.24-0.791,0.958c-0.022,0.198,0.047,0.346,0.234,0.418
	c0.123,0.234,0.268,0.433,0.457,0.612l0.009,0.015c0.243,0.186,0.401,0.425,0.509,0.673l0,0c0.494,0.166,0.288,0.813,0.729,1.033
	l0.056,0.092c0.156,0.208,0.311,0.414,0.499,0.597c3.941,5.265,8.995,9.109,15.062,11.675c0.992,0.434,2.13,0.585,3.059,1.447
	c-1.189,2.404-3.719,2.438-5.766,3.213c-0.105,0.814,0.479,1.125,0.845,1.551c2.647,3.033,5.194,6.14,7.596,9.372
	c1.644,2.22,2.891,4.587,3.484,7.298c0.341,1.567,0.751,3.102,1.17,4.673c0.105,0.71,0.865,1.622-0.631,1.786
	c-3.271-3.523-6.76-6.809-10.623-9.676c-0.456,0.598-0.273,1.08-0.1,1.537c0.653,1.68,1.317,3.355,1.971,5.04
	c1.108,2.739,2.665,5.16,4.769,7.254c1.148,1.138,2.249,2.297,3.352,3.471c0.66,0.686,0.689,0.714-0.286,1.586
	c-0.293,0.288-0.261,0.525-0.135,0.74c0.339,0.613,0.739,1.213,1.176,1.749c1.998,2.617,3.06,5.582,3.509,8.85
	c0.611,4.878,1.021,9.786,1.265,14.697c0.097,2.604,0.203,5.22,0.311,7.823c-0.604,0.374-0.867-0.112-1.187-0.453
	c-0.76-0.798-1.521-1.591-2.203-2.329c-0.892,0.289-0.632,0.848-0.623,1.296c0.285,5.434,0.12,10.857-1.059,16.184
	c-0.214,0.981-0.401,1.965-1.21,2.687c-0.554,0.466-1.117,0.39-1.441-0.292c-0.389-0.907-0.786-1.824-1.166-2.748L469.425,237.75z"
	/>
<path fill="#FFFFFF" d="M291.358,268.174c0.253,0.41,0.479,0.858,0.76,1.267c1.589,2.063,0.897,2.083,3.348,1.051
	c1.123-0.447,2.202-0.991,3.252-1.557c3.099-1.693,6.045-3.603,8.843-5.726c5.443-4.147,9.611-9.405,12.685-15.479
	c0.584-1.164,1.072-2.381,1.679-3.551c1.157-2.307,1.475-4.78,1.314-7.315c-0.471-7.767-2.835-14.971-6.583-21.718
	c-0.821-1.499-1.735-2.945-2.661-4.371c-3.202-4.996-7.525-8.851-12.227-12.352c-0.273-0.053-0.555-0.092-0.807-0.262
	c0,0.01-0.235-0.093-0.235-0.093l0.062,0.263c0.037,0.292,0.017,0.585,0.241,0.813c0.71,1.213,1.691,2.331,2.04,3.657
	c0.325,1.186-0.045,2.575-0.063,3.874c-0.021,3.125,0,6.227,0,9.356c0,0.791-0.044,1.601-0.098,2.399
	c-0.021,0.143-0.206,0.36-0.343,0.414c-0.146,0.054-0.41,0-0.51-0.111c-1.495-1.634-2.706-3.485-3.571-5.541
	c-1.341-3.145-2.357-6.41-3.379-9.676c-0.517-1.715-0.925-3.505-1.518-5.2c-0.738-2.128-0.944-4.318-1.012-6.519
	c-0.048-2.62,0.994-3.878,3.649-4.259c4.286-0.619,8.562-1.212,12.91-1.067c1.504,0.055,2.689,0.508,3.788,1.509
	c2.628,2.391,4.926,5.025,7.137,7.77c2.64,3.303,5.179,6.679,7.752,10.039c2.97,3.919,5.918,7.878,8.959,11.752
	c0.935,1.235,1.499,2.546,1.887,4.029c1.207,4.406,0.866,8.797,0.068,13.161c-1.226,6.538-3.232,12.862-5.413,19.129
	c-1.576,4.56-3.254,9.096-4.868,13.613c-0.166,0.468-0.38,0.936-0.567,1.403c-0.747,1.946-1.984,3.388-3.825,4.458
	c-3.299,1.909-6.502,4.031-9.754,6.019c-4.801,2.958-10.036,5.061-15.016,7.671c-2.404,1.285-4.877,2.396-7.33,3.544
	c-1.088,0.507-2.221,0.935-3.359,1.345c-1.179,0.408-2.345,0.389-3.447-0.351c-1.069-0.76-2.257-1.345-3.269-2.143
	c-3.657-2.881-7.139-5.9-10.228-9.386c-0.796-0.896-1.665-1.753-2.521-2.551c-2.139-2.007-2.395-4.479-1.528-6.971
	c0.964-2.729,2.249-5.355,4.013-7.711c2.638-3.585,6.396-4.713,10.546-4.907c2.033-0.099,3.728,0.799,4.986,2.396
	c1.515,1.887,3.056,3.737,4.261,5.842C292.003,267.455,290.727,266.793,291.358,268.174"/>
<path fill="#7E7473" d="M301.028,199.144c-0.538-0.228-0.684-0.703-0.827-1.188c0.311-0.291,0.653-0.32,1.012-0.107
	c0.281,0.087,0.555,0.201,0.555,0.574C301.515,198.658,301.259,198.895,301.028,199.144"/>
<path fill="#AB8F8E" d="M301.213,197.849c-0.342,0.033-0.662,0.073-1.012,0.107c-0.334-0.183-0.401-0.452-0.174-0.727
	c0.065-0.091,0.365-0.073,0.523,0.022C300.804,197.415,300.986,197.655,301.213,197.849"/>
<path fill="#FFFFFF" d="M211.742,228.402c-0.2-3.685-1.554-6.125-2.344-9.668c-0.206-0.809-0.453-1.927-0.73-3.246
	c-0.439-2.114-1.116-5.595-1.626-9.834c-0.296-2.376-0.483-4.376-0.825-10.082c-0.21-3.631-0.491-8.436-0.751-14.152
	c-0.853,0.607-1.307,1.116-2.066,1.709c-1.211,0.94-2.129,2.692-3.616,3.851c-2.506-0.094,3.573-13.222,4.953-15.764
	c0.844-1.612,1.626-2.745,1.447-3.159c-1.269-0.507-0.5-1.266-0.236-2.025c0.141-0.366,1.191-2.093,1.269-2.347
	c0.73-1.285,4.325-5.632,4.128-4.766c0.166-0.202,0.334-0.202,0.508-0.374c0.111-0.079,0.21-0.151,0.298-0.243
	c0.239-0.128,0.454-0.25,0.693-0.395c0.55-0.921,1.686-1.12,0.092-1.407c-2.022-0.902,1.991-2.677,3.251-3.618
	c0.844-0.643,1.806-1.002,2.001-2.254c0-0.014,0-0.039-0.025-0.052c-0.099-0.177-0.5-0.021-0.76-0.144
	c-0.298-0.145-0.351-0.598-0.393-0.757c-0.132-1.125,3.129-3.068,4.223-3.76c1.476-0.919,1.822-1.421,5.293-3.827
	c0.384-0.277,0.542-0.772,0.587-1.244c0.416-5.473,2.682-11.233,3.732-16.271c0.095-0.653,0.437-1.479,0.599-2.131
	c1.695-7.814,6.579-16.557,5.033-16.557c-0.699,0.106-5.012,2.17-5.72,2.565c-0.342-0.166-1.325,1.207-1.47-0.166
	c0.222-0.287,1.239-2.293,1.47-2.556c0.67-0.764,1.746-1.665,2.522-2.337c0.752-0.666,3.343-2.074,3.731-2.384
	c0.389-0.322,1.333-0.955,1.781-1.209c0.449-0.254,0.427-0.053,0.662-0.592c0.061-0.273-4.021-1.054-4.29-1.083
	c-0.991,0.143-1.554-0.487-1.542-0.506c0.183-0.666,0.582-0.818,0.979-1.118c1.31-0.634,4.456-1.593,5.926-1.521
	c0.749-0.145,5.793-0.213,7.299-0.267c0.85-0.487,1.709-1.178,2.736-1.973c0.974-0.938,2.328-2.038,4.119-2.979
	c2.661-1.411,6.145-2.418,6.465-1.799c0.059,0.088,0.043,0.248-0.145,0.506c-0.38,0.822-2.26,2.326-2.698,3.081
	c-0.077,0.273-0.338,0.508-0.32,0.779c0.068,0.288,0.313,0.161,0.594,0.114c1.322-0.222,13.584-3.784,14.225-3.94
	c0.371-0.128,1.511,0.02,1.878-0.059c-0.176,0.133-1.759,0.94-1.938,1.034c-0.639,0.213-16.549,5.899-17.921,5.378
	c-0.252-1.934,2.035-3.398,2.569-4.226c0.494-0.812,0.291-1.012-0.251-0.994c-0.888,0.414-1.132,0.579-1.843,0.936
	c-0.233,0.133-0.631,0.418-0.864,0.526c-0.76,0.54-2.64,1.824-2.813,2.025c-1.269,1.086-2.083,2.893-3.193,2.799
	c-2.57-0.719-3.459-0.278-5.034-0.399c-0.44,0.121-0.896,0.121-1.337,0.196c-1.947,0.432-4.614,1.083-4.632,1.396
	c0.077,0.274,0.564,0.342,0.777,0.525c0.557,0.289,2.417,1.014,2.813,1.189c0.169,0.073,0.487,0.54,0.676,0.612
	c-0.227,0.288-0.585,0.475-0.82,0.594c-0.575,0.277-1.269,0.759-1.878,0.976c-0.44,0.277-0.917,0.433-1.308,0.764
	c-0.386,0.326-0.856,0.54-1.294,0.806c-0.736,0.547-1.566,0.98-2.331,1.501c-0.504,0.472-1.045,1.104-1.257,1.806
	c-0.023,0.292,2.547-0.848,3.341-1.095c1.495-0.818,3.519-1.666,3.078,0.354c-0.769,2.277-6.058,16.002-6.621,19.201
	c-0.943,4.996-2.292,9.854-3.256,14.2c-0.803,5.364-0.244,3.672-5.777,6.923c-0.935,0.646-3.66,2.596-4.107,2.96
	c-0.603,0.72-0.793,0.844,0.319,1.518c1.052-0.146,1.375-0.271,2.068-0.686c1.493-1.196,1.873-0.112,1.873-0.112
	s-1.208,0.847-1.19,0.827c-1.213,0.799-3.168,2.372-4.235,3.452c-0.842,0.847-3.133,2.438-1.368,2.646
	c4.31-0.319-0.921,1.758-1.934,2.376c-1.092,0.684-4.503,3.196-4.662,3.424c-1.136,1.631-2.417,3.486-2.789,4.517
	c0.124,0.673,3.194-0.266,0.396,2.498c-0.198,0.19-3.971,5.448-5.71,11.169c-0.223,0.71-0.2,1.319-0.017,1.775
	c1.464-1.099,2.656-2.254,4.278-3.217c0.351-0.345,2.599-1.583,2.891-1.861c0.546-0.321,2.063-0.992,1.335,0.034
	c-0.141,0.075-0.319,0.22-0.487,0.352c-0.162,0.122-0.319,0.214-0.485,0.32c-1.189,0.833-2.358,2.128-2.699,3.813
	c-0.645,3.228,0.366,15.072,0.366,15.422c0.111,3.792,0.561,7.087,0.846,9.06c0.375,2.6,0.938,5.885,1.848,9.678
	c0.723,3.719,1.678,6.046,2.532,9.717c0.025,0.286,1.191,3.178,1.132,3.841c-0.036,0.35-0.186,0.579-0.24,0.711
	c-3.252,7.454-6.652,12.208-6.652,12.208c-0.729,1.014-2.81,2.454-4.2,4.13c1.434-2.455,3.884-5.17,5.26-8.16
	C209.473,234.521,210.733,231.318,211.742,228.402"/>
<path fill="#FFFFFF" d="M192.001,256.589"/>
</svg>
