<?xml version="1.0" encoding="utf-8"?>
<!-- Generator: Adobe Illustrator 16.0.0, SVG Export Plug-In . SVG Version: 6.00 Build 0)  -->
<!DOCTYPE svg PUBLIC "-//W3C//DTD SVG 1.1//EN" "http://www.w3.org/Graphics/SVG/1.1/DTD/svg11.dtd">
<svg version="1.1" id="Layer_1" xmlns="http://www.w3.org/2000/svg" xmlns:xlink="http://www.w3.org/1999/xlink" x="0px" y="0px"
	 width="356.971px" height="204.117px" viewBox="0 0 356.971 204.117" enable-background="new 0 0 356.971 204.117"
	 xml:space="preserve">
<path fill="#111111" d="M356.971,0.013c-1.677,0.242-3.483-0.16-5.297,0.769c0.786,2.737,3.021,4.745,3.606,7.571
	c0.349,1.908-0.406,2.88-2.442,2.578c-4.928-0.915-9.842-2.329-14.881-1.647c-4.037-0.485-7.747,0.952-11.604,1.431
	c-1.3,0.128-2.729,0.58-1.646,2.473c1.94,0.733,3.579,1.066,4.875,1.264c3.162,0.399,5.548-0.082,6.027,1.015
	c0.263,0.615-0.098,1.272-0.165,1.377c-0.491,1.029-1.613,1.309-2.025,1.453c-6.935,2.678-13.908,5.219-21.353,6.119
	c-2.172,0.212-4.331,0.475-6.52,0.747c-1.44,0.1-4.206-0.202-3.458,1.942c0,0,6.968,3.66,10.231,5.823
	c1.312,0.861,2.457,1.846,3.133,3.345c0.37,0.976,1.066,2.086,0.273,3.084c-0.824,1.089-1.951,0.52-2.829-0.079
	c-2.516-1.411-5.252-2.229-8.026-2.996c-2.312-0.628-4.714-1.014-7.136-0.46c-7.792,1.695-15.662,1.62-23.521,1.055
	c-1.133-0.411-2.132,0.423-3.147,0.292c0.045,0.076-0.388-0.208-0.388-0.208s0.038,0.479,0.076,0.472
	c0.88,0.212,1.656,0.592,2.135,1.381c0.524,0.392,1.202,0.726,1.54,1.197c0.883,1.451,0.501,2.96-0.831,3.206
	c-1.892,0.384-3.886,0.704-5.813,0.771c-3.51,0.094-6.996-0.051-10.423-0.066c-0.903,1.887,0.335,3.461,0.465,5.083
	c0.341,2.642,0.753,5.202,0.994,7.82c0.175,1.238-1.165,2.15-2.169,1.534c-0.974-0.601-1.817-1.244-2.698-1.865
	c-7.05-5.036-15.055-6.818-23.592-6.702c-0.422-0.014-0.867,0.224-1.224,0.36c-0.159,0.025-0.317,0.265-0.408,0.416
	c0.62,1.922,2.392,3.027,3.483,4.649c1.238,1.788,2.479,3.582,3.572,5.476c0.625,1.026-0.063,2.115-1.368,2.326
	c-3.455,0.363-6.971,0.413-10.445-0.162c-0.282-0.05-0.564-0.1-0.846-0.148l-0.566,3.19c-0.424,2.39-0.779,4.398-1.051,5.951
	c-1.182,6.996-10.669,53.148-15.099,69.051c-2.741,10.187-7.279,19.65-12.596,28.83l-3.758,7.633
	c2.435,5.104,2.552,10.48,1.513,15.904c-0.615,2.422-2.624,3.355-4.868,1.844c-1.821-1.146-2.86-1.146-3.723,0.578
	c-0.697,1.43-0.946,3.145-1.477,4.491c-1.146,2.741-2.788,4.065-3.923,3.132c-1.371-1.23-0.673-3.038-0.862-4.563
	c-0.687-0.732-1.394-1.395-2.01-2.043c-2.599,2.434-4.23,5.73-7.478,7.3c-0.497,0.168-1.382,0.168-1.666-0.14
	c-0.26-0.438-0.461-1.229-0.188-1.549c1.677-2.822,3.366-5.563,5.293-8.047c1.051-1.559,2.444-3.012,1.924-5.127v-0.284
	c-2.292-0.781-3.106-2.102-1.807-3.888c1.016-1.511,2.694-2.74,4.29-3.555c4.265-2.012,8.566-3.735,12.938-5.566l3.438-10.48
	c1.617-5.186,16.599-57.152,17.841-78.856c0.228-4.396,0.756-13.211,1.281-21.862l0.245-4.024c-0.591-0.1-1.183-0.199-1.773-0.298
	c-2.374-0.398-4.748-0.798-7.121-1.205c-0.677,0.029-7.738-1.448-8.824-1.659c-0.647-0.301-1.34-0.525-2.026-0.761
	c0.048,0.043-0.464-0.177-0.464-0.177s3.256,3.195,7.238,5.082l-0.056-0.047c1.722,0.498,2.941,1.299,0.808,2.826
	c-1.179,0.788-2.658,0.996-4.161,1.4c-12.931,3.688-25.839,2.208-38.638-0.028c-1.123,1.354,0.177,2.129,0.237,3.126
	c0.102,1.689-0.578,2.521-2.076,2.762c-12.711,1.787-25.234,1.373-37.524-2.636c-0.554-0.438-1.255-0.154-1.915-0.22
	c0.049-0.007-0.537-0.128-0.537-0.128s0.265,0.523,0.271,0.564c0.456,0.434,0.643,1.03,1.06,1.479
	c4.729,4.348,9.687,8.159,16.194,9.524c2.329,0.535,3.546,2.386,4.561,4.4c1.132,2.141-0.024,3.632-2.636,3.575
	c-16.175-0.551-31.666-3.947-46.408-10.661c-1.459-0.636-2.841-1.101-4.271-1.685c-0.903-0.511-3.593-0.483-3.593-0.483
	s5.665,5.258,6.457,7.471c0.38,0.991,0.923,2.017,0.059,3.078c-0.633,0.657-1.587,0.632-2.451,0.477
	c-7.47-1.455-14.224-4.346-19.948-9.456c-4.639-4.076-8.521-8.822-11.908-13.946c-4.327-6.65-7.733-13.779-11.201-20.849
	c-1.909-3.947-3.813-7.819-5.868-11.767c-2.457-4.658-6.115-8.514-10.009-12.057c-0.758-0.686-1.825-1.234-2.789-1.616
	c-0.552-0.209-1.279,0.07-1.194,0.908c0.264,2.703,1.507,5.069,2.631,7.413c0.577,1.195,1.397,2.271,2.012,3.387
	c1.403,2.592,1.497,4.2,0.383,4.721c-1.658,0.83-3.021-0.144-4.247-0.98c-3.241-2.327-5.77-5.398-7.941-8.685
	C8.087,16.043,3.979,8.05,0,0L356.971,0.013z"/>
</svg>
