<?xml version="1.0" encoding="utf-8"?>
<!-- Generator: Adobe Illustrator 16.0.0, SVG Export Plug-In . SVG Version: 6.00 Build 0)  -->
<!DOCTYPE svg PUBLIC "-//W3C//DTD SVG 1.1//EN" "http://www.w3.org/Graphics/SVG/1.1/DTD/svg11.dtd">
<svg version="1.1" id="Layer_1" xmlns="http://www.w3.org/2000/svg" xmlns:xlink="http://www.w3.org/1999/xlink" x="0px" y="0px"
	 width="360px" height="107.478px" viewBox="0 0 360 107.478" enable-background="new 0 0 360 107.478" xml:space="preserve">
<path fill="#111111" d="M0.107,107.478c-0.414-1.303,0.454-2.18,1.206-2.977c2.073-2.082,4.606-3.564,7.247-4.76
	c6.005-2.812,12.301-4.867,18.621-6.822c2.336-0.688,4.678-1.387,6.965-2.071c0.292-0.323,0.729-0.323,1.164-0.42
	c-0.47-0.059-0.854-0.118-1.063-0.598c-2.944-1.153-6.034-0.908-9.062-1.135c-0.981-0.019-1.889-0.179-2.862-0.375
	c-0.513-0.121-0.734-1.172-0.412-1.606c0.848-1.326,2.175-1.901,3.526-2.422c4.228-1.721,8.607-2.915,13.165-3.076
	c5.299-0.153,10.658-0.583,15.951,0.761c1.607,0.417,2.276-0.132,2.892-1.753c0.333-0.92-0.103-1.743-1.004-1.743
	c-1.75,0-3.495,0.091-5.281,0.062c-0.419,0-0.974-0.313-1.135-0.634c-0.175-0.341-0.132-0.974,0.161-1.286
	c1.595-2.258,3.614-4.147,5.848-5.812c1.97-1.387,3.889-2.863,5.836-4.386c0.137-0.094,0.137-0.535,0.137-0.813
	c0-0.409-0.262-0.549-0.632-0.631c-1.644-0.294-3.233-0.176-4.798,0.339c-0.62,0.232-1.254,0.41-1.862,0.569
	c-2.049,0.597-3.275,0.475-3.436-0.378c-0.377-1.585,0.914-2.276,1.84-3.052c2.007-1.705,4.462-2.558,6.863-3.545
	c1.607-0.699,3.447-0.817,5.006-2.246c-1.936-2.108-4.75-2.639-6.984-4.146c2.641-2.316,5.61-2.913,8.729-2.757
	c1.958,0.136,3.949,0.196,5.771,0.793c1.959,0.621,2.933-0.084,4.139-1.43c5.772-6.395,12.582-11.565,20.384-15.424
	c0.562-0.257,1.099-0.632,1.708-0.811c1.057-0.382,2.289-0.974,3.202,0c0.925,1.008,0.167,2.116-0.442,3.017
	c-1.273,2.09-2.897,3.894-3.776,6.182c0.181,0.164,0.306,0.294,0.466,0.354c0.098,0.061,0.293,0.136,0.449,0.061
	c14.923-5.773,29.971-11.13,45.228-15.863c0.706-1.255-0.52-1.236-1.074-1.641c-1.644-0.324-3.269,0.036-4.792-0.749
	c-0.251-0.096-0.656-0.422-0.656-0.607c0-0.447,0.13-0.938,0.405-1.269c0.74-0.848,1.774-1.313,2.916-1.505
	c2.354-0.478,4.708-1.116,7.15-1.391c8.131-1.069,16.279-2.234,24.553-2.081c1.445,0.03,2.766,0,4.026-1.135
	c4.224-3.847,9.313-6.319,14.488-8.619c10.035-4.384,20.412-7.067,31.315-7.598c5.142-0.246,10.321,0.388,15.215,2.217
	c2.86,1.135,5.614,2.479,7.539,5.042c0.186,1.957-1.304,1.827-2.498,2.018c-8.231,0.561-12.747,2.051-16.559,5.775
	c2.92,0.943,5.669,0.725,8.423,0.209c4.366,0.479,8.667,0.516,12.933,1.65c4.032,1.074,7.539,2.896,10.316,5.955
	c1.208,1.304,2.522,2.491,3.567,3.92c2.33,3.155,5.459,4.983,9.123,5.954c0.974,0.265,1.889,0.479,2.801,0.857
	c0.718,0.254,0.693,0.854,0.414,1.541c-0.635,1.545-2.24,2.257-3.125,3.577c0.214,1.219,1.285,1.277,2.139,1.477
	c5.269,1.427,10.568,2.705,15.879,4.131c8.453,2.234,16.619,5.235,24.165,9.691c3.207,1.829,6.208,3.966,8.603,6.869
	c2.18,2.618,4.7,4.925,7.456,6.955c0.752,0.493,0.472,1.381-0.413,1.786c-0.889,0.453-1.81,0.453-2.802,0.382
	c-2.567-0.221-5.114-0.264-7.676-0.382c-0.251,0.178-0.371,0.382-0.251,0.514c0.096,0.148,0.191,0.178,0.251,0.178l0.102,0.101
	c0.304,0.737,1.35,0.442,1.654,1.13c2.318,1.55,4.518,3.159,6.834,4.606c8.794,5.57,17.02,11.799,23.74,19.81
	c4.08,4.264,8.416,8.059,9.981,11.272L0.107,107.478z"/>
</svg>
