<?xml version="1.0" encoding="utf-8"?>
<!-- Generator: Adobe Illustrator 16.0.0, SVG Export Plug-In . SVG Version: 6.00 Build 0)  -->
<!DOCTYPE svg PUBLIC "-//W3C//DTD SVG 1.1//EN" "http://www.w3.org/Graphics/SVG/1.1/DTD/svg11.dtd">
<svg version="1.1" id="Layer_1" xmlns="http://www.w3.org/2000/svg" xmlns:xlink="http://www.w3.org/1999/xlink" x="0px" y="0px"
	 width="61.819px" height="66.395px" viewBox="0 0 61.819 66.395" enable-background="new 0 0 61.819 66.395" xml:space="preserve">
<path fill="#FDAD1B" d="M61.301,40.682c0.63-2.722,0.612-14.751,0.334-14.503c-1.353-7.017-6.875-14.576-7.103-14.795
	c-2.985-3.563-2.486-3.591-5.58-6.765C47.237,2.855,41.501,0.063,38.503,0c-4.01,0-5.787,0.814-9,1.321
	c-5.47,1.16-8.124,1.984-11.973,3.722c-3.64,1.644-7.013,3.843-10.268,6.209c-1.667,1.202-2.816,2.759-3.717,4.678
	c-3.902,8.28-4.434,16.775-2.328,25.536c0.756,3.141,1.72,6.17,3.223,9.021c1.102,2.084,2.122,4.219,3.059,6.39
	c0.659,1.519,1.746,2.441,3.155,3.124c3.982,1.926,8.01,3.721,12.356,4.681c1.123,0.245,2.212,0.652,3.317,0.984
	c7.726,1.881,18.455-0.245,23.138-2.231c4.855-2.063,7.475-11.946,9.04-14.652C60.07,46.08,60.67,43.4,61.301,40.682z"/>
</svg>
