<?xml version="1.0" encoding="utf-8"?>
<!-- Generator: Adobe Illustrator 16.0.0, SVG Export Plug-In . SVG Version: 6.00 Build 0)  -->
<!DOCTYPE svg PUBLIC "-//W3C//DTD SVG 1.1//EN" "http://www.w3.org/Graphics/SVG/1.1/DTD/svg11.dtd">
<svg version="1.1" id="Layer_1" xmlns="http://www.w3.org/2000/svg" xmlns:xlink="http://www.w3.org/1999/xlink" x="0px" y="0px"
	 width="139.968px" height="140.057px" viewBox="0 0 139.968 140.057" enable-background="new 0 0 139.968 140.057"
	 xml:space="preserve">
<path fill="#282828" d="M139.968,70.063c-0.049,38.695-31.395,70.029-70.021,69.994C31.29,140.021-0.046,108.631,0,69.99
	C0.047,31.293,31.38-0.027,70.02,0C108.671,0.029,140.015,31.426,139.968,70.063z M60.316,107.287h15.396V70.023h10.271
	l1.359-12.839H75.712l0.018-6.429c0-3.348,0.318-5.145,5.123-5.145h6.42V32.769H76.998c-12.34,0-16.682,6.231-16.682,16.707v7.709
	h-7.691v12.843h7.691V107.287L60.316,107.287z"/>
</svg>
