<?xml version="1.0" encoding="utf-8"?>
<!-- Generator: Adobe Illustrator 16.0.0, SVG Export Plug-In . SVG Version: 6.00 Build 0)  -->
<!DOCTYPE svg PUBLIC "-//W3C//DTD SVG 1.1//EN" "http://www.w3.org/Graphics/SVG/1.1/DTD/svg11.dtd">
<svg version="1.1" id="Layer_1" xmlns="http://www.w3.org/2000/svg" xmlns:xlink="http://www.w3.org/1999/xlink" x="0px" y="0px"
	 width="53.263px" height="59px" viewBox="722.13 975.166 53.263 59" enable-background="new 722.13 975.166 53.263 59"
	 xml:space="preserve">
<path fill-rule="evenodd" clip-rule="evenodd" fill="#3A63CC" d="M748.623,1004.945c0-2.766,0.011-5.533-0.011-8.301
	c-0.004-0.471,0.131-0.619,0.592-0.584c0.506,0.039,1.021,0.047,1.525-0.002c0.529-0.051,0.61,0.166,0.608,0.639
	c-0.018,4.582-0.01,9.166-0.01,13.748c0,1.047,0,1.047,1.042,1.047c0.93,0,1.859,0.014,2.789-0.008
	c0.351-0.006,0.537,0.059,0.494,0.465c-0.067,0.629,0.268,1.451-0.139,1.836c-0.319,0.305-1.134,0.098-1.728,0.102
	c-1.527,0.006-3.056-0.016-4.582,0.012c-0.458,0.008-0.597-0.113-0.593-0.586C748.635,1010.523,748.623,1007.734,748.623,1004.945z"
	/>
<path fill-rule="evenodd" clip-rule="evenodd" fill="#3A63CC" d="M759.97,1004.977c0,2.77-0.015,5.537,0.013,8.307
	c0.005,0.512-0.146,0.662-0.635,0.611c-0.677-0.07-1.585,0.283-1.974-0.146c-0.335-0.373-0.106-1.264-0.107-1.924
	c-0.003-5.027,0.008-10.055-0.015-15.084c-0.003-0.561,0.151-0.744,0.699-0.678c0.651,0.078,1.502-0.277,1.911,0.145
	c0.376,0.385,0.1,1.223,0.104,1.859C759.977,1000.369,759.97,1002.674,759.97,1004.977z"/>
<path fill-rule="evenodd" clip-rule="evenodd" fill="#3A63CC" d="M744.558,1004.578c0.37,0.234,0.696,0.459,1.036,0.654
	c0.685,0.391,0.981,1.004,0.986,1.76c0.012,1.816,0.02,3.633-0.003,5.449c-0.012,0.994-0.439,1.43-1.426,1.439
	c-2.304,0.02-4.607-0.008-6.91,0.018c-0.542,0.006-0.407-0.332-0.407-0.613c-0.004-4.141-0.003-8.283-0.003-12.424
	c0-1.439,0.014-2.879-0.009-4.318c-0.005-0.379,0.104-0.484,0.481-0.48c2.259,0.016,4.519-0.002,6.777,0.012
	c0.979,0.006,1.386,0.443,1.391,1.447c0.007,1.529-0.015,3.057,0.009,4.584c0.013,0.852-0.266,1.504-1.047,1.91
	C745.143,1004.168,744.878,1004.371,744.558,1004.578z M729.826,1003.961c0.674-0.371,0.955-0.957,0.957-1.695
	c0.005-1.596,0.014-3.191-0.003-4.787c-0.011-0.977-0.455-1.402-1.446-1.406c-2.216-0.01-4.431,0.008-6.646-0.012
	c-0.421-0.004-0.57,0.088-0.557,0.543c0.035,1.195,0.012,2.393,0.012,3.588c0,4.365-0.001,8.729,0.003,13.094
	c0,0.279-0.137,0.619,0.407,0.613c2.303-0.025,4.607,0.006,6.911-0.021c0.997-0.01,1.381-0.449,1.387-1.459
	c0.008-1.375-0.09-2.756,0.025-4.119c0.14-1.672-0.241-2.969-1.903-3.654c-0.018-0.008-0.029-0.033-0.081-0.094
	C729.229,1004.336,729.518,1004.131,729.826,1003.961z M735.703,998.066c-0.001-0.643,0.229-1.506-0.095-1.865
	c-0.373-0.416-1.254-0.063-1.907-0.139c-0.558-0.066-0.693,0.131-0.691,0.68c0.022,5.027,0.012,10.055,0.015,15.082
	c0.001,0.662-0.229,1.555,0.105,1.926c0.385,0.428,1.295,0.072,1.971,0.145c0.504,0.057,0.621-0.119,0.616-0.615
	c-0.026-2.768-0.013-5.537-0.013-8.305C735.704,1002.672,735.706,1000.369,735.703,998.066z M740.506,1011.057
	c-0.012,0.402,0.055,0.605,0.532,0.58c0.771-0.041,1.549-0.031,2.321-0.004c0.399,0.016,0.538-0.094,0.53-0.514
	c-0.025-1.371-0.02-2.742-0.003-4.113c0.005-0.332-0.16-0.484-0.383-0.693c-0.749-0.707-1.653-0.602-2.553-0.611
	c-0.348-0.004-0.457,0.096-0.446,0.447c0.025,0.818,0.008,1.637,0.008,2.455C740.513,1009.42,740.53,1010.24,740.506,1011.057z
	 M740.513,1001.932c0,1.701,0,1.701,1.697,1.584c0.573-0.041,1.576-0.826,1.579-1.26c0.009-1.172-0.007-2.344,0.01-3.516
	c0.004-0.324-0.115-0.418-0.424-0.414c-0.817,0.016-1.636,0.016-2.453,0c-0.319-0.006-0.424,0.107-0.415,0.422
	c0.019,0.73,0.006,1.461,0.006,2.189C740.513,1001.27,740.513,1001.6,740.513,1001.932z M724.797,1011.168
	c-0.006,0.309,0.031,0.48,0.416,0.467c0.84-0.031,1.683-0.029,2.522,0c0.412,0.014,0.465-0.172,0.462-0.516
	c-0.014-1.371-0.017-2.742,0.002-4.115c0.005-0.336-0.165-0.488-0.392-0.693c-0.752-0.678-1.647-0.611-2.554-0.613
	c-0.396,0-0.471,0.135-0.459,0.492c0.023,0.795,0.007,1.592,0.007,2.389C724.802,1009.441,724.812,1010.305,724.797,1011.168z
	 M728.11,998.785c0.014-0.344-0.095-0.471-0.447-0.461c-0.797,0.021-1.594,0.027-2.391-0.002c-0.375-0.014-0.487,0.092-0.479,0.475
	c0.024,1.172,0.009,2.346,0.009,3.52c0,1.199,0,1.199,1.195,1.199c1.439,0,2.106-0.658,2.106-2.074c0-0.311,0-0.621,0-0.93
	C728.104,999.936,728.086,999.359,728.11,998.785z"/>
<path fill-rule="evenodd" clip-rule="evenodd" fill="#3A63CC" d="M763.089,1013.881c-0.909-0.01-1.304-0.445-1.315-1.439
	c-0.021-1.816-0.014-3.633-0.003-5.449l0.093-4.887c0.021-1.527,0.001-3.055,0.008-4.584c0.004-1.004,0.38-1.441,1.283-1.447h10.727
	c0.979,0.006,1.387,0.443,1.392,1.447c0.007,1.529-0.015,3.057,0.008,4.584l0.101,4.887c0.012,1.816,0.021,3.633-0.003,5.449
	c-0.012,0.994-0.44,1.43-1.427,1.439H763.089z M771.279,1011.391c1.543,0,2.177-0.072,2.186-0.809
	c0.017-1.344,0.001-2.947-0.008-4.293l-0.074-3.619c-0.018-1.131-0.001-2.262-0.006-3.395c-0.004-0.744-0.306-1.068-1.031-1.07
	h-7.15c-0.669,0.002-0.947,0.326-0.95,1.07c-0.005,1.133,0.01,2.264-0.006,3.395l-0.068,3.619c-0.008,1.346-0.014,2.691,0.002,4.037
	c0.009,0.734,0.3,1.059,0.975,1.064H771.279z M764.99,1000.139c2.528,0,5.059,0,7.588,0c0-0.084,0-0.172,0-0.256
	c-2.529,0-5.06,0-7.588,0C764.99,999.967,764.99,1000.055,764.99,1000.139z M764.989,1001.137c2.531,0,5.061,0,7.591,0
	c-0.001-0.08-0.003-0.16-0.004-0.242c-2.529,0-5.059,0-7.589,0C764.987,1000.977,764.989,1001.057,764.989,1001.137z
	 M772.578,1003.313c-2.531,0-5.062,0-7.592,0c0.002,0.068,0.005,0.135,0.007,0.201c2.529,0,5.06,0,7.589,0
	C772.581,1003.447,772.579,1003.381,772.578,1003.313z M764.988,1004.488c2.532,0,5.064,0,7.595,0
	c-0.002-0.068-0.004-0.137-0.007-0.203c-2.53,0-5.062,0-7.592,0C764.986,1004.352,764.987,1004.42,764.988,1004.488z
	 M764.99,1006.828c2.53,0,5.061,0,7.591,0c-0.002-0.072-0.004-0.145-0.006-0.217c-2.53,0-5.06,0-7.588,0
	C764.987,1006.684,764.989,1006.756,764.99,1006.828z M772.578,1007.701c-2.53,0-5.06,0-7.591,0c0.002,0.08,0.004,0.16,0.005,0.24
	c2.529,0,5.059,0,7.588,0C772.58,1007.861,772.579,1007.781,772.578,1007.701z M765.031,1002.17c2.034,0,4.068,0,6.102,0
	c-0.002-0.078-0.004-0.156-0.006-0.23c-2.033,0-4.066,0-6.099,0C765.029,1002.014,765.03,1002.092,765.031,1002.17z
	 M769.262,1005.344c-1.411,0-2.823,0-4.235,0c0,0.086,0.001,0.172,0.002,0.262c1.411,0,2.822,0,4.234,0
	C769.263,1005.516,769.262,1005.43,769.262,1005.344z M770.131,1012.477c-1.037,0-2.073,0-3.109,0c0,0.088,0.001,0.174,0.001,0.262
	c1.036,0,2.072,0,3.108,0C770.131,1012.65,770.131,1012.564,770.131,1012.477z M765.842,1009.523
	c-0.477-0.24-0.833-0.264-1.185,0.094C765.029,1009.877,765.402,1010.033,765.842,1009.523z M773.276,1009.473
	c-0.461-0.154-0.823-0.238-1.164,0.164C772.489,1009.834,772.882,1010.09,773.276,1009.473z"/>
</svg>
