<?xml version="1.0" encoding="utf-8"?>
<!-- Generator: Adobe Illustrator 16.0.0, SVG Export Plug-In . SVG Version: 6.00 Build 0)  -->
<!DOCTYPE svg PUBLIC "-//W3C//DTD SVG 1.1//EN" "http://www.w3.org/Graphics/SVG/1.1/DTD/svg11.dtd">
<svg version="1.1" id="Layer_1" xmlns="http://www.w3.org/2000/svg" xmlns:xlink="http://www.w3.org/1999/xlink" x="0px" y="0px"
	 width="53.222px" height="52.916px" viewBox="0 0 53.222 52.916" enable-background="new 0 0 53.222 52.916" xml:space="preserve">
<path fill-rule="evenodd" clip-rule="evenodd" fill="#111111" d="M10.85,52.751c-2.69-0.028-3.858-1.316-3.891-4.258
	c-0.062-5.369-0.04-10.743-0.008-16.116l0.273-14.454C7.288,13.402,7.228,8.884,7.247,4.36C7.26,1.393,8.37,0.097,11.044,0.082
	h31.729c2.897,0.015,4.102,1.311,4.117,4.278c0.018,4.523-0.045,9.042,0.023,13.563l0.296,14.454
	c0.036,5.373,0.061,10.747-0.009,16.116c-0.034,2.941-1.301,4.229-4.219,4.258H10.85z M35.076,45.389
	c4.565,0,6.439-0.214,6.466-2.393c0.049-3.978,0.001-8.718-0.025-12.698l-0.219-10.705c-0.05-3.346-0.003-6.693-0.017-10.042
	c-0.012-2.2-0.903-3.159-3.049-3.169h-21.15c-1.98,0.01-2.804,0.969-2.813,3.169c-0.015,3.349,0.03,6.696-0.017,10.042
	l-0.203,10.705c-0.022,3.98-0.039,7.961,0.006,11.938c0.026,2.175,0.889,3.132,2.883,3.152H35.076z M16.473,12.104
	c7.48,0,14.965,0,22.445,0c0-0.251,0-0.508,0-0.76c-7.481,0-14.965,0-22.445,0C16.473,11.597,16.473,11.854,16.473,12.104z
	 M16.472,15.057c7.486,0,14.967,0,22.454,0c-0.003-0.239-0.008-0.473-0.011-0.717c-7.483,0-14.965,0-22.448,0
	C16.466,14.584,16.471,14.817,16.472,15.057z M38.918,21.489c-7.486,0-14.972,0-22.457,0c0.007,0.207,0.014,0.402,0.021,0.596
	c7.483,0,14.966,0,22.449,0C38.927,21.892,38.922,21.696,38.918,21.489z M16.469,24.971c7.489,0,14.979,0,22.464,0
	c-0.004-0.203-0.012-0.406-0.019-0.604c-7.486,0-14.973,0-22.457,0C16.461,24.564,16.464,24.768,16.469,24.971z M16.473,31.889
	c7.485,0,14.971,0,22.456,0c-0.006-0.21-0.013-0.424-0.019-0.637c-7.483,0-14.965,0-22.445,0
	C16.466,31.465,16.471,31.679,16.473,31.889z M38.918,34.472c-7.483,0-14.966,0-22.452,0c0.005,0.24,0.01,0.477,0.015,0.713
	c7.481,0,14.963,0,22.445,0C38.924,34.948,38.92,34.712,38.918,34.472z M16.596,18.11c6.016,0,12.033,0,18.047,0
	c-0.006-0.231-0.012-0.46-0.018-0.683c-6.013,0-12.026,0-18.04,0C16.588,17.65,16.593,17.879,16.596,18.11z M29.109,27.499
	c-4.175,0-8.351,0-12.528,0c0,0.256,0.002,0.512,0.004,0.773c4.174,0,8.35,0,12.525,0C29.111,28.011,29.109,27.755,29.109,27.499z
	 M31.679,48.601c-3.066,0-6.132,0-9.198,0c0.001,0.257,0.003,0.514,0.003,0.774c3.065,0,6.131,0,9.196,0
	C31.681,49.114,31.679,48.857,31.679,48.601z M18.992,39.864c-1.41-0.709-2.463-0.782-3.504,0.278
	C16.588,40.907,17.692,41.372,18.992,39.864z M40.983,39.716c-1.363-0.461-2.435-0.709-3.443,0.484
	C38.655,40.78,39.816,41.54,40.983,39.716z"/>
</svg>
