<?xml version="1.0" encoding="utf-8"?>
<!-- Generator: Adobe Illustrator 16.0.0, SVG Export Plug-In . SVG Version: 6.00 Build 0)  -->
<!DOCTYPE svg PUBLIC "-//W3C//DTD SVG 1.1//EN" "http://www.w3.org/Graphics/SVG/1.1/DTD/svg11.dtd">
<svg version="1.1" id="Layer_1" xmlns="http://www.w3.org/2000/svg" xmlns:xlink="http://www.w3.org/1999/xlink" x="0px" y="0px"
	 width="140.66px" height="137.193px" viewBox="0 0 140.66 137.193" enable-background="new 0 0 140.66 137.193"
	 xml:space="preserve">
<path fill="#282828" d="M70.325,0C31.489,0,0,31.49,0,70.338c0,31.069,20.146,57.432,48.102,66.73
	c3.517,0.646,4.624-1.441,4.624-3.306c0-1.666,0.035-6.338,0-12.211c-19.562,4.259-23.614-9.258-23.614-9.258
	c-3.197-8.132-7.804-10.287-7.804-10.287c-6.385-4.362,0.479-4.285,0.479-4.285c7.057,0.498,10.777,7.257,10.777,7.257
	c6.272,10.733,16.457,7.635,20.461,5.839c0.642-4.543,2.462-7.643,4.472-9.402c-15.616-1.777-32.034-7.807-32.034-34.762
	c0-7.677,2.739-13.953,7.236-18.865c-0.726-1.777-3.143-8.932,0.691-18.617c0,0,5.903-1.889,19.336,7.214
	c5.61-1.563,11.63-2.336,17.608-2.366c5.973,0.03,11.992,0.804,17.608,2.366c13.431-9.103,19.329-7.214,19.329-7.214
	c3.83,9.687,1.417,16.84,0.695,18.617c4.5,4.912,7.23,11.188,7.23,18.865c0,27.024-16.443,32.968-32.115,34.701
	c2.523,2.182,4.816,6.397,4.816,12.958c0,8.793,0,17.157,0,19.468c0,1.881,1.133,3.968,4.706,3.279
	c27.925-9.315,48.054-35.662,48.054-66.723C140.66,31.49,109.169,0,70.325,0z"/>
</svg>
