<?xml version="1.0" encoding="utf-8"?>
<!-- Generator: Adobe Illustrator 16.0.0, SVG Export Plug-In . SVG Version: 6.00 Build 0)  -->
<!DOCTYPE svg PUBLIC "-//W3C//DTD SVG 1.1//EN" "http://www.w3.org/Graphics/SVG/1.1/DTD/svg11.dtd">
<svg version="1.1" id="Layer_1" xmlns="http://www.w3.org/2000/svg" xmlns:xlink="http://www.w3.org/1999/xlink" x="0px" y="0px"
	 width="133.157px" height="126.865px" viewBox="0 0 133.157 126.865" enable-background="new 0 0 133.157 126.865"
	 xml:space="preserve">
<g>
	<path fill="#3E0154" d="M27.438,100.628c-14.707,0.14-26.498-4.489-27.396-26.497c-0.895-22.008,12.537-26.482,27.396-26.497
		C33.497,46.619,30.481,100.469,27.438,100.628z"/>
	<path fill="#3E0154" d="M105.722,100.628c14.707,0.14,26.496-4.489,27.393-26.497c0.9-22.008-12.537-26.482-27.393-26.497
		C99.665,46.619,102.681,100.469,105.722,100.628z"/>
	<path fill="#3E0154" d="M109.817,59.578c0-29.572-15.248-53.546-44.822-53.546c-29.572,0-41.451,23.974-41.451,53.546h-6.033
		C17.511,26.676,32.091,0,64.995,0c32.902,0,50.854,26.676,50.854,59.578"/>
	<path fill="#3E0154" d="M74.229,118.823c29.57,0,36.633-5.724,36.633-35.296h3.391c0.549,33.484-10.158,38.869-40.023,38.869"/>
	<path fill="#3E0154" d="M85.239,120.381c0,3.578-2.902,6.484-6.484,6.484h-4.977c-3.582,0-6.486-2.906-6.486-6.484l0,0
		c0-3.583,2.904-6.484,6.486-6.484h4.977C82.337,113.896,85.239,116.798,85.239,120.381L85.239,120.381z"/>
</g>
</svg>
