<?xml version="1.0" encoding="utf-8"?>
<!-- Generator: Adobe Illustrator 16.0.0, SVG Export Plug-In . SVG Version: 6.00 Build 0)  -->
<!DOCTYPE svg PUBLIC "-//W3C//DTD SVG 1.1//EN" "http://www.w3.org/Graphics/SVG/1.1/DTD/svg11.dtd">
<svg version="1.1" id="Layer_1" xmlns="http://www.w3.org/2000/svg" xmlns:xlink="http://www.w3.org/1999/xlink" x="0px" y="0px"
	 width="37.691px" height="51.222px" viewBox="729.053 564.592 37.691 51.222"
	 enable-background="new 729.053 564.592 37.691 51.222" xml:space="preserve">
<g>
	<path fill="#3E0154" d="M111.095,237.502H83.259v-49.487h27.836V237.502L111.095,237.502z M109.648,190.24H84.707v43.334h24.941
		V190.24z"/>
	<path fill="#3E0154" d="M46.427,219.961v-57.255H90.82v26.214c0.131-0.003,0.26-0.017,0.396-0.017c0.818,0,1.54,0.146,2.181,0.383
		v-29.522H43.852v65.393h40.032c-0.125-1.803-0.025-3.466,0.214-5.195H46.427L46.427,219.961z"/>
	<path fill="#3E0154" d="M137.79,178.201H92.371c0.081,0.49,0.109,1.01,0.036,1.585c-0.07,0.537-0.144,1.062-0.219,1.582
		c0.003,0,0.003,0,0.008,0c-0.005,0.013-0.012,0.021-0.012,0.033c-0.125,0.822-0.272,1.632-0.446,2.449h40.355v59.752h-109.1
		v-59.752h21.521c-0.535-1.861-0.226-4.029,0.924-5.649H17.298v74.519h51.725l-2.924,13.476h22.89l-3.021-13.476h51.822V178.201z"/>
</g>
<path fill="#3E0154" d="M139.031,10.042c0,0-92.081,91.244-92.66,91.79l-26.3,3.046l5.54-24.374l92.236-91.361L139.031,10.042z
	 M29.651,100.673l14.671-1.796L28.43,83.141c0,0-3.676,12.198-3.676,13.678L29.651,100.673z M124.96,24.028l3.028-3.005
	L106.93,0.001l-2.942,2.912L124.96,24.028z M106.127,16.433l-1.197-1.255L37.446,82.745l1.254,0.941L106.127,16.433z"/>
<path fill="#3E0154" d="M-16.143,260.856H-156.81v-7.959h140.667V260.856L-16.143,260.856z M-27.678,171.485v70.028h-117.596
	v-70.028H-27.678z M-21.539,249.257v-84.153h-129.875v84.153H-21.539L-21.539,249.257z"/>
<g>
	<path fill="#3E0154" d="M-53.007,106.656h-67.103V-12.635h67.103V106.656z M-58.452-2.997h-56.213v97.412h56.213V-2.997z
		 M-79.918,100.387c0-1.357-1.102-2.459-2.46-2.459h-8.363c-1.357,0-2.458,1.102-2.458,2.459l0,0c0,1.358,1.101,2.459,2.458,2.459
		h8.363C-81.02,102.848-79.918,101.745-79.918,100.387L-79.918,100.387z"/>
</g>
<path fill-rule="evenodd" clip-rule="evenodd" fill="#3E0154" d="M-680.702,51.876c0,38.895-31.53,70.423-70.423,70.423
	c-38.894,0-70.423-31.528-70.423-70.423c0-38.894,31.53-70.423,70.423-70.423C-712.232-18.547-680.702,12.982-680.702,51.876z
	 M-772.254,73.589c-4.9,2.802-9.646,5.825-13.7,9.806c-3.585,3.521-5.714,7.696-5.416,12.839c0.304,5.242,3.129,8.192,8.344,8.76
	c6.164,0.67,11.594-1.237,16.202-5.221c7.497-6.484,9.711-14.78,7.741-24.324c-0.265-1.284-0.801-2.406,1.209-2.714
	c6.382-0.976,12.568-0.561,18.055,3.116c5.999,4.018,6.327,9.551,1.131,14.434c-0.431,0.403-1.216,0.733-0.673,1.447
	c0.461,0.605,1.157,0.187,1.727-0.023c3.73-1.366,6.281-5.631,5.763-9.799c-0.808-6.488-4.77-10.47-10.579-12.81
	c-5.847-2.358-11.864-1.825-17.882-0.761c-0.994,0.177-2.038,0.787-2.954-0.134c-5.382-5.411-12.178-9.17-17.363-14.799
	c-5.362-5.822-5.964-12.1-1.957-18.933c1.493-2.543,3.296-4.863,5.517-6.766c12.533-10.742,26.631-18.224,43.231-20.303
	c4.283-0.536,8.551-0.224,12.693,1.095c6.101,1.941,8.345,6.385,6.333,12.455c-1.033,3.118-2.711,5.858-4.921,8.276
	c-7.887,8.627-17.895,12.72-29.363,13.447c-4.249,0.269-8.312-0.654-11.664-3.595c-0.591-0.519-1.152-1.612-2.025-0.95
	c-0.96,0.729-0.233,1.762,0.234,2.525c2.479,4.05,6.343,6.033,10.862,6.559c11.524,1.336,22.208-1.18,31.769-7.81
	c5.152-3.574,9.012-8.352,11.58-14.102c5.136-11.501,0.961-21.082-10.954-25.004c-5.32-1.749-10.823-2.191-16.387-1.602
	c-16.143,1.71-30.11,8.696-43.06,18.012c-5.286,3.802-9.828,8.404-13.325,13.949c-5.697,9.032-5.08,15.955,2.079,23.825
	c3.535,3.885,7.727,6.979,11.977,10.015c3.109,2.22,6.462,4.125,9.483,7.018C-769.923,72.288-771.096,72.926-772.254,73.589z
	 M-777.333,97.576c-4.223,1.104-6.318-0.862-5.304-5.111c1.009-4.23,3.691-7.381,6.918-10.129c2.383-2.028,4.953-3.793,7.685-5.317
	c2.705-1.508,3.101-1.308,3.385,1.684c0.058,0.618,0.008,1.246,0.008,1.869C-764.613,88.298-770.166,95.702-777.333,97.576z"/>
<path fill-rule="evenodd" clip-rule="evenodd" fill="#3E0154" d="M690.076,319.16c28.678,28.678,28.678,75.174-0.002,103.851
	c-28.677,28.679-75.173,28.679-103.851,0c-28.679-28.678-28.679-75.175-0.001-103.851C614.9,290.481,661.396,290.481,690.076,319.16
	z M602.117,353.895c1.961-3.878,4.57-7.528,7.826-10.784c3.526-3.526,7.516-6.294,11.755-8.3l-15.259-26.364
	c-6.457,3.343-12.539,7.737-17.98,13.18c-4.86,4.86-8.885,10.23-12.07,15.923L602.117,353.895z M671.482,432.644
	c5.693-3.187,11.063-7.211,15.924-12.071c5.441-5.442,9.836-11.522,13.18-17.979l-26.365-15.26
	c-2.006,4.239-4.773,8.228-8.299,11.755c-3.256,3.256-6.907,5.864-10.785,7.826L671.482,432.644z M621.534,407.864
	c-3.84-1.996-7.471-4.626-10.728-7.882c-3.525-3.527-6.318-7.491-8.367-11.688l-25.557,14.454
	c3.402,6.397,7.83,12.445,13.271,17.887c4.861,4.861,10.204,8.911,15.85,12.146L621.534,407.864z M700.023,338.309
	c-3.203-5.674-7.239-11.034-12.1-15.895c-5.441-5.442-11.51-9.85-17.943-13.215l-14.943,26.048c4.223,2.021,8.201,4.8,11.729,8.326
	c3.256,3.257,5.873,6.898,7.848,10.762L700.023,338.309z M612.664,345.6c-14.074,14.075-14.074,36.895,0,50.97
	c14.076,14.075,36.895,14.075,50.969,0c14.076-14.074,14.076-36.894,0-50.97C649.559,331.525,626.74,331.525,612.664,345.6z"/>
<path fill-rule="evenodd" clip-rule="evenodd" fill="#3E0154" d="M-372.014,687.335c-0.047,38.695-31.394,70.029-70.021,69.994
	c-38.657-0.036-69.993-31.426-69.946-70.066c0.046-38.698,31.379-70.019,70.019-69.99
	C-403.311,617.302-371.967,648.697-372.014,687.335z M-419.16,731.605c1.459,0.014,1.7-0.433,1.693-1.754
	c-0.052-10.074-0.022-20.148-0.032-30.223c-0.001-1.408,0.462-3.265-0.248-4.105c-0.83-0.984-2.758-0.165-4.193-0.344
	c-1.206-0.15-1.565,0.245-1.558,1.505c0.059,9.182,0.01,18.365,0.06,27.547c0.007,1.17-0.271,1.494-1.467,1.49
	c-14.324-0.044-28.648-0.04-42.974-0.006c-1.101,0.004-1.526-0.161-1.517-1.421c0.065-8.237,0.039-16.476,0.029-24.713
	c-0.002-1.408,0.473-3.3-0.243-4.097c-0.825-0.919-2.758-0.146-4.195-0.31c-1.236-0.14-1.563,0.292-1.558,1.537
	c0.051,11.071,0.064,22.143-0.013,33.214c-0.011,1.473,0.455,1.673,1.751,1.665c9.024-0.053,18.05-0.028,27.074-0.027
	C-437.419,731.565-428.289,731.524-419.16,731.605z M-447.033,719.747c5.458,0,10.915-0.018,16.373,0.018
	c0.902,0.007,1.325-0.14,1.269-1.186c-0.094-1.727-0.08-3.464-0.004-5.192c0.04-0.929-0.295-1.112-1.156-1.11
	c-10.913,0.032-21.828,0.039-32.743,0.01c-0.936-0.002-1.125,0.313-1.094,1.16c0.061,1.677,0.084,3.36-0.004,5.035
	c-0.055,1.041,0.267,1.322,1.303,1.313c5.353-0.051,10.704-0.023,16.057-0.023C-447.033,719.771-447.033,719.755-447.033,719.747z
	 M-406.719,677.649c0.718-0.111,0.911-0.368,0.758-1.147c-0.532-2.719-0.949-5.46-1.421-8.191
	c-1.382-7.987-2.775-15.973-4.144-23.962c-0.163-0.949-0.353-1.473-1.568-1.133c-1.552,0.435-3.182,0.615-4.788,0.824
	c-0.997,0.129-1.258,0.539-1.081,1.534c1.896,10.711,3.76,21.427,5.604,32.146c0.12,0.697,0.287,1.105,1.235,0.826
	C-410.434,678.264-408.579,677.939-406.719,677.649z M-434.689,650.642c-1.729,1.177-3.452,2.365-5.189,3.53
	c-0.651,0.437-0.183,0.777,0.058,1.13c6.188,9.08,12.388,18.152,18.558,27.246c0.448,0.661,0.746,0.797,1.427,0.295
	c1.475-1.084,3.002-2.098,4.535-3.1c0.569-0.371,0.787-0.621,0.314-1.309c-6.25-9.104-12.463-18.229-18.689-27.348
	c-0.173-0.254-0.384-0.481-0.572-0.715C-434.42,650.478-434.559,650.553-434.689,650.642z M-427.297,692.71
	c-10.604-2.867-21.215-5.721-31.815-8.6c-0.721-0.195-1.011-0.074-1.191,0.695c-0.418,1.782-0.923,3.545-1.448,5.299
	c-0.238,0.798,0,1.064,0.792,1.275c10.614,2.829,21.221,5.694,31.825,8.562c0.579,0.157,0.936,0.199,1.118-0.558
	c0.464-1.931,1.029-3.839,1.609-5.957C-426.1,692.735-426.854,692.83-427.297,692.71z M-422.859,683.845
	c-9.414-5.555-18.833-11.1-28.237-16.671c-0.649-0.384-0.992-0.452-1.402,0.313c-0.814,1.521-1.687,3.017-2.646,4.448
	c-0.636,0.947-0.389,1.339,0.532,1.877c8.266,4.824,16.5,9.703,24.745,14.563c1.351,0.796,2.879,2.391,4.021,2.153
	c1.317-0.273,1.744-2.521,2.635-3.864c0.433-0.652,0.793-1.352,1.224-2.092C-422.116,684.153-422.533,684.038-422.859,683.845z
	 M-461.054,699.725c-0.313-0.028-0.648,0.005-0.937-0.094c-1.241-0.429-1.488,0.155-1.536,1.269
	c-0.073,1.674-0.287,3.342-0.488,5.007c-0.095,0.786,0.111,1.046,0.964,1.123c10.91,0.98,21.817,2.005,32.723,3.045
	c0.794,0.075,1.141-0.093,1.188-0.942c0.103-1.83,0.255-3.66,0.452-5.484c0.079-0.744-0.126-1.004-0.89-1.072
	c-10.493-0.937-20.984-1.902-31.476-2.862C-461.054,699.717-461.054,699.721-461.054,699.725z"/>
<path fill-rule="evenodd" clip-rule="evenodd" fill="#3E0154" d="M-526.336,687.335c-0.047,38.695-31.393,70.029-70.02,69.994
	c-38.658-0.035-69.994-31.426-69.947-70.066c0.047-38.697,31.379-70.018,70.02-69.99
	C-557.633,617.302-526.29,648.698-526.336,687.335z M-589.665,682.166v-0.153c-0.031,0.052-0.066,0.103-0.1,0.153H-589.665z
	 M-615.391,720.688h-14.977v-45.055h14.977V720.688z M-622.877,669.479h-0.102c-5.021,0-8.271-3.459-8.271-7.781
	c0-4.419,3.35-7.785,8.471-7.785c5.125,0,8.273,3.366,8.375,7.785C-614.405,666.021-617.657,669.479-622.877,669.479z
	 M-561.391,720.688h-14.975V696.58c0-6.054-2.166-10.187-7.584-10.187c-4.139,0-6.602,2.786-7.686,5.478
	c-0.396,0.96-0.492,2.304-0.492,3.652v25.161h-14.975c0,0,0.195-40.83,0-45.055h14.975v6.38c1.99-3.068,5.547-7.441,13.498-7.441
	c9.852,0,17.24,6.442,17.24,20.28v25.84H-561.391z"/>
<path fill="#3E0154" d="M-906.142,768.453c-38.836,0-70.324,31.489-70.324,70.338c0,31.069,20.146,57.432,48.101,66.731
	c3.516,0.645,4.623-1.442,4.623-3.306c0-1.666,0.035-6.338,0-12.211c-19.561,4.259-23.613-9.258-23.613-9.258
	c-3.197-8.132-7.805-10.287-7.805-10.287c-6.384-4.362,0.479-4.285,0.479-4.285c7.057,0.498,10.777,7.257,10.777,7.257
	c6.273,10.733,16.457,7.634,20.461,5.839c0.643-4.543,2.463-7.643,4.473-9.403c-15.617-1.777-32.035-7.806-32.035-34.761
	c0-7.677,2.74-13.954,7.236-18.866c-0.725-1.777-3.143-8.931,0.691-18.617c0,0,5.904-1.889,19.336,7.214
	c5.611-1.563,11.631-2.336,17.609-2.366c5.973,0.03,11.992,0.803,17.607,2.366c13.43-9.103,19.33-7.214,19.33-7.214
	c3.83,9.687,1.416,16.84,0.695,18.617c4.5,4.912,7.23,11.189,7.23,18.866c0,27.024-16.443,32.967-32.115,34.701
	c2.523,2.181,4.816,6.397,4.816,12.958c0,8.793,0,17.157,0,19.467c0,1.881,1.133,3.968,4.707,3.28
	c27.924-9.316,48.053-35.662,48.053-66.723C-835.808,799.942-867.296,768.453-906.142,768.453z"/>
<path fill-rule="evenodd" clip-rule="evenodd" fill="#3E0154" d="M-681.113,687.335c-0.047,38.695-31.393,70.029-70.02,69.994
	c-38.658-0.035-69.994-31.426-69.947-70.066c0.047-38.697,31.379-70.018,70.02-69.99
	C-712.41,617.302-681.066,648.698-681.113,687.335z M-707.191,663.31c-3.08,1.369-6.396,2.293-9.875,2.705
	c3.551-2.127,6.275-5.496,7.561-9.514c-3.322,1.973-7.002,3.402-10.918,4.178c-3.139-3.344-7.607-5.434-12.551-5.434
	c-9.496,0-17.195,7.697-17.195,17.195c0,1.346,0.152,2.658,0.445,3.918c-14.289-0.719-26.961-7.563-35.442-17.967
	c-1.48,2.539-2.325,5.492-2.325,8.646c0,5.967,3.033,11.23,7.646,14.311c-2.816-0.09-5.469-0.863-7.787-2.15
	c-0.002,0.07-0.002,0.145-0.002,0.217c0,8.33,5.927,15.279,13.793,16.859c-1.441,0.393-2.962,0.602-4.53,0.602
	c-1.108,0-2.187-0.105-3.234-0.309c2.188,6.832,8.538,11.803,16.062,11.943c-5.885,4.611-13.297,7.359-21.355,7.359
	c-1.387,0-2.756-0.08-4.102-0.238c7.611,4.881,16.648,7.725,26.358,7.725c31.628,0,48.923-26.201,48.923-48.922
	c0-0.748-0.016-1.488-0.049-2.23C-712.41,669.786-709.494,666.755-707.191,663.31z"/>
<path fill-rule="evenodd" clip-rule="evenodd" fill="#3E0154" d="M-835.705,687.335c-0.047,38.695-31.393,70.029-70.02,69.994
	c-38.658-0.035-69.994-31.426-69.947-70.066c0.047-38.697,31.379-70.018,70.02-69.99
	C-867.002,617.302-835.658,648.698-835.705,687.335z M-915.355,724.56h15.396v-37.264h10.271l1.358-12.839h-11.629l0.017-6.429
	c0-3.348,0.317-5.144,5.122-5.144h6.42v-12.844h-10.273c-12.342,0-16.682,6.231-16.682,16.707v7.709h-7.691V687.3h7.691V724.56
	L-915.355,724.56z"/>
<path fill="#3E0154" d="M-551.138,77.444c-0.757-4.694-3.818-8.647-12.887-12.314c-3.146-1.447-6.662-2.49-7.705-4.879
	c-0.37-1.396-0.421-2.171-0.186-3.012c0.674-2.725,3.937-3.583,6.512-2.793c1.665,0.555,3.246,1.834,4.188,3.887
	c4.441-2.877,4.441-2.86,7.537-4.828c-1.127-1.767-1.75-2.574-2.49-3.331c-2.675-2.978-6.309-4.526-12.13-4.407
	c-1.009,0.134-2.019,0.269-3.028,0.386c-2.91,0.74-5.669,2.255-7.301,4.307c-4.879,5.535-3.482,15.209,2.439,19.196
	c5.837,4.391,14.417,5.384,15.528,9.488c1.06,5.014-3.685,6.646-8.412,6.073c-3.482-0.724-5.417-2.49-7.521-5.72
	c-3.853,2.237-3.853,2.237-7.823,4.509c0.943,2.053,1.936,2.978,3.499,4.761c7.454,7.57,26.128,7.2,29.476-4.257
	C-551.306,84.123-550.414,81.499-551.138,77.444z M-589.697,46.371h-9.623c0,8.312-0.033,16.571-0.033,24.898
	c0,5.301,0.269,10.146-0.589,11.643c-1.413,2.928-5.064,2.558-6.729,2.002c-1.699-0.824-2.558-2.02-3.55-3.685
	c-0.27-0.487-0.488-0.857-0.556-0.874c-2.607,1.598-5.215,3.196-7.822,4.794c1.295,2.676,3.213,4.997,5.669,6.494
	c3.668,2.204,8.597,2.877,13.762,1.699c3.365-0.976,6.259-3.012,7.772-6.09c2.187-4.038,1.716-8.934,1.699-14.352
	C-589.646,64.053-589.697,55.221-589.697,46.371z M-526.332,51.682c0,38.786-31.442,70.229-70.229,70.229
	c-38.787,0-70.229-31.443-70.229-70.229s31.442-70.229,70.229-70.229C-557.774-18.547-526.332,12.896-526.332,51.682z"/>
<path fill-rule="evenodd" clip-rule="evenodd" fill="#3E0154" d="M-442.797,256.467c-7.278-2.496-14.78-4.212-22.178-6.291
	c-2.158-0.607-3.083-1.298-3.286-3.841c-1.501-18.839-3.269-37.655-4.95-56.479c-0.452-5.061-0.449-5.061,4.687-5.061
	c18.464,0,36.927,0.037,55.39-0.05c2.118-0.011,2.695,0.5,2.498,2.625c-1.746,18.817-3.4,37.643-5.081,56.467
	c-0.485,5.423-0.48,5.441-5.756,6.91c-6.396,1.779-12.802,3.52-19.199,5.29c-0.268,0.074-0.498,0.284-0.744,0.43
	C-441.877,256.467-442.337,256.467-442.797,256.467z M-442.115,198.011c0,0.016,0,0.029,0,0.043c-6.049,0-12.097-0.012-18.146,0.017
	c-0.712,0.004-1.792-0.439-1.646,1.095c0.659,6.928,1.329,13.855,1.852,20.794c0.134,1.783,0.887,2.006,2.428,1.993
	c7.732-0.061,15.465,0.023,23.197-0.022c1.43-0.007,2.065,0.252,1.848,1.868c-0.315,2.346-0.445,4.72-0.578,7.086
	c-0.051,0.914-0.467,1.312-1.282,1.627c-5.104,1.981-10.181,2.189-15.309,0.063c-0.895-0.371-1.291-0.755-1.374-1.771
	c-0.406-4.978-0.443-4.976-5.371-4.973c-0.384,0-0.774,0.049-1.148-0.009c-1.51-0.236-1.837,0.492-1.689,1.841
	c0.35,3.193,0.654,6.392,0.898,9.593c0.065,0.853,0.428,1.095,1.187,1.355c3.051,1.053,6.19,1.9,9.275,2.728
	c2.196,0.588,4.468,1.961,6.981,1.239c4.619-1.325,9.237-2.651,13.873-3.914c0.844-0.23,1.288-0.481,1.369-1.46
	c0.564-6.857,1.096-13.723,1.869-20.558c0.273-2.414-0.584-2.72-2.68-2.675c-6.658,0.146-13.32,0.123-19.98,0.083
	c-1.956-0.012-4.354,0.825-5.753-0.423c-1.243-1.109-0.541-3.491-0.77-5.303c-0.02-0.152-0.01-0.313-0.058-0.455
	c-0.591-1.738,0.23-2.011,1.788-1.994c7.425,0.077,14.852,0.079,22.279,0.048c1.97-0.008,4.49,0.844,5.765-0.371
	c1.263-1.206,0.504-3.796,0.878-5.728c0.337-1.747-0.425-1.848-1.789-1.837C-430.17,198.039-436.144,198.011-442.115,198.011z
	 M-431.878,177.947c-0.16,1.71,0.997,1.353,1.916,1.325c0.874-0.025,2.035,0.492,1.971-1.277c-0.113-3.129-0.021-6.266-0.04-9.399
	c-0.004-0.544,0.271-1.318-0.757-1.306c-1.76,0.02-3.679-0.479-4.516,1.909c-0.271,0.772-0.709,1.617-1.555,2.151
	c-0.694-1.152-1.294-2.307-2.046-3.353c-1.005-1.4-2.534-0.485-3.813-0.688c-0.834-0.132-0.717,0.577-0.718,1.09
	c-0.006,3.286,0.017,6.573-0.017,9.859c-0.008,0.805,0.297,0.981,1.061,1.052c2.657,0.244,2.74,0.203,2.741-2.57
	c0.001-0.938,0-1.878,0-3.412c1.199,1.744,2.021,2.941,2.915,4.24c0.924-1.364,1.714-2.534,2.882-4.262
	C-431.854,175.359-431.758,176.663-431.878,177.947z M-456.101,169.165c0.116-1.418-0.23-2.004-1.817-1.931
	c-1.47,0.067-2.614,0.069-2.217,2.015c0.392,1.917-0.592,2.177-2.259,2.184c-2.469,0.01-1.463-1.758-1.436-2.734
	c0.044-1.618-0.863-1.473-1.868-1.406c-0.949,0.063-2.185-0.492-2.096,1.396c0.135,2.817,0.08,5.647,0.017,8.47
	c-0.031,1.342-0.065,2.241,1.82,2.208c1.713-0.03,2.374-0.445,2.064-2.149c-0.279-1.535,0.262-2.096,1.931-2.087
	c1.592,0.008,2.069,0.566,1.819,1.981c-0.326,1.85,0.493,2.198,2.225,2.252c1.888,0.057,1.885-0.847,1.808-2.187
	c-0.073-1.292-0.016-2.594-0.016-3.892C-456.125,171.911-456.212,170.53-456.101,169.165z M-453.092,167.264
	c-1.339-0.103-1.386,0.712-1.188,1.557c0.2,0.847-0.88,2.562,1.009,2.377c2.465-0.237,2.802,0.893,2.575,2.887
	c-0.128,1.132,0.067,2.299-0.046,3.435c-0.136,1.36,0.221,1.854,1.712,1.825c1.533-0.03,2.459-0.132,2.179-2.05
	c-0.197-1.347,0.046-2.753-0.061-4.12c-0.111-1.425,0.242-2.197,1.841-1.917c1.286,0.226,1.836-0.121,1.887-1.65
	c0.062-1.876-0.389-2.641-2.347-2.346c-1.046,0.156-2.137,0.027-3.206,0.027C-450.189,167.288-451.649,167.373-453.092,167.264z
	 M-418.136,179.309c1.495,0.175,1.921-0.346,1.933-1.869c0.012-1.614-0.444-2.224-2.047-1.997c-0.676,0.095-1.383-0.049-2.062,0.029
	c-1.27,0.147-1.8-0.274-1.719-1.63c0.104-1.754-0.063-3.524,0.05-5.277c0.115-1.78-1.119-1.229-1.98-1.26
	c-0.915-0.034-2.037-0.399-1.922,1.32c0.131,1.98,0.029,3.977,0.029,5.966c0,4.696,0,4.696,4.736,4.696
	C-420.123,179.287-419.118,179.195-418.136,179.309z M-371.768,211.833c0,38.786-31.443,70.229-70.229,70.229
	s-70.229-31.442-70.229-70.229c0-38.787,31.443-70.229,70.229-70.229S-371.768,173.046-371.768,211.833z"/>
<path fill-rule="evenodd" clip-rule="evenodd" fill="#3E0154" d="M-722.968,200.839c-0.323,6.178-1.54,12.145-4.186,17.774
	c-3.949,7.07-10.84,13.579-16.327,16.752c0,0-2.227,1.295-3.448,1.709c-5.246,1.779-10.653,2.479-16.158,2.041
	c-1.927-0.152-2.965,0.479-3.699,2.176c-0.714,1.649-1.38,3.308-1.757,5.063c-0.471,2.19-1.89,3.411-3.933,4.061
	c-2.295,0.729-3.107,0.155-2.624-2.161c0.547-2.617,1.547-5.351,2.72-7.89c0.066-0.117,0.122-0.241,0.171-0.367
	c0.254-0.538,0.512-1.069,0.778-1.584c1.624-3.08,3.098-6.304,6.053-8.38c5.67-3.983,10.517-8.812,14.707-14.285
	c4.098-5.352,7.473-11.138,9.725-17.532c-0.389,0.167-0.62,0.429-0.777,0.73c-5.483,10.482-13.117,19.169-22.279,26.552
	c-3.639,2.933-7.511,5.604-9.679,9.953c-0.444,0.137-0.849,0.444-1.221,0.122c-4.872-9.243-5.656-18.836-2.471-28.771
	c5.542-12.835,16.466-19.421,28.634-24.464c4.952-2.052,9.971-3.891,13.906-7.73c3.398-2.391,3.397-2.389,5.452,1.341
	c0.188,0.34,0.411,0.659,0.618,0.988C-725.217,184.513-723.43,192.516-722.968,200.839z M-751.125,141.604
	c-38.786,0-70.229,31.442-70.229,70.229c0,38.786,31.443,70.229,70.229,70.229c38.787,0,70.229-31.442,70.229-70.229
	C-680.896,173.046-712.338,141.604-751.125,141.604z"/>
<path fill="#3E0154" d="M-597.001,173.85L-597.001,173.85l-38.33,13.594l5.826,50.491l32.412,17.939l32.874-18.172l6.427-50.49
	L-597.001,173.85 M-588.909,216.942l-8.184-16.877l-7.028,16.877H-588.909L-588.909,216.942z M-585.811,224.063h-21.501
	l-4.809,11.976l-8.924,0.185l23.951-53.219l24.829,53.219h-8.276L-585.811,224.063L-585.811,224.063z M-526.332,211.833
	c0,38.786-31.443,70.229-70.229,70.229s-70.229-31.442-70.229-70.229c0-38.787,31.442-70.229,70.229-70.229
	S-526.332,173.046-526.332,211.833z"/>
<g>
	<path fill="#3E0154" d="M-943.205,49.251l0.52-0.464c3.423-3.233,7.301-6.45,11.576-9.562l1.379-1.041l0.321-3.031
		c0.59-4.907,1.43-9.552,2.487-13.84l0.153-0.621l-0.5-0.095c-12.93-3.351-23.154-2.688-26.515,2.849
		c-3.431,5.65,0.886,15.228,10.171,25.322L-943.205,49.251z"/>
	<path fill="#3E0154" d="M-918.168,30.852c2.194-1.258,4.387-2.435,6.571-3.542l1.148-0.654l-1.344-0.642
		c-3.768-1.637-7.457-3.018-10.992-4.131l-0.738-0.213l-0.18,0.658c-0.944,3.949-1.704,8.227-2.251,12.735l-0.087,0.648l0.485-0.328
		C-923.186,33.83-920.721,32.315-918.168,30.852z"/>
	<path fill="#3E0154" d="M-930.083,42.982l-0.283,0.215c-3.553,2.658-6.808,5.388-9.723,8.117l-0.533,0.503l0.466,0.501l0.188,0.195
		c2.915,2.73,6.048,5.279,9.602,7.938l0.283,0.215l-0.053-0.396l-0.26-7.968c-0.008-3.036,0.088-6.012,0.26-8.925L-930.083,42.982z"
		/>
	<path fill="#3E0154" d="M-908.654,23.417l2.694,1.127l0.947-0.37c5.1-2.263,10.091-4.099,14.838-5.484l0.417-0.133l-0.112-0.424
		c-3.879-13.075-9.852-21.676-16.417-21.661c-6.382,0.017-12.125,8.098-15.914,20.517l-0.314,1.204l0.789,0.227
		C-917.527,19.729-913.141,21.394-908.654,23.417z"/>
	<path fill="#3E0154" d="M-882.69,36.029l0.284,2.82l0.713,0.539c4.52,3.4,8.6,6.915,12.164,10.438l0.163,0.164l0.188-0.185
		c9.761-10.136,14.46-19.943,11.135-25.744c-3.284-5.729-13.701-6.468-26.972-3.138l-0.394,0.086l0.109,0.425
		C-884.179,25.941-883.297,30.845-882.69,36.029z"/>
	<path fill="#3E0154" d="M-929.41,68.185l-0.32-3.031l-1.38-1.041c-4.275-3.111-8.152-6.328-11.576-9.561l-0.519-0.464l-0.409,0.482
		c-9.285,10.095-13.602,19.671-10.171,25.321c3.361,5.537,13.585,6.199,26.516,2.849l0.5-0.095l-0.154-0.621
		C-927.98,77.737-928.82,73.093-929.41,68.185z"/>
	<path fill="#3E0154" d="M-901.729,26.696l0.421,0.225c2.637,1.383,5.291,2.881,7.941,4.489c2.359,1.433,4.635,2.909,6.832,4.417
		l0.258,0.197l-0.051-0.348c-0.585-4.753-1.401-9.263-2.423-13.409l-0.122-0.302l-0.292,0.091
		c-3.894,1.174-7.979,2.665-12.159,4.449L-901.729,26.696z"/>
	<path fill="#3E0154" d="M-881.904,60.718l-0.008,0.087l0.206-0.143c3.537-2.757,6.773-5.57,9.658-8.37l0.128-0.111l-0.128-0.12
		c-2.885-2.801-5.993-5.372-9.53-8.129l-0.353-0.244l0.026,0.43c0.151,2.626,0.233,5.306,0.241,8.028v0.544
		C-881.671,55.413-881.753,58.093-881.904,60.718z"/>
	<path fill="#3E0154" d="M-905.688-18.56c-38.786,0-70.229,31.442-70.229,70.229s31.443,70.229,70.229,70.229
		c38.787,0,70.229-31.443,70.229-70.229S-866.902-18.56-905.688-18.56z M-885.867,85.801l-0.384-0.064l-0.105,0.323
		c-4.457,14.951-11.669,24.672-19.787,24.651c-7.888-0.02-14.876-9.233-19.287-23.495l-0.346-1.165l-0.99,0.292
		c-14.555,3.644-26.117,2.441-30.225-4.323c-4.225-6.958,0.411-18.198,10.97-29.775l0.463-0.523l0.04-0.052l-0.503-0.575
		c-10.559-11.577-15.195-22.817-10.97-29.775c4.108-6.765,15.669-7.967,30.225-4.322l0.99,0.292l0.347-1.166
		c4.41-14.262,11.398-23.476,19.287-23.495c8.118-0.02,15.33,9.7,19.787,24.651l0.105,0.324l0.384-0.065
		c15.331-3.704,27.492-2.341,31.558,4.752c4.086,7.127-0.542,17.963-11.597,29.38l0.063,0.066
		c11.054,11.417,15.62,22.187,11.533,29.314C-858.375,88.142-870.537,89.505-885.867,85.801z"/>
	<path fill="#3E0154" d="M-910.449,76.683l-1.148-0.654c-2.184-1.107-4.376-2.284-6.57-3.542c-2.553-1.464-5.018-2.979-7.387-4.532
		l-0.486-0.328l0.087,0.648c0.547,4.509,1.307,8.786,2.251,12.736l0.18,0.658l0.737-0.214c3.535-1.113,7.224-2.493,10.992-4.13
		L-910.449,76.683z"/>
	<path fill="#3E0154" d="M-868.565,54.064l-0.163,0.163c-3.564,3.524-7.687,6.768-12.207,10.167l-1.481,1.199l-0.275,1.715
		c-0.607,5.185-1.489,10.088-2.611,14.594l-0.109,0.425l0.394,0.086c13.271,3.33,23.688,2.593,26.972-3.137
		c3.326-5.802-0.572-14.892-10.333-25.028L-868.565,54.064z"/>
	<path fill="#3E0154" d="M-885.576,43.803l-0.282-3.035l-1.548-1.126c-2.515-1.756-5.137-3.475-7.861-5.129
		c-2.926-1.775-5.866-3.41-8.79-4.91c0.005-0.008,0.01-0.016,0.016-0.022l-1.846-1.019l-2.771,1.336
		c-2.562,1.271-5.14,2.644-7.712,4.119c-3.242,1.858-6.351,3.813-9.303,5.828l-0.782,0.545l-0.238,3.002
		c-0.167,2.831-0.255,4.214-0.249,7.152v0.742c-0.007,2.939,0.082,5.829,0.249,8.661l0.238,3.001l0.781,0.545
		c2.953,2.016,6.062,3.97,9.304,5.829c2.572,1.475,5.15,2.848,7.712,4.119l2.772,1.335l1.845-1.018
		c-0.005-0.008-0.01-0.016-0.016-0.023c2.924-1.5,5.864-3.134,8.79-4.91c2.725-1.654,5.346-3.373,7.862-5.129l1.548-1.126
		l0.282-3.035c0.169-2.729,0.266-5.512,0.272-8.337l0-0.566C-885.31,47.808-885.407,46.532-885.576,43.803z M-905.688,61.35
		c-6.352-0.2-9.638-5.234-9.858-9.525c-0.207-4.025,1.766-10.924,9.858-10.878c8.093,0.045,10.384,4.644,10.167,10.723
		C-895.733,57.622-900.234,61.521-905.688,61.35z"/>
	<path fill="#3E0154" d="M-893.367,71.928c-2.649,1.609-5.304,3.106-7.941,4.49l-0.421,0.225l0.405,0.189
		c4.18,1.784,8.266,3.276,12.159,4.45l0.292,0.091l0.122-0.303c1.021-4.146,1.838-8.656,2.423-13.409l0.05-0.348l-0.258,0.197
		C-888.732,69.019-891.007,70.495-893.367,71.928z"/>
	<path fill="#3E0154" d="M-905.013,79.164l-0.947-0.37l-2.694,1.127c-4.487,2.023-8.873,3.689-13.073,4.998l-0.789,0.227
		l0.314,1.205c3.788,12.418,9.531,20.5,15.913,20.516c6.566,0.016,12.539-8.586,16.418-21.661l0.112-0.424l-0.417-0.132
		C-894.922,83.263-899.913,81.427-905.013,79.164z"/>
	<path fill="#3E0154" d="M-890.445,19.816"/>
	<path fill="#3E0154" d="M-884.805,19.799"/>
</g>
<path fill="#3E0154" d="M-371.769,52.936c0,38.786-31.442,70.229-70.229,70.229s-70.229-31.443-70.229-70.229
	s31.443-70.229,70.229-70.229S-371.769,14.149-371.769,52.936z M-477.398,33.468c-7.131,10.25-6.243,23.584-0.796,34.476
	c0.129,0.262,0.266,0.518,0.399,0.774c0.086,0.163,0.165,0.329,0.254,0.49c0.051,0.097,0.107,0.19,0.159,0.283
	c0.094,0.174,0.188,0.338,0.284,0.509c0.17,0.297,0.344,0.594,0.52,0.891c0.099,0.163,0.195,0.325,0.298,0.488
	c0.196,0.317,0.396,0.632,0.603,0.943c0.086,0.135,0.17,0.268,0.258,0.397c0.284,0.423,0.574,0.847,0.874,1.262
	c0.008,0.01,0.017,0.022,0.025,0.032c0.047,0.067,0.099,0.133,0.147,0.2c0.259,0.356,0.526,0.709,0.796,1.059
	c0.099,0.128,0.201,0.254,0.301,0.381c0.24,0.305,0.486,0.605,0.735,0.906c0.094,0.112,0.188,0.224,0.281,0.334
	c0.335,0.395,0.677,0.787,1.025,1.173c0.007,0.007,0.015,0.015,0.021,0.022c0.014,0.015,0.026,0.025,0.039,0.041
	c0.341,0.372,0.69,0.737,1.043,1.101c0.109,0.111,0.222,0.225,0.334,0.337c0.274,0.274,0.552,0.545,0.833,0.816
	c0.113,0.107,0.227,0.218,0.34,0.322c0.375,0.354,0.754,0.7,1.141,1.038c0.007,0.007,0.012,0.012,0.018,0.015
	c0.064,0.058,0.134,0.114,0.198,0.168c0.341,0.296,0.688,0.589,1.036,0.877c0.143,0.115,0.286,0.229,0.43,0.342
	c0.285,0.229,0.573,0.454,0.863,0.675c0.154,0.117,0.308,0.234,0.462,0.353c0.32,0.233,0.644,0.467,0.97,0.693
	c0.119,0.086,0.233,0.169,0.354,0.251c0.031,0.023,0.063,0.048,0.096,0.07c0.31,0.211,0.625,0.418,0.941,0.622
	c0.135,0.09,0.271,0.184,0.407,0.271c0.484,0.306,0.977,0.609,1.474,0.902c0.136,0.077,0.271,0.153,0.407,0.229
	c0.365,0.211,0.733,0.418,1.106,0.621c0.2,0.108,0.408,0.211,0.61,0.313c0.264,0.14,0.525,0.278,0.792,0.411
	c0.061,0.031,0.124,0.061,0.185,0.09c0.106,0.051,0.214,0.102,0.322,0.156c0.415,0.198,0.833,0.392,1.254,0.58
	c0.09,0.04,0.177,0.08,0.267,0.118c0.482,0.212,0.97,0.415,1.463,0.609c0.118,0.047,0.237,0.094,0.356,0.141
	c0.456,0.175,0.917,0.349,1.38,0.511c0.059,0.021,0.116,0.04,0.173,0.06c0.509,0.178,1.023,0.343,1.541,0.504
	c0.123,0.037,0.247,0.076,0.371,0.112c0.526,0.158,1.047,0.348,1.59,0.448c34.487,6.289,44.505-20.726,44.505-20.726
	c-8.413,10.961-23.348,13.854-37.498,10.634c-0.536-0.121-1.057-0.287-1.579-0.443c-0.133-0.039-0.263-0.078-0.394-0.119
	c-0.511-0.157-1.018-0.32-1.521-0.494c-0.068-0.024-0.138-0.05-0.209-0.075c-0.45-0.158-0.896-0.326-1.341-0.497
	c-0.125-0.051-0.25-0.098-0.375-0.148c-0.487-0.192-0.971-0.392-1.448-0.603c-0.099-0.041-0.192-0.084-0.289-0.127
	c-0.41-0.186-0.816-0.373-1.222-0.567c-0.116-0.057-0.233-0.112-0.353-0.17c-0.317-0.154-0.631-0.319-0.944-0.48
	c-0.21-0.109-0.423-0.216-0.63-0.329c-0.383-0.205-0.759-0.418-1.132-0.636c-0.128-0.072-0.255-0.139-0.383-0.213
	c-0.498-0.293-0.988-0.596-1.475-0.904c-0.134-0.085-0.266-0.176-0.397-0.264c-0.353-0.228-0.704-0.459-1.049-0.698
	c-0.115-0.076-0.227-0.159-0.338-0.236c-0.334-0.236-0.664-0.476-0.992-0.718c-0.148-0.108-0.295-0.223-0.439-0.332
	c-0.301-0.23-0.6-0.462-0.895-0.7c-0.134-0.105-0.268-0.213-0.399-0.32c-0.376-0.309-0.748-0.618-1.114-0.938
	c-0.039-0.034-0.08-0.067-0.122-0.103c-0.396-0.349-0.787-0.707-1.172-1.066c-0.111-0.106-0.221-0.21-0.329-0.318
	c-0.286-0.27-0.566-0.544-0.842-0.824c-0.11-0.109-0.222-0.22-0.331-0.329c-0.351-0.36-0.695-0.724-1.032-1.093
	c-0.018-0.019-0.035-0.034-0.052-0.055c-0.357-0.391-0.706-0.789-1.047-1.193c-0.094-0.109-0.184-0.217-0.275-0.326
	c-0.255-0.306-0.507-0.617-0.754-0.932c-0.093-0.111-0.185-0.229-0.276-0.343c-0.296-0.386-0.587-0.77-0.871-1.16
	c-7.857-10.716-10.679-25.495-4.399-37.633 M-455.262,24.833c-5.157,7.422-4.877,17.355-0.854,25.205
	c0.675,1.315,1.434,2.593,2.281,3.807c0.772,1.108,1.629,2.426,2.654,3.314c0.372,0.41,0.76,0.81,1.157,1.201
	c0.101,0.104,0.203,0.202,0.306,0.303c0.384,0.373,0.777,0.74,1.182,1.097c0.016,0.015,0.031,0.03,0.049,0.042
	c0.004,0.006,0.009,0.006,0.01,0.012c0.449,0.393,0.911,0.771,1.382,1.143c0.104,0.078,0.207,0.162,0.313,0.243
	c0.471,0.362,0.952,0.718,1.444,1.056c0.015,0.011,0.027,0.021,0.042,0.033c0.217,0.149,0.439,0.289,0.659,0.433
	c0.105,0.07,0.206,0.143,0.313,0.208c0.352,0.224,0.708,0.444,1.07,0.655c0.052,0.032,0.103,0.058,0.151,0.086
	c0.313,0.181,0.629,0.358,0.947,0.53c0.11,0.063,0.223,0.117,0.337,0.176c0.219,0.114,0.438,0.23,0.661,0.344
	c0.033,0.015,0.067,0.03,0.1,0.044c0.454,0.224,0.913,0.439,1.382,0.643c0.1,0.044,0.202,0.083,0.305,0.126
	c0.373,0.159,0.752,0.313,1.131,0.459c0.161,0.062,0.324,0.118,0.485,0.179c0.344,0.127,0.69,0.244,1.039,0.361
	c0.157,0.05,0.313,0.102,0.47,0.15c0.496,0.153,0.986,0.348,1.503,0.435c26.627,4.411,32.774-16.09,32.774-16.09
	c-5.541,7.979-16.272,11.789-27.725,8.815c-0.508-0.134-1.009-0.278-1.507-0.436c-0.153-0.047-0.303-0.097-0.454-0.146
	c-0.354-0.114-0.706-0.236-1.055-0.364c-0.16-0.057-0.319-0.116-0.476-0.176c-0.383-0.147-0.762-0.3-1.136-0.459
	c-0.102-0.044-0.206-0.083-0.307-0.13c-0.47-0.204-0.933-0.42-1.39-0.644c-0.234-0.116-0.465-0.236-0.696-0.355
	c-0.133-0.069-0.268-0.139-0.401-0.207c-0.297-0.162-0.591-0.327-0.882-0.498c-0.068-0.039-0.141-0.077-0.211-0.118
	c-0.36-0.212-0.715-0.429-1.067-0.651c-0.108-0.07-0.213-0.146-0.32-0.216c-0.233-0.15-0.465-0.304-0.692-0.458
	c-0.491-0.337-0.969-0.693-1.438-1.053c-0.108-0.086-0.219-0.169-0.325-0.254c-5.013-3.957-8.985-9.367-10.874-15.499
	c-1.979-6.361-1.554-13.5,1.877-19.293 M-436.645,18.382c-3.04,4.474-3.338,10.029-1.229,14.972
	c2.224,5.245,6.782,9.36,12.104,11.31c0.219,0.082,0.438,0.155,0.661,0.231c0.097,0.029,0.193,0.062,0.291,0.091
	c0.313,0.098,0.624,0.214,0.949,0.274c14.702,2.841,18.689-7.546,19.751-9.074c-3.493,5.029-9.363,6.238-16.566,4.49
	c-0.568-0.14-1.194-0.345-1.743-0.54c-0.703-0.249-1.396-0.536-2.069-0.858c-1.279-0.615-2.498-1.361-3.629-2.214
	c-6.445-4.892-10.45-14.222-6.244-21.819"/>
<path fill-rule="evenodd" clip-rule="evenodd" fill="#3E0154" d="M-906.224,185.881c9.743,0,19.486,0.05,29.228-0.044
	c1.84-0.018,2.477,0.324,2.273,2.311c-0.901,8.778-1.651,17.571-2.468,26.358c-0.852,9.161-1.717,18.321-2.58,27.483
	c-0.113,1.2-0.314,2.398-0.36,3.602c-0.224,5.819-0.303,4.683-5.23,6.046c-6.379,1.767-12.787,3.427-19.167,5.187
	c-1.132,0.312-2.189,0.388-3.321,0.079c-7.399-2.021-14.791-4.067-22.219-5.977c-1.496-0.385-2.114-1.014-2.245-2.531
	c-1.057-12.249-2.156-24.493-3.275-36.736c-0.714-7.811-1.443-15.62-2.259-23.422c-0.19-1.811,0.152-2.434,2.169-2.409
	C-925.861,185.946-916.042,185.881-906.224,185.881z M-893.477,176.354c-0.567,0-1.143,0.068-1.698-0.013
	c-1.62-0.235-1.625,0.756-1.625,1.919c0,1.229-0.041,2.226,1.715,2.125c2.256-0.131,4.527-0.07,6.789-0.016
	c1.037,0.024,1.438-0.27,1.482-1.393c0.068-1.677-0.14-3.126-1.642-4.146c-0.729-0.494-1.412-1.057-2.116-1.589
	c0.129-0.185,0.258-0.371,0.387-0.557c0.729,0,1.458,0.002,2.187-0.002c1.941-0.009,1.017-1.49,1.101-2.334
	c0.083-0.831,0.534-2.074-1.197-2.024c-2.413,0.07-4.83,0.051-7.244,0.002c-1.067-0.02-1.419,0.382-1.472,1.45
	c-0.089,1.82,0.088,3.45,1.776,4.547c0.677,0.441,1.328,0.923,1.99,1.385C-893.187,175.925-893.332,176.14-893.477,176.354z
	 M-903.864,172.688c0.374,0,0.757-0.056,1.12,0.009c1.901,0.339,1.957-0.755,2.011-2.227c0.061-1.663-0.385-2.29-2.125-2.164
	c-2.096,0.151-4.21,0.034-6.316,0.038c-0.678,0.002-1.411-0.087-1.415,0.954c-0.005,1.77-0.386,3.626,1.49,4.842
	c0.783,0.507,1.474,1.155,2.206,1.739c-0.869,0.475-1.322,0.536-1.752,0.464c-1.57-0.261-2.062,0.331-2,1.935
	c0.055,1.428,0.198,2.231,1.933,2.111c2.171-0.149,4.36-0.031,6.542-0.042c0.583-0.003,1.35,0.096,1.347-0.772
	c-0.004-1.52,0.537-3.195-1.087-4.339c-0.842-0.594-1.629-1.265-2.441-1.901C-904.188,173.12-904.026,172.904-903.864,172.688z
	 M-924.45,174.218c0,1.95-0.766,4.559,0.199,5.682c1.144,1.333,3.828,0.306,5.838,0.449c0.45,0.032,0.908-0.029,1.356,0.012
	c1.542,0.142,2.484-0.041,2.461-2.091c-0.021-1.963-0.937-2.051-2.359-1.921c-0.449,0.041-0.911-0.044-1.356,0.017
	c-1.443,0.193-2.094-0.136-2.113-1.86c-0.021-1.831,0.817-1.943,2.178-1.829c0.749,0.064,1.508-0.015,2.261,0.018
	c0.81,0.034,1.198-0.232,1.322-1.119c0.389-2.769,0.06-3.228-2.605-3.231c-0.453-0.001-0.907-0.025-1.357,0.004
	c-1.936,0.128-4.495-0.842-5.629,0.415c-0.968,1.071-0.348,3.578-0.43,5.451C-924.606,174.214-924.528,174.216-924.45,174.218z
	 M-835.459,211.833c0,38.786-31.442,70.229-70.229,70.229c-38.786,0-70.229-31.442-70.229-70.229
	c0-38.787,31.443-70.229,70.229-70.229C-866.902,141.604-835.459,173.046-835.459,211.833z M-905.535,198.964
	c-6.181,0.042-12.361,0.114-18.542,0.102c-1.315-0.004-1.977,0.146-1.567,1.712c0.34,1.303,0.542,2.682,0.525,4.023
	c-0.022,1.804,0.871,1.998,2.379,1.964c4.146-0.093,8.294-0.031,12.441-0.03c1.502,0,3.003,0,4.505,0
	c-4.238,2.332-8.515,4.146-12.818,5.892c-5.645,2.289-5.594,2.262-5.091,8.221c0.119,1.406,0.572,1.72,1.889,1.703
	c4.75-0.061,9.501-0.016,14.251,0.031l9.47,0.001c1.34-0.093,1.932,0.258,1.766,1.741c-0.243,2.171-0.443,4.366-0.396,6.544
	c0.036,1.621-0.717,2.724-2.172,3.041l-6.486,1.169c-2.444,0.135-4.634-1.133-6.983-1.325c-2.004-0.164-2.294-1.067-2.329-2.815
	c-0.083-4.105-0.183-4.103-4.203-4.103c-0.83,0-1.666,0.063-2.488-0.015c-1.301-0.126-1.694,0.313-1.525,1.657
	c0.338,2.69,0.668,5.403,0.662,8.105c-0.005,2.089,1.051,2.789,2.773,3.274c4.664,1.313,9.098,2.649,13.748,4.012l0.208,0.062
	c4.647-1.75,9.478-2.9,14.24-4.266c1.408-0.403,1.913-1.11,2.023-2.501c0.544-6.832,1.131-13.662,1.779-20.486
	c0.136-1.43-0.305-1.797-1.703-1.775c-5.175,0.077-10.353,0.029-15.617-0.313c4.208-1.852,8.415-3.705,12.624-5.555
	c0.067-0.029,0.15-0.019,0.221-0.042c5.06-1.661,6.175-3.393,5.943-8.794c-0.059-1.372-0.865-1.148-1.657-1.148
	c-5.13-0.001-10.26,0.017-15.39,0.015C-903.88,199.064-904.707,198.999-905.535,198.964"/>
<path fill="#3E0154" d="M-835.459,374.29c0,38.786-31.442,70.229-70.229,70.229c-38.786,0-70.229-31.443-70.229-70.229
	s31.443-70.229,70.229-70.229C-866.902,304.062-835.459,335.504-835.459,374.29z M-890.095,393.98
	c1.464,0.206,2.308-0.108,2.417-1.869c0.107-1.694,0.766-3.351,0.937-5.048c0.129-1.289,0.726-1.457,1.807-1.431
	c2.183,0.054,4.37,0.038,6.554-0.025c6.014-0.172,10.836-3.937,12.53-9.732c2.304-7.884-1.43-12.933-9.624-12.981
	c-3.907-0.023-7.816,0.057-11.72-0.04c-1.281-0.031-1.688,0.417-1.912,1.601c-1.662,8.749-3.381,17.488-5.097,26.229
	c-0.646,3.292-0.663,3.288,2.719,3.288C-891.02,393.971-890.549,393.917-890.095,393.98z M-881.95,380.812
	c6.635,0.348,9.463-2.626,9.644-8.939c0.064-2.259-0.797-3.228-2.961-3.803c-2.287-0.607-4.617-0.239-6.925-0.354
	c-0.889-0.044-0.851,0.572-0.962,1.168c-0.525,2.793-1.07,5.582-1.629,8.367C-885.501,380.817-885.51,380.815-881.95,380.812z
	 M-940.608,362.871c-0.988-0.024-1.278,0.289-1.47,1.308c-1.611,8.558-3.312,17.1-5.013,25.642c-0.828,4.156-0.855,4.15,3.453,4.15
	c0.397,0,0.804-0.056,1.19,0.011c1.152,0.197,1.483-0.44,1.64-1.42c0.28-1.76,0.658-3.503,0.944-5.261
	c0.191-1.178,0.615-1.787,2.012-1.69c2.107,0.146,4.236,0.062,6.354-0.004c6.363-0.198,11.477-4.438,12.878-10.627
	c1.643-7.256-2.053-11.978-9.472-12.081c-1.92-0.027-3.841-0.005-5.761-0.007C-936.104,362.889-938.357,362.927-940.608,362.871z
	 M-935.083,380.812c6.611,0.333,9.505-2.429,9.764-9.046c0.078-1.989-0.969-3.183-2.906-3.686c-2.092-0.543-4.222-0.197-6.319-0.396
	c-1.246-0.117-1.606,0.436-1.798,1.468c-0.521,2.789-1.094,5.568-1.621,8.357C-938.585,380.812-938.573,380.813-935.083,380.812z
	 M-911.713,354.548c-0.902-0.036-1.201,0.21-1.371,1.144c-0.774,4.289-1.679,8.555-2.514,12.834
	c-1.105,5.665-2.19,11.333-3.308,17.127c1.917,0,3.642-0.086,5.352,0.03c1.142,0.077,1.412-0.41,1.591-1.399
	c0.676-3.704,1.479-7.385,2.164-11.088c1.093-5.908,1.372-6.129,7.445-5.322c2.585,0.345,3.297,1.306,2.806,3.907
	c-0.539,2.855-1.167,5.694-1.675,8.555c-0.306,1.725-1.59,4.059-0.643,5.004c0.912,0.911,3.375,0.233,5.153,0.33
	c0.866,0.046,1.276-0.156,1.446-1.101c0.861-4.811,1.955-9.584,2.667-14.414c0.619-4.203-1.015-6.084-5.179-6.926
	c-3.283-0.664-6.605-0.074-9.992-0.447c0.519-2.702,1.027-5.345,1.577-8.212C-908.141,354.569-909.93,354.62-911.713,354.548z"/>
<path fill="#590375" d="M61.818,760.185l-27.066,27.067c-1.892,1.891-5.442,1.403-7.932-1.086l-11.269-11.269
	c-2.491-2.49-2.977-6.041-1.085-7.932l27.688-27.688l1.271-1.324l-28.959-29.012c-1.89-1.89-1.404-5.44,1.086-7.932l11.269-11.269
	c2.489-2.489,6.041-2.976,7.93-1.085l28.962,28.965l1.108-1.012l27.952-27.953c1.892-1.89,5.442-1.404,7.933,1.085l11.269,11.27
	c2.489,2.49,2.976,6.041,1.085,7.931L84.082,737.92l1.655,1.724l27.322,27.321c1.891,1.892,1.404,5.442-1.085,7.932l-11.269,11.27
	c-2.49,2.49-6.041,2.976-7.932,1.085l-28.933-28.933L61.818,760.185z"/>
<path fill="#3E0154" d="M114.212,636.313c0,28.273-22.921,51.193-51.193,51.193c-28.273,0-51.193-22.92-51.193-51.193
	s22.92-51.193,51.193-51.193C91.291,585.119,114.212,608.039,114.212,636.313z M63.019,609.695c-14.7,0-26.617,11.916-26.617,26.616
	s11.917,26.617,26.617,26.617s26.616-11.917,26.616-26.617S77.719,609.695,63.019,609.695z"/>
<path d="M7.679,681.21c0.505,0.322,1.006,0.648,1.502,0.979c19.476,12.979,31.932,32.849,31.932,55.122
	c0,39.103-45.064,59.824-85.751,59.824H-60.14h-80.52c-3.225,0-5.839-2.614-5.839-5.839V583.305c0-3.225,2.614-5.839,5.839-5.839
	h80.52h15.501c44.94,0,81.373,26.302,81.373,58.749c0,17.092-10.108,32.477-26.245,43.214L7.679,681.21z M-74.196,647.791
	c11.555,0,36.006,3.893,36.006-11.678c0-14.596-24.451-11.677-36.006-11.677V647.791z M-74.196,743.948
	c15.299,0,47.672,5.154,47.672-15.461c0-19.327-32.374-15.462-47.672-15.462V743.948z"/>
<g>
	<polygon fill="#3E0154" points="531.794,218.146 489.614,175.973 530.632,134.953 535.048,139.428 498.405,176.072 
		536.144,213.807 	"/>
	<polygon fill="#3E0154" points="547.374,216.35 574.364,120.426 580.396,122.192 553.604,218.146 	"/>
	<polygon fill="#3E0154" points="591.62,213.807 629.358,176.072 592.724,139.428 597.135,134.953 638.149,175.973 595.974,218.146 
			"/>
</g>
<g>
	<path fill="#3E0154" d="M752.236,214.446c-14.707,0.14-26.498-4.489-27.396-26.497c-0.895-22.008,12.537-26.482,27.396-26.497
		C758.295,160.438,755.279,214.287,752.236,214.446z"/>
	<path fill="#3E0154" d="M830.52,214.446c14.707,0.14,26.496-4.489,27.393-26.497c0.9-22.008-12.537-26.482-27.393-26.497
		C824.463,160.438,827.479,214.287,830.52,214.446z"/>
	<path fill="#3E0154" d="M834.615,173.396c0-29.572-15.248-53.546-44.822-53.546c-29.572,0-41.451,23.974-41.451,53.546h-6.033
		c0-32.902,14.58-59.578,47.484-59.578c32.902,0,50.854,26.676,50.854,59.578"/>
	<path fill="#3E0154" d="M799.027,232.642c29.57,0,36.633-5.724,36.633-35.296h3.391c0.549,33.484-10.158,38.869-40.023,38.869"/>
	<path fill="#3E0154" d="M810.037,234.199c0,3.578-2.902,6.484-6.484,6.484h-4.977c-3.582,0-6.486-2.906-6.486-6.484l0,0
		c0-3.583,2.904-6.484,6.486-6.484h4.977C807.135,227.715,810.037,230.616,810.037,234.199L810.037,234.199z"/>
</g>
<g>
	<path fill-rule="evenodd" clip-rule="evenodd" fill="#00A88E" d="M735.137,928.376c0.223-2.919,1.396-5.447,3.174-7.729
		c1.684-2.162,3.387-4.309,4.734-6.709c1.854-3.298,3.113-6.828,4.146-10.449c0.021-0.08,0.002-0.183,0.17-0.251
		c0.539,0.774,1.088,1.56,1.633,2.349c2.967,4.308,5.799,8.699,8.131,13.393c1.5,3.021,2.781,6.127,3.357,9.473
		c0.496,2.888,0.408,5.717-1.135,8.329c-1.186,2.011-2.959,3.372-5.021,4.392c-1.564,0.773-3.195,1.354-4.926,1.623
		c-0.18,0.028-0.455,0.212-0.551-0.105c-0.09-0.299,0.008-0.538,0.322-0.705c0.727-0.388,1.432-0.811,2.146-1.22
		c1.195-0.683,2.391-1.368,3.59-2.047c0.359-0.204,0.666-0.447,0.646-0.906c-0.031-0.689-0.732-1.028-1.391-0.659
		c-1.311,0.736-2.613,1.491-3.918,2.238c-0.357,0.205-0.717,0.405-1.068,0.617c-0.229,0.137-0.354,0.146-0.35-0.181
		c0.01-0.914,0.012-1.829-0.002-2.742c-0.004-0.295,0.188-0.401,0.391-0.52c1.252-0.729,2.504-1.459,3.758-2.188
		c0.123-0.072,0.25-0.14,0.371-0.217c0.477-0.309,0.619-0.755,0.385-1.188c-0.23-0.429-0.773-0.573-1.262-0.298
		c-1.014,0.572-2.014,1.166-3.021,1.749c-0.18,0.104-0.367,0.198-0.615,0.333c0-0.974,0.006-1.863-0.004-2.753
		c-0.004-0.275,0.188-0.363,0.371-0.47c0.885-0.511,1.77-1.018,2.65-1.531c0.623-0.364,0.807-0.869,0.51-1.375
		c-0.299-0.508-0.814-0.606-1.447-0.254c-0.563,0.313-1.119,0.638-1.67,0.973c-0.332,0.202-0.424,0.113-0.416-0.257
		c0.016-0.914,0.01-1.829,0.004-2.743c-0.006-0.79-0.381-1.234-1.029-1.238c-0.639-0.004-1.041,0.458-1.045,1.229
		c-0.008,1.056-0.002,2.112-0.002,3.276c-0.564-0.324-1.066-0.613-1.57-0.901c-0.279-0.16-0.551-0.333-0.84-0.473
		c-0.525-0.254-1.051-0.091-1.295,0.381c-0.225,0.432-0.068,0.978,0.395,1.254c0.969,0.577,1.943,1.146,2.928,1.694
		c0.291,0.162,0.396,0.355,0.389,0.684c-0.021,0.799-0.006,1.599-0.006,2.498c-0.76-0.441-1.434-0.834-2.109-1.225
		c-0.541-0.315-1.08-0.635-1.627-0.941c-0.506-0.286-1.02-0.189-1.279,0.226c-0.283,0.454-0.143,0.938,0.406,1.263
		c1.389,0.818,2.777,1.633,4.182,2.424c0.326,0.185,0.445,0.4,0.434,0.769c-0.023,0.823-0.021,1.648,0,2.473
		c0.01,0.395-0.096,0.425-0.416,0.239c-1.625-0.939-3.26-1.867-4.891-2.799c-0.59-0.337-1.094-0.272-1.365,0.174
		c-0.289,0.476-0.102,0.969,0.51,1.318c1.91,1.096,3.822,2.188,5.73,3.284c0.164,0.094,0.365,0.146,0.422,0.378
		c0.109,0.456-0.014,0.626-0.5,0.584c-2.615-0.229-4.861-1.286-6.74-3.103c-2.711-2.621-4.061-5.876-4.375-9.598
		c-0.105-0.244,0.047-0.519-0.09-0.759c0-0.107,0-0.215,0-0.322C735.182,928.895,735.029,928.619,735.137,928.376z"/>
	<path fill-rule="evenodd" clip-rule="evenodd" fill="#00A88E" d="M753.887,949.223c0.723-0.803,1.34-1.493,1.963-2.18
		c0.334-0.366,0.711-0.623,1.227-0.365c0.549,0.272,0.68,0.873,0.277,1.344c-0.303,0.353-0.621,0.697-0.969,1.005
		c-0.375,0.333-0.439,0.602-0.08,1.019c0.523,0.609,0.98,1.278,1.451,1.932c0.436,0.603,0.404,1.171-0.061,1.523
		c-0.469,0.354-1.074,0.191-1.508-0.412c-0.438-0.611-0.859-1.234-1.307-1.837c-0.115-0.154-0.184-0.493-0.428-0.382
		c-0.273,0.125-0.57,0.322-0.566,0.715c0.004,0.34,0.004,0.681,0,1.021c-0.008,0.741-0.309,1.076-0.959,1.073
		c-0.646-0.002-0.941-0.331-0.945-1.092c-0.006-2.114-0.002-4.229,0-6.342c0-0.43-0.018-0.861,0.006-1.29
		c0.033-0.612,0.381-0.931,0.963-0.919c0.58,0.012,0.928,0.345,0.932,0.946C753.895,946.34,753.887,947.698,753.887,949.223z"/>
	<path fill-rule="evenodd" clip-rule="evenodd" fill="#00A88E" d="M739.594,947.665c0.766-0.905,1.682-1.246,2.775-1.043
		c1.092,0.203,1.766,0.917,1.809,2.024c0.051,1.395,0.033,2.794,0.014,4.191c-0.006,0.573-0.352,0.843-0.957,0.84
		c-0.602-0.003-0.916-0.273-0.93-0.869c-0.025-1.182,0.01-2.365-0.045-3.545c-0.043-0.92-0.863-1.365-1.695-0.965
		c-0.547,0.263-0.838,0.703-0.836,1.326c0.004,1.003,0.016,2.007-0.006,3.01c-0.018,0.82-0.428,1.152-1.205,1.028
		c-0.516-0.082-0.73-0.392-0.734-1.128c-0.008-1.595-0.006-3.189,0-4.784c0.002-0.789,0.25-1.135,0.805-1.173
		C739.172,946.537,739.426,946.796,739.594,947.665z"/>
	<path fill-rule="evenodd" clip-rule="evenodd" fill="#00A88E" d="M746.787,952.906c0,0.757,0.006,1.502-0.002,2.248
		c-0.006,0.688-0.287,0.99-0.902,0.999c-0.682,0.01-0.994-0.267-0.996-0.965c-0.012-2.561-0.01-5.122,0-7.683
		c0.002-0.617,0.227-0.871,0.742-0.937c0.533-0.066,0.822,0.184,1.045,0.933c0.912-1.081,2.02-1.145,3.223-0.627
		c0.564,0.243,0.971,0.676,1.229,1.226c0.607,1.302,0.65,2.639,0.059,3.946c-0.803,1.773-2.805,2.174-4.262,0.894
		C746.9,952.921,746.859,952.924,746.787,952.906z M749.33,948.769c-0.572-0.938-1.867-0.926-2.352,0.048
		c-0.451,0.903-0.434,1.846,0.066,2.725c0.508,0.892,1.795,0.853,2.295-0.043c0.232-0.415,0.305-0.872,0.322-1.328
		C749.652,949.67,749.588,949.193,749.33,948.769z"/>
</g>
<path fill-rule="evenodd" clip-rule="evenodd" fill="#7C1A3B" d="M729.053,579.193c0.424-1.19,0.815-2.395,1.28-3.569
	c1.792-4.521,4.871-7.896,9.148-10.196c1.716-0.922,3.475-1.137,5.296-0.364c1.554,0.657,2.231,1.918,2.079,3.614
	c-1.155,12.891-3.029,25.695-4.584,38.539c-0.314,2.599-1.073,5.099-1.635,7.644c-0.114,0.514-0.298,0.934-0.883,0.952
	c-0.597,0.02-0.803-0.437-0.944-0.913c-1.006-3.357-1.225-6.779-0.846-10.254c0.767-7.018,1.823-13.99,3.141-20.926
	c0.232-1.223,0.32-2.479,0.271-3.754c-0.496-0.101-0.702,0.328-0.993,0.553c-1.866,1.442-3.754,2.835-6.099,3.432
	c-2.559,0.649-3.963,0.094-5.232-2.105C729.053,580.962,729.053,580.077,729.053,579.193z M751.101,567.945
	c-0.971,0.152-1.602,0.69-1.885,1.627c-1.181,3.91-2.22,7.856-2.509,11.945c-0.472,6.658-0.019,13.301,0.542,19.931
	c0.135,1.601,0.216,3.229,0.739,4.78c0.177,0.521,0.389,0.994,1.021,0.97c0.637-0.023,0.998-0.441,1.132-1.03
	c0.333-1.466,0.79-2.917,0.737-4.442c-0.18-5.249,0.427-10.518-0.391-15.752c-0.151-0.965,0.156-1.588,1.184-2.03
	c3.946-1.695,7.859-3.478,11.276-6.156c1.318-1.032,2.479-2.192,3.207-3.725c1.269-2.676,0.479-4.656-2.299-5.687
	c-2.166-0.805-4.432-1.008-6.724-1.005C755.104,567.369,753.1,567.628,751.101,567.945z M741.987,568.502
	c-0.744-0.299-1.143,0.281-1.612,0.661c-0.284,0.232-0.556,0.479-0.823,0.73c-2.51,2.34-4.421,5.077-5.52,8.35
	c-0.357,1.066,0.049,1.711,1.011,1.603c3.134-0.351,6.328-3.211,7.011-6.348c0.241-1.104,0.345-2.241,0.511-3.364
	C742.546,568.886,742.496,568.706,741.987,568.502z M751.761,580.103c2.453-1.065,4.944-2.047,7.194-3.527
	c1.455-0.956,2.773-2.064,3.693-3.569c0.677-1.106,0.408-1.723-0.855-1.931c-2.473-0.41-4.957-0.489-7.451-0.168
	c-0.681,0.089-1.152,0.388-1.448,1.015c-1.12,2.377-1.797,4.879-2.148,7.728C750.737,580.145,751.015,580.427,751.761,580.103z"/>
<path fill-rule="evenodd" clip-rule="evenodd" fill="#FD0000" d="M747.8,733.915c1.58,0.015,2.911,1.396,2.909,3.023
	c-0.002,1.678-1.361,3.042-3.003,3.012c-1.608-0.03-2.854-1.377-2.834-3.063C744.892,735.217,746.188,733.9,747.8,733.915z"/>
<g>
	<path fill-rule="evenodd" clip-rule="evenodd" fill="#5A9CFD" d="M774.501,761.107c-0.155,5.84-2.1,11.03-5.677,15.626
		c-0.448,0.576-0.957,1.105-1.431,1.661c-0.132,0.156-0.237,0.336-0.318,0.452c-0.458-0.121-0.469-0.429-0.563-0.645
		c-4.496-10.317-8.983-20.639-13.471-30.959c-0.472-1.084-0.47-1.085,0.671-1.085c1.083,0,2.168-0.033,3.248,0.012
		c0.815,0.033,1.067-0.302,1.058-1.091c-0.033-2.839,0.009-5.679-0.027-8.518c-0.01-0.765,0.191-0.835,0.832-0.525
		c9.091,4.39,14.311,11.563,15.579,21.594c0.073,0.583,0.14,1.161,0.091,1.748C774.422,759.955,774.409,760.53,774.501,761.107z"/>
	<path fill-rule="evenodd" clip-rule="evenodd" fill="#5A9CFD" d="M737.503,745.53c0.143,0.531,0.574,0.511,0.987,0.512
		c1.171,0.004,2.342,0.001,3.513,0.001c1.143,0,1.145,0.001,0.675,1.093c-1.468,3.41-2.939,6.818-4.404,10.229
		c-3.011,7.011-6.019,14.021-9.028,21.031c-0.057,0.134-0.125,0.263-0.233,0.486c-1.255-1.127-2.238-2.419-3.146-3.763
		c-3.26-4.827-4.866-10.146-4.537-15.981c0.608-10.759,5.937-18.387,15.517-23.148c0.155-0.077,0.331-0.108,0.497-0.162
		c0.18,0.267,0.093,0.569,0.094,0.854c0.007,2.66,0.002,5.32,0.007,7.981C737.443,744.952,737.39,745.248,737.503,745.53z"/>
	<path fill-rule="evenodd" clip-rule="evenodd" fill="#5A9CFD" d="M745.935,766.794c0,4.986,0,9.975,0,14.962
		c-0.07,0.017-0.141,0.032-0.211,0.047c-0.448-1.027-0.901-2.052-1.345-3.082c-1.805-4.188-3.605-8.378-5.412-12.564
		c-0.166-0.385-0.266-0.728-0.076-1.165c2.271-5.261,4.544-10.519,7.047-15.972c0,4.984,0,9.721,0,14.455
		c-0.136,0.573-0.027,1.155-0.062,1.732C745.908,765.735,745.807,766.269,745.935,766.794z"/>
	<path fill-rule="evenodd" clip-rule="evenodd" fill="#5A9CFD" d="M749.645,781.771c0-10.821,0-21.613,0-32.419
		c0.303,0.058,0.313,0.328,0.397,0.522c2.188,5.012,4.37,10.026,6.557,15.039c0.154,0.354,0.244,0.668,0.066,1.074
		c-2.234,5.086-4.446,10.185-6.673,15.275C749.918,781.432,749.912,781.665,749.645,781.771z"/>
	<path fill-rule="evenodd" clip-rule="evenodd" fill="#5A9CFD" d="M758.807,770.012c0.88,2.016,1.667,3.825,2.456,5.633
		c0.747,1.713,1.488,3.431,2.249,5.138c0.161,0.362,0.198,0.598-0.187,0.874c-3.284,2.351-6.905,3.9-10.876,4.635
		c-0.193,0.035-0.398,0.005-0.721,0.005C754.084,780.878,756.404,775.54,758.807,770.012z"/>
	<path fill-rule="evenodd" clip-rule="evenodd" fill="#5A9CFD" d="M736.741,770.034c2.373,5.52,4.664,10.848,6.994,16.268
		c-1.052,0.008-1.912-0.272-2.779-0.498c-3.09-0.801-5.93-2.139-8.524-3.992c-0.255-0.182-0.64-0.286-0.414-0.804
		C733.581,777.42,735.116,773.819,736.741,770.034z"/>
	<path fill-rule="evenodd" clip-rule="evenodd" fill="#F1F3E0" d="M737.503,745.53c-0.251-0.275-0.142-0.613-0.143-0.924
		c-0.013-2.926-0.014-5.852-0.018-8.778c0.308-0.014,0.182,0.229,0.182,0.354C737.524,739.298,737.513,742.414,737.503,745.53z"/>
	<path fill-rule="evenodd" clip-rule="evenodd" fill="#F1F3E0" d="M745.791,765.222c0.065-0.581-0.151-1.186,0.146-1.747
		c0,0.583,0,1.166,0,1.747C745.889,765.298,745.84,765.302,745.791,765.222z"/>
	<path fill-rule="evenodd" clip-rule="evenodd" fill="#F1F3E0" d="M745.791,765.222c0.049,0,0.098,0,0.146,0
		c-0.002,0.524-0.002,1.048-0.003,1.572C745.639,766.292,745.859,765.743,745.791,765.222z"/>
</g>
<g>
	<path fill-rule="evenodd" clip-rule="evenodd" fill="#510541" d="M731.355,670.116c0.282,2.538,0.443,5.092,0.982,7.598
		c0.086,0.394,0.249,0.901-0.232,1.113c-0.483,0.213-0.694-0.304-0.971-0.583c-4.057-4.097-6.164-9.247-7.887-14.604
		c-0.146-0.453-0.276-0.909-0.43-1.359c-0.031-0.094-0.129-0.165-0.292-0.362c-0.29,5.73,0.305,11.387-0.393,17.105
		c-0.642-0.324-0.519-0.714-0.51-1.024c0.161-5.415-0.019-10.826-0.14-16.238c-0.011-0.476-0.006-0.955,0.046-1.426
		c0.038-0.342,0.097-0.749,0.521-0.833c0.435-0.086,0.634,0.266,0.776,0.591c0.384,0.87,0.775,1.738,1.102,2.63
		c1.533,4.196,3.355,8.26,5.569,12.143c0.371,0.65,0.668,1.382,1.45,1.878c-0.551-4.288-0.247-8.486-0.207-12.68
		c0.804,0.073,0.455,0.702,0.479,1.089C731.322,666.806,731.098,668.467,731.355,670.116z"/>
	<path fill-rule="evenodd" clip-rule="evenodd" fill="#510541" d="M740.212,663.105c-0.713,4.011-0.106,7.515,0.554,11
		c0.64,3.38,2.05,6.55,2.617,9.979c0.821,4.966,0.379,9.819-0.533,14.688c-0.109,0.586-0.227,1.159-1.102,1.495
		c0.283-2.573,0.63-5.01,0.805-7.459c0.364-5.141-0.223-10.184-1.836-15.09c-1.294-3.931-1.996-7.945-1.779-12.096
		C738.979,664.835,738.874,663.971,740.212,663.105z"/>
	<path fill-rule="evenodd" clip-rule="evenodd" fill="#510541" d="M736.46,700.403c-0.4-0.639-0.098-1.172,0.021-1.643
		c1.882-7.458,1.063-14.749-1.211-21.98c-1.113-3.541-1.772-7.17-1.53-10.906c0.051-0.787-0.106-1.671,0.894-2.586
		c-0.231,3.58,0.356,6.796,0.956,10.002c0.807,4.319,2.515,8.43,2.869,12.87c0.336,4.2,0.086,8.326-0.877,12.414
		C737.426,699.237,737.383,700.011,736.46,700.403z"/>
	<path fill-rule="evenodd" clip-rule="evenodd" fill="#510541" d="M759.205,664.084c1.471-0.022,2.543,0.739,2.645,2.062
		c0.3,3.912,0.384,7.841,0.535,11.764c0.004,0.132-0.183,0.271-0.291,0.421c-0.756-0.305-0.598-0.979-0.676-1.516
		c-0.393-2.719-0.424-5.463-0.428-8.2C760.988,666.86,760.638,665.323,759.205,664.084z"/>
	<path fill-rule="evenodd" clip-rule="evenodd" fill="#510541" d="M731.355,670.116c-0.622-1.235-0.152-2.555-0.299-3.827
		c-0.086-0.745,0.228-1.545-0.314-2.225c-0.102-4.968,0.497-9.887,1.116-14.812c0.545,3.474-0.253,6.897-0.408,10.346
		C731.293,663.099,731.377,666.609,731.355,670.116z"/>
	<path fill-rule="evenodd" clip-rule="evenodd" fill="#510541" d="M750.912,664.094c1.582,0.185,2.713,1.272,2.672,3.084
		c-0.078,3.505,0.033,6.994,0.268,10.501C751.783,673.382,753.76,668.216,750.912,664.094z"/>
	<path fill-rule="evenodd" clip-rule="evenodd" fill="#510541" d="M744.178,664.348c0.278,4.582,1.188,9.079,1.415,13.647
		C743.591,673.61,743.739,668.982,744.178,664.348z"/>
	<path fill-rule="evenodd" clip-rule="evenodd" fill="#510541" d="M771.654,664.818c3.468,3.295,3.504,10.385,0.365,12.065
		C773.871,672.948,773.962,669.045,771.654,664.818z"/>
	<path fill-rule="evenodd" clip-rule="evenodd" fill="#510541" d="M765.721,677.566c-3.666-2.073-4.098-10.432-0.22-12.79
		C762.829,669.163,763.144,673.28,765.721,677.566z"/>
</g>
<path fill-rule="evenodd" clip-rule="evenodd" fill="#D64141" d="M733.414,841.889c0.205-0.076,0.436-0.268,0.628-0.112
	c0.187,0.151,0.088,0.424,0.035,0.639c-0.146,0.582-0.18,1.172-0.142,1.764c0.052,0.825,0.154,0.872,0.83,0.431
	c0.535-0.348,0.805-0.218,0.891,0.432c0.039,0.304,0.058,0.609,0.105,0.911c0.077,0.48,0.227,0.717,0.802,0.438
	c0.959-0.459,1.587-0.067,1.716,0.975c0.061,0.485,0.139,0.971,0.172,1.459c0.025,0.384,0.18,0.512,0.57,0.501
	c0.999-0.028,2-0.019,3-0.005c0.34,0.005,0.615-0.067,0.898-0.286c0.717-0.556,1.671-0.558,2.391-0.018
	c0.299,0.223,0.594,0.309,0.958,0.306c1.286-0.016,2.573,0.011,3.86-0.018c0.407-0.008,0.962,0.268,1.156-0.416
	c0.015-0.049,0.185-0.072,0.283-0.078c1.407-0.046,2.849-0.431,4.166,0.429c0.109,0.07,0.274,0.073,0.414,0.073
	c1.286,0.005,2.572-0.003,3.859,0.008c0.297,0.002,0.441-0.075,0.465-0.402c0.063-0.854,0.195-1.701,0.234-2.559
	c0.143-3.09,0.041-6.159-1-9.124c-0.541-1.543-1.209-3.028-1.933-4.49c-0.218-0.441-0.155-0.667,0.386-0.734
	c0.292-0.039,0.646,0.022,0.941-0.271c-0.757-0.446-1.548-0.732-2.223-1.23c-1.117-0.823-2.26-1.61-3.38-2.428
	c-1.333-0.972-2.794-1.579-4.454-1.691c-0.652-0.041-0.701-0.135-0.445-0.763c0.275-0.678,0.435-1.358,0.193-2.083
	c-0.127-0.379-0.277-0.612-0.646-0.187c-0.146,0.169-0.338,0.296-0.511,0.438c-0.392,0.324-0.571,0.195-0.598-0.277
	c-0.027-0.473-0.14-0.928-0.371-1.346c-0.072-0.132-0.102-0.351-0.309-0.322c-0.157,0.021-0.176,0.211-0.223,0.338
	c-0.16,0.439-0.273,0.898-0.534,1.296c-0.074,0.114-0.133,0.283-0.315,0.221c-0.131-0.047-0.137-0.189-0.146-0.312
	c-0.041-0.429-0.051-0.859-0.129-1.277c-0.209-1.122-0.609-2.163-1.4-3.163c-0.037,0.226-0.051,0.322-0.069,0.415
	c-0.239,1.263-0.457,2.529-1.144,3.654c-0.247,0.404-0.495,0.581-0.891,0.161c-0.262-0.275-0.486-0.33-0.543,0.163
	c-0.078,0.668-0.394,1.223-0.795,1.758c-1.006,1.332-2.116,2.597-2.852,4.119c-0.478,0.986-0.651,2.007-0.324,3.084
	c0.086,0.278,0.39,0.593,0.149,0.85c-0.229,0.244-0.52-0.07-0.776-0.146c-0.394-0.114-0.461,0.06-0.339,0.371
	c0.112,0.283,0.259,0.554,0.414,0.815c0.17,0.286,0.09,0.408-0.224,0.434c-0.209,0.019-0.496-0.088-0.561,0.221
	c-0.053,0.258,0.191,0.385,0.346,0.54c0.071,0.07,0.152,0.133,0.23,0.2c0.365,0.304,0.344,0.574-0.072,0.805
	c-0.501,0.281-0.979,0.59-1.41,0.969c-1.412,1.244-2.037,2.797-1.868,4.755C733.115,842.021,733.262,841.945,733.414,841.889z
	 M738.125,865.038c0.059,1.345,0.125,2.688,0.17,4.032c0.018,0.488,0.143,0.795,0.717,0.639c0.096-0.025,0.205-0.021,0.306-0.013
	c0.32,0.031,0.406-0.08,0.379-0.421c-0.188-2.376-0.349-4.757-0.526-7.136c-0.063-0.854-0.082-0.786-0.967-0.877
	c-0.761-0.078-1.075,0.221-1.311,0.893c-0.367,1.047-0.834,2.057-1.32,3.23c-0.488-1.221-0.914-2.288-1.34-3.354
	c-0.227-0.569-1.006-1.063-1.539-0.826c-0.436,0.192-0.081,0.717-0.164,1.083c-0.025,0.114,0.01,0.244,0.009,0.366
	c-0.001,0.158,0.046,0.296,0.21,0.33c0.432,0.083,0.381,0.396,0.364,0.709c-0.097,1.771-0.186,3.541-0.279,5.31
	c-0.027,0.496,0.178,0.67,0.586,0.507c0.265-0.106,0.189-0.33,0.202-0.522c0.091-1.313,0.18-2.63,0.275-4.051
	c0.088,0.148,0.119,0.18,0.127,0.213c0.212,1.019,0.42,2.036,0.633,3.052c0.279,1.334,0.28,1.318,1.643,1.301
	c0.379-0.006,0.541-0.138,0.625-0.499c0.318-1.368,0.662-2.729,0.996-4.095C738.065,864.83,738.09,864.941,738.125,865.038z
	 M754.73,852.185c0.86-0.239,1.334-0.808,1.289-1.548c-0.049-0.789-0.585-1.397-1.434-1.509c-0.891-0.114-1.791-0.067-2.687,0.028
	c-0.311,0.031-0.391,0.172-0.388,0.479c0.017,2.428,0.027,4.855,0.008,7.283c-0.006,0.476,0.154,0.571,0.593,0.582
	c0.478,0.013,0.579-0.158,0.571-0.601c-0.027-1.326-0.013-2.651-0.006-3.978c0.001-0.172-0.085-0.405,0.104-0.504
	c0.195-0.104,0.396,0.018,0.563,0.146c0.306,0.231,0.387,0.553,0.36,0.922c-0.122,1.771-0.097,3.547-0.089,5.32
	c0.003,0.85,0.408,1.399,1.22,1.615c0.41,0.109,0.844,0.133,1.269,0.182c0.105,0.011,0.266,0.07,0.312-0.088
	c0.044-0.153-0.03-0.302-0.192-0.333c-0.856-0.158-0.849-0.825-0.849-1.464c0-1.429,0.008-2.856,0.042-4.282
	c0.02-0.875-0.191-1.615-1.109-2.135C754.539,852.236,754.635,852.21,754.73,852.185z M744.383,860.333
	c-0.06-0.351-0.214-0.463-0.568-0.447c-0.651,0.031-1.305,0.008-1.957,0.008c-1.225,0-1.228,0-1.117,1.187
	c0.029,0.33-0.031,0.735,0.514,0.709c0.157-0.005,0.177,0.133,0.15,0.271c-0.046,0.239-0.081,0.48-0.121,0.722
	c-0.311,1.847-0.611,3.695-0.937,5.539c-0.067,0.387,0.03,0.496,0.423,0.488c0.434-0.008,0.531-0.221,0.592-0.598
	c0.255-1.607,0.267-1.597,1.637-1.545c0.297,0.013,0.442,0.088,0.474,0.402c0.046,0.444,0.137,0.886,0.193,1.327
	c0.031,0.255,0.118,0.426,0.411,0.423c0.586-0.005,1.172-0.002,1.789-0.002C745.361,865.947,744.865,863.143,744.383,860.333z
	 M734.096,855.688c0,0.794,0.016,1.592-0.004,2.386c-0.029,1.185-0.039,1.166,1.156,1.177c0.455,0.005,0.595-0.125,0.588-0.587
	c-0.024-1.856-0.01-3.716-0.01-5.572c0-1.185-0.002-1.189,1.167-1.408c0.264-0.046,0.484-0.091,0.484-0.42
	c-0.001-0.616-0.001-1.226,0-1.839c0.001-0.216-0.103-0.275-0.31-0.26c-1.566,0.138-3.138,0.143-4.709,0.07
	c-0.303-0.016-0.446,0.072-0.438,0.408c0.02,0.714,0.022,1.431,0,2.145c-0.012,0.348,0.129,0.405,0.434,0.376
	c0.447-0.044,0.897-0.03,1.344-0.072c0.428-0.042,0.506,0.163,0.499,0.54c-0.02,1.018-0.008,2.038-0.008,3.057
	C734.227,855.688,734.16,855.688,734.096,855.688z M753.46,861.556c0.007-0.434-0.085-0.659-0.56-0.6
	c-0.121,0.016-0.25,0.023-0.365-0.005c-0.505-0.125-0.568,0.127-0.564,0.555c0.011,1.244-0.032,2.485-0.025,3.729
	c0.002,0.379-0.081,0.556-0.5,0.54c-0.425-0.021-0.855,0.016-1.279,0.07c-0.745,0.094-1.168,0.573-1.163,1.321
	c0.007,0.896,0.028,1.792,0.065,2.688c0.03,0.74,0.45,1.146,1.212,1.164c0.835,0.022,1.673,0,2.506,0.033
	c0.45,0.016,0.53-0.15,0.516-0.579c-0.052-1.485-0.118-2.973,0.146-4.458C753.448,864.529,753.433,863.041,753.46,861.556z
	 M746.343,863.656c0,1.262,0.021,2.524-0.011,3.786c-0.013,0.48,0.242,0.47,0.57,0.457c0.3-0.008,0.6,0.075,0.596-0.431
	c-0.01-1.161,0.023-2.322,0.082-3.482c0.017-0.324-0.252-0.831,0.214-0.945c0.423-0.104,0.454,0.441,0.608,0.717
	c0.744,1.313,0.732,1.306,2.213,1.275c0.39-0.011,0.477-0.136,0.473-0.496c-0.017-1.488-0.006-2.977-0.008-4.464
	c0-0.26,0.068-0.563-0.377-0.509c-0.346,0.044-0.725-0.045-0.678,0.553c0.082,1.016,0.09,2.036,0.121,3.054
	c0.006,0.169,0.104,0.395-0.141,0.473c-0.271,0.086-0.355-0.143-0.43-0.327c-0.305-0.756-0.725-1.49-0.867-2.277
	c-0.225-1.254-0.971-1.553-2.08-1.524c-0.381,0.011-0.53,0.05-0.521,0.476c0.029,1.22,0.011,2.443,0.011,3.666
	C746.193,863.656,746.269,863.656,746.343,863.656z M746.118,854.105c0-0.529,0.003-1.06-0.001-1.589
	c-0.004-0.551,0.034-1.101-0.065-1.649c-0.212-1.15-0.938-1.861-1.923-1.877c-1.092-0.021-1.8,0.582-2.051,1.786
	c-0.051,0.247-0.314,0.696,0.231,0.676c0.407-0.011,1.06,0.532,1.206-0.364c0.062-0.368,0.224-0.615,0.619-0.623
	c0.4-0.01,0.669,0.197,0.75,0.585c0.07,0.337,0.087,0.686,0.131,1.028c0.039,0.301-0.063,0.441-0.396,0.434
	c-0.446-0.011-0.899-0.006-1.342,0.052c-0.768,0.101-1.145,0.529-1.138,1.265c0.009,0.938,0.028,1.875,0.063,2.813
	c0.022,0.612,0.383,0.991,0.994,1.02c0.692,0.029,1.387,0.031,2.079,0.011c0.717-0.021,0.891-0.21,0.899-0.935
	c0.012-0.878,0.004-1.753,0.004-2.631C746.159,854.105,746.139,854.105,746.118,854.105z M747.193,857.092
	c0.101,0.969,0.533,1.449,1.451,1.584c0.889,0.133,1.531-0.244,1.867-1.111c0.17-0.438,0.264-0.9,0.238-1.376
	c-0.037-0.729-0.627-0.397-0.978-0.468c-0.454-0.086-0.263,0.283-0.251,0.483c0.016,0.272-0.004,0.529-0.098,0.781
	c-0.077,0.205-0.207,0.361-0.436,0.377c-0.276,0.018-0.339-0.224-0.373-0.408c-0.221-1.137-0.43-2.274-0.367-3.448
	c0.031-0.598,0.268-0.686,0.797-0.618c1.585,0.208,1.576,0.188,1.608-1.443c0.007-0.369-0.105-0.52-0.476-0.52
	c-0.428,0.003-0.854-0.034-1.281-0.047c-0.273-0.008-0.438-0.099-0.354-0.405c0.126-0.473-0.134-0.558-0.522-0.548
	c-0.202,0.006-0.412-0.005-0.607-0.052c-0.461-0.111-0.555,0.086-0.544,0.509c0.026,0.995,0.009,1.992,0.009,2.989
	C746.975,854.615,747.064,855.854,747.193,857.092z M760.351,853.69c0-0.756,0.012-1.509-0.003-2.262
	c-0.016-0.917-0.466-1.353-1.364-1.332c-0.405,0.008-0.812,0.041-1.217,0.08c-0.661,0.058-1.029,0.39-1.04,1.042
	c-0.023,1.604-0.027,3.214,0.002,4.821c0.013,0.735,0.357,1.044,1.107,1.109c0.426,0.036,0.854,0.049,1.281,0.046
	c0.811-0.005,1.203-0.379,1.226-1.187c0.022-0.773,0.005-1.547,0.005-2.318C760.35,853.69,760.351,853.69,760.351,853.69z
	 M738.256,854.42c0,1.309,0.012,2.612-0.008,3.918c-0.004,0.369,0.102,0.515,0.484,0.502c0.652-0.023,1.309-0.05,1.959,0.005
	c0.689,0.06,0.568-0.431,0.593-0.797c0.032-0.488-0.376-0.26-0.574-0.265c-1.175-0.034-1.176-0.021-1.188-1.177
	c0-0.042,0-0.081,0-0.122c-0.003-0.922-0.003-0.945,0.892-0.911c0.461,0.021,0.684-0.091,0.627-0.598
	c-0.039-0.343-0.045-0.698,0.002-1.038c0.082-0.608-0.138-0.767-0.735-0.696c-0.786,0.088-0.792,0.044-0.785-0.771
	c0-0.039,0-0.08,0-0.122c0.021-1.135,0.021-1.137,1.171-1.194c0.24-0.011,0.547,0.042,0.467-0.355
	c-0.059-0.294,0.108-0.751-0.479-0.729c-0.633,0.021-1.266,0.025-1.898-0.003c-0.389-0.021-0.525,0.086-0.517,0.498
	c0.027,1.286,0.009,2.571,0.009,3.856C738.271,854.42,738.263,854.42,738.256,854.42z M759.575,865.412
	c0,1.121,0.021,2.243-0.009,3.365c-0.012,0.451,0.16,0.556,0.571,0.537c1.06-0.052,2.12-0.08,3.18-0.104
	c0.271-0.005,0.457-0.008,0.458-0.377c0-0.353-0.161-0.41-0.441-0.404c-0.348,0.008-0.694,0-1.041,0c-0.813,0-0.826,0-0.835-0.837
	c-0.019-1.653-0.005-3.308-0.03-4.962c-0.018-1.246-0.033-1.233-1.258-1.147c-0.383,0.028-0.528,0.163-0.521,0.561
	c0.022,1.122,0.008,2.243,0.008,3.368C759.63,865.412,759.603,865.412,759.575,865.412z M754.021,865.885
	c0,1.119,0.031,2.238-0.011,3.357c-0.031,0.82,0.556,0.485,0.922,0.556c0.509,0.101,0.374-0.296,0.37-0.543
	c-0.022-1.503-0.104-3.007-0.021-4.516c0.034-0.623,0.298-1.016,0.925-1.08c0.466-0.047,0.646-0.244,0.526-0.706
	c-0.035-0.136-0.027-0.283-0.041-0.426c-0.067-0.811-0.154-0.862-0.907-0.593c-0.271,0.097-0.474,0.234-0.851,0.047
	c-0.626-0.312-0.993,0.026-0.994,0.728c0,1.06,0,2.116,0,3.176C753.967,865.885,753.994,865.885,754.021,865.885z M757.369,865.436
	c0,0.776,0,1.553,0,2.326c0,0.904-0.001,0.889,0.924,0.836c0.326-0.018,0.458-0.099,0.453-0.454c-0.023-1.817-0.035-3.636-0.02-5.45
	c0.005-0.577-0.355-0.473-0.695-0.471c-0.316,0.003-0.654-0.088-0.631,0.46c0.039,0.917,0.011,1.836,0.011,2.753
	C757.396,865.436,757.384,865.436,757.369,865.436z M757.992,859.203c-0.459,0.003-0.854,0.366-0.817,0.797
	c0.038,0.468,0.241,0.826,0.773,0.852c0.488,0.023,0.887-0.345,0.892-0.802C758.844,859.566,758.48,859.203,757.992,859.203z
	 M738.125,865.038c0.022-0.13,0.09-0.31-0.055-0.358c-0.152-0.055-0.158,0.109-0.15,0.229
	C737.988,864.952,738.057,864.994,738.125,865.038z M747.915,842.229c-1.31-0.036-1.579-0.247-1.903-1.52
	c-0.254-0.991-0.344-2.004-0.383-3.027c-0.043-1.078-0.073-2.158-0.136-3.238c-0.026-0.418-0.15-0.856-0.658-0.896
	c-0.503-0.039-0.603,0.397-0.698,0.781c-0.174,0.701-0.118,1.421-0.086,2.13c0.074,1.63,0.152,3.259-0.149,4.876
	c-0.217,1.166-0.604,1.512-1.778,1.634c-0.525,0.052-1.048,0.15-1.218,0.74c-0.172,0.592-0.007,1.124,0.453,1.555
	c0.442,0.416,0.982,0.673,1.552,0.823c0.663,0.174,1.139,0.485,1.367,1.163c0.108,0.322,0.369,0.541,0.758,0.488
	c0.355-0.047,0.525-0.291,0.588-0.615c0.1-0.498,0.398-0.82,0.834-1.064c0.695-0.387,1.361-0.826,1.927-1.392
	c0.383-0.385,0.671-0.821,0.677-1.143C749.054,842.598,748.674,842.252,747.915,842.229z M746.641,840.341
	c0.361-1.224,0.723-2.446,1.074-3.675c0.044-0.153,0.049-0.319,0.053-0.482c0.006-0.192-0.059-0.361-0.248-0.449
	c-0.219-0.106-0.389-0.006-0.543,0.143c-0.273,0.265-0.424,0.595-0.504,0.955c-0.275,1.242-0.337,2.488-0.072,3.74
	C746.582,840.59,746.608,840.455,746.641,840.341z M743.568,840.089c-0.232-1.216-0.707-2.345-1.352-3.401
	c-0.178-0.294-0.522-0.333-0.809-0.136c-0.291,0.2-0.245,0.512-0.069,0.759c0.678,0.955,1.374,1.896,2.063,2.841
	C743.457,840.13,743.514,840.109,743.568,840.089z M747.223,840.434c0.536-0.565,1.076-1.127,1.605-1.703
	c0.189-0.205,0.418-0.387,0.518-0.667c0.071-0.203,0.122-0.41-0.064-0.563c-0.168-0.135-0.35-0.055-0.503,0.063
	c-0.929,0.709-1.431,1.664-1.683,2.768C747.137,840.364,747.182,840.4,747.223,840.434z M743.621,835.168
	c-0.001-0.169-0.092-0.322-0.275-0.366c-0.202-0.047-0.358,0.055-0.479,0.2c-0.149,0.182-0.185,0.402-0.181,0.634
	c0.016,0.942,0.43,1.75,0.938,2.547C743.625,837.178,743.631,836.173,743.621,835.168z M741.342,838.481
	c-0.242-0.172-0.558-0.166-0.756,0.13c-0.203,0.301-0.145,0.623,0.128,0.815c0.575,0.405,1.252,0.604,1.938,0.823
	C742.388,839.512,741.959,838.915,741.342,838.481z M748.518,833.758c-0.477-0.01-0.779,0.203-0.805,0.701
	c-0.019,0.408,0.367,0.792,0.778,0.756c0.427-0.039,0.71-0.268,0.749-0.751C749.199,834.044,748.986,833.766,748.518,833.758z
	 M741.529,834.002c-0.461-0.01-0.766,0.221-0.768,0.681c-0.002,0.457,0.307,0.706,0.76,0.695c0.424-0.01,0.678-0.244,0.704-0.731
	C742.198,834.251,741.97,834.015,741.529,834.002z M746.24,834.924c0.001-0.146-0.092-0.218-0.232-0.205
	c-0.137,0.013-0.232,0.104-0.23,0.236c0.012,0.488-0.116,0.994,0.161,1.524C746.241,835.96,746.232,835.44,746.24,834.924z
	 M754.026,851.236c0.36,0,0.659-0.083,0.669-0.527c0.008-0.451-0.235-0.686-0.673-0.693c-0.346-0.005-0.692,0.042-1.039,0.047
	c-0.231,0.006-0.313,0.117-0.351,0.33c-0.134,0.769,0.016,0.914,1.018,0.844C753.699,851.236,753.862,851.236,754.026,851.236z
	 M743.178,865.002c-0.102-0.767-0.201-1.532-0.328-2.296c-0.028-0.169,0.086-0.47-0.214-0.491c-0.354-0.023-0.333,0.299-0.371,0.525
	c-0.128,0.763-0.236,1.529-0.362,2.29c-0.122,0.725-0.129,0.725,0.604,0.725C743.252,865.731,743.301,865.934,743.178,865.002z
	 M752,868.468c0-0.387-0.012-0.776,0.004-1.163c0.012-0.338-0.109-0.506-0.464-0.438c-0.303,0.06-0.768-0.141-0.76,0.438
	c0.012,0.735,0.039,1.467,0.055,2.202c0.005,0.268,0.116,0.39,0.396,0.437c0.804,0.132,0.861,0.096,0.828-0.743
	c-0.008-0.244-0.029-0.485-0.046-0.729C752.008,868.471,752.004,868.468,752,868.468z M744.994,854.041
	c-0.002-0.257,0.055-0.613-0.371-0.496c-0.349,0.096-0.992-0.288-0.961,0.537c0.023,0.608,0.025,1.221-0.001,1.831
	c-0.024,0.579,0.206,0.764,0.794,0.776c0.654,0.013,0.535-0.382,0.541-0.756c0.002-0.283,0-0.568,0-0.854
	C744.996,854.734,744.998,854.389,744.994,854.041z M759.251,851.551c0.001-0.242-0.001-0.501-0.335-0.421
	c-0.281,0.067-0.768-0.187-0.77,0.413c-0.002,0.467,0,0.938,0,1.404c0,0.936,0.004,1.873-0.002,2.808
	c-0.004,0.576,0.432,0.402,0.741,0.454c0.392,0.065,0.366-0.194,0.365-0.446c-0.004-0.714-0.001-1.426-0.001-2.138
	C759.25,852.932,759.247,852.241,759.251,851.551z M742.527,844.111c-0.125-0.073-0.238-0.026-0.313,0.086
	c-0.093,0.137-0.055,0.28,0.06,0.379c0.37,0.324,0.74,0.651,1.319,0.872C743.412,844.771,743.019,844.399,742.527,844.111z
	 M747.455,844.316c0.096-0.104,0.166-0.231,0.025-0.374c-0.089-0.091-0.184-0.094-0.27-0.031c-0.465,0.348-0.85,0.758-1.104,1.285
	C746.648,845.02,747.085,844.714,747.455,844.316z"/>
<path fill-rule="evenodd" clip-rule="evenodd" fill="#111111" d="M829.678,1004.198c0-6.868-0.006-13.739,0.002-20.605
	c0.004-3.577,1.083-4.693,4.574-4.695c11.895-0.009,23.787-0.01,35.682,0c3.35,0.002,4.465,1.172,4.463,4.536
	c-0.004,13.736-0.002,27.473-0.004,41.212c0,3.945-1.072,5.021-5.081,5.024c-11.475,0.012-22.951,0.012-34.426,0
	c-4.233-0.003-5.208-0.981-5.21-5.118C829.676,1017.766,829.678,1010.982,829.678,1004.198z M832.699,1025.083
	c0.006,2.891,0.654,3.552,3.531,3.554c11.143,0.017,22.285,0.012,33.428,0.005c3.061-0.001,3.728-0.644,3.73-3.635
	c0.012-13.824,0.009-27.646,0-41.471c0-3.083-0.557-3.63-3.669-3.632c-11.143-0.007-22.284-0.007-33.428,0.002
	c-3.051,0-3.589,0.562-3.595,3.709c-0.008,6.867-0.002,13.736-0.002,20.609C832.695,1011.177,832.687,1018.131,832.699,1025.083z
	 M831.684,980.434c-1.279,1.846-1.484,44.988,0,47.509C831.684,1011.818,831.684,996.167,831.684,980.434z M868.922,988.775
	c0.021-1.385-0.341-1.878-1.807-1.866c-9.038,0.062-18.078,0.062-27.115,0c-1.475-0.012-1.809,0.495-1.801,1.874
	c0.051,9.623,0.057,19.248-0.006,28.871c-0.009,1.5,0.339,2.016,1.937,2.004c8.954-0.08,17.91-0.08,26.864,0
	c1.605,0.012,1.959-0.518,1.932-2.006c-0.086-4.773-0.031-9.543-0.031-14.313C868.895,998.482,868.85,993.63,868.922,988.775z
	 M859.695,1023.919c-3.597,0-7.193,0-10.789,0c0.004,0.169,0.006,0.335,0.01,0.503c3.596,0,7.189,0,10.785,0
	C859.699,1024.254,859.697,1024.088,859.695,1023.919z M866.113,1018.646c1.424,0.032,1.82-0.396,1.807-1.812
	c-0.068-7.195-0.068-14.393,0-21.588c0.016-1.424-0.402-1.813-1.813-1.802c-8.367,0.062-16.734,0.062-25.102-0.001
	c-1.422-0.012-1.82,0.396-1.807,1.813c0.068,7.191,0.068,14.391,0,21.582c-0.014,1.429,0.4,1.839,1.814,1.807
	c4.182-0.089,8.365-0.032,12.549-0.032S861.932,1018.555,866.113,1018.646z M841.02,987.887c-2.104-0.096-1.795,1.07-1.797,2.32
	c-0.001,1.253-0.295,2.354,1.797,2.32c8.359-0.143,16.724-0.143,25.082,0c2.096,0.034,1.794-1.074,1.795-2.323
	c0-1.251,0.302-2.413-1.798-2.317c-4.173,0.194-8.36,0.057-12.54,0.057C849.377,987.943,845.191,988.081,841.02,987.887z
	 M843.328,997.746c6.82,0,13.643,0,20.465,0c0-0.165,0-0.333,0-0.499c-6.823,0-13.645,0-20.465,0
	C843.328,997.413,843.328,997.581,843.328,997.746z M843.331,999.68c6.825,0,13.649,0,20.474,0c-0.004-0.156-0.008-0.31-0.012-0.468
	c-6.823,0-13.645,0-20.467,0C843.328,999.37,843.33,999.523,843.331,999.68z M863.787,1003.898c-6.826,0-13.65,0-20.477,0
	c0.007,0.133,0.013,0.262,0.019,0.392c6.823,0,13.646,0,20.468,0C863.794,1004.16,863.789,1004.031,863.787,1003.898z
	 M843.326,1006.18c6.826,0,13.656,0,20.482,0c-0.006-0.133-0.012-0.266-0.02-0.395c-6.824,0-13.648,0-20.475,0
	C843.318,1005.914,843.322,1006.047,843.326,1006.18z M843.334,1010.714c6.824,0,13.648,0,20.473,0
	c-0.005-0.139-0.012-0.277-0.018-0.417c-6.821,0-13.643,0-20.465,0C843.328,1010.437,843.33,1010.575,843.334,1010.714z
	 M863.787,1012.408c-6.824,0-13.646,0-20.473,0c0.004,0.157,0.009,0.313,0.014,0.469c6.821,0,13.643,0,20.465,0
	C863.791,1012.721,863.789,1012.565,863.787,1012.408z M843.328,1001.683c5.484,0,10.971,0,16.455,0
	c-0.006-0.15-0.01-0.301-0.016-0.448c-5.482,0-10.967,0-16.449,0C843.32,1001.382,843.326,1001.532,843.328,1001.683z
	 M854.737,1007.837c-3.808,0-7.614,0-11.423,0c0.002,0.168,0.003,0.335,0.004,0.506c3.807,0,7.613,0,11.42,0
	C854.738,1008.172,854.737,1008.005,854.737,1007.837z M845.514,1015.941c-1.285-0.465-2.246-0.512-3.195,0.183
	C843.323,1016.625,844.328,1016.932,845.514,1015.941z M865.564,1015.846c-1.244-0.303-2.221-0.464-3.141,0.318
	C863.439,1016.545,864.5,1017.041,865.564,1015.846z M843.002,988.922c-0.975-0.006-1.285,0.312-1.285,1.285
	c0,0.972,0.311,1.291,1.285,1.285c0.961-0.007,1.414-0.289,1.24-1.285C844.416,989.209,843.963,988.929,843.002,988.922z
	 M846.75,990.257c-0.05,1.04,0.422,1.212,1.331,1.235c1.036,0.025,1.214-0.429,1.231-1.336c0.019-1.027-0.402-1.343-1.409-1.18
	C846.848,988.715,846.793,989.392,846.75,990.257z M854.336,990.309c-0.037-0.846-0.068-1.437-1.176-1.383
	c-0.848,0.043-1.444,0.07-1.382,1.178c0.047,0.832,0.042,1.541,1.175,1.345C853.82,991.566,854.385,991.409,854.336,990.309z
	 M859.364,990.309c-0.037-0.846-0.069-1.437-1.178-1.383c-0.845,0.043-1.442,0.07-1.381,1.178c0.049,0.832,0.043,1.541,1.174,1.345
	C858.848,991.566,859.414,991.409,859.364,990.309z M861.834,990.308c-0.063,1.107,0.531,1.141,1.379,1.181
	c1.105,0.051,1.143-0.533,1.18-1.382c0.047-1.099-0.51-1.261-1.383-1.142C861.883,988.769,861.879,989.472,861.834,990.308z"/>
<path fill-rule="evenodd" clip-rule="evenodd" fill="#3A63CC" d="M748.623,1004.945c0-2.766,0.011-5.533-0.011-8.301
	c-0.004-0.471,0.131-0.619,0.592-0.584c0.506,0.039,1.021,0.047,1.525-0.002c0.529-0.051,0.61,0.166,0.608,0.639
	c-0.018,4.582-0.01,9.166-0.01,13.748c0,1.047,0,1.047,1.042,1.047c0.93,0,1.859,0.014,2.789-0.008
	c0.351-0.006,0.537,0.059,0.494,0.465c-0.067,0.629,0.268,1.451-0.139,1.836c-0.319,0.305-1.134,0.098-1.728,0.102
	c-1.527,0.006-3.056-0.016-4.582,0.012c-0.458,0.008-0.597-0.113-0.593-0.586C748.635,1010.523,748.623,1007.734,748.623,1004.945z"
	/>
<path fill-rule="evenodd" clip-rule="evenodd" fill="#3A63CC" d="M759.97,1004.977c0,2.77-0.015,5.537,0.013,8.307
	c0.005,0.512-0.146,0.662-0.635,0.611c-0.677-0.07-1.585,0.283-1.974-0.146c-0.335-0.373-0.106-1.264-0.107-1.924
	c-0.003-5.027,0.008-10.055-0.015-15.084c-0.003-0.561,0.151-0.744,0.699-0.678c0.651,0.078,1.502-0.277,1.911,0.145
	c0.376,0.385,0.1,1.223,0.104,1.859C759.977,1000.369,759.97,1002.674,759.97,1004.977z"/>
<path fill-rule="evenodd" clip-rule="evenodd" fill="#3A63CC" d="M744.558,1004.578c0.37,0.234,0.696,0.459,1.036,0.654
	c0.685,0.391,0.981,1.004,0.986,1.76c0.012,1.816,0.02,3.633-0.003,5.449c-0.012,0.994-0.439,1.43-1.426,1.439
	c-2.304,0.02-4.607-0.008-6.91,0.018c-0.542,0.006-0.407-0.332-0.407-0.613c-0.004-4.141-0.003-8.283-0.003-12.424
	c0-1.439,0.014-2.879-0.009-4.318c-0.005-0.379,0.104-0.484,0.481-0.48c2.259,0.016,4.519-0.002,6.777,0.012
	c0.979,0.006,1.386,0.443,1.391,1.447c0.007,1.529-0.015,3.057,0.009,4.584c0.013,0.852-0.266,1.504-1.047,1.91
	C745.143,1004.168,744.878,1004.371,744.558,1004.578z M729.826,1003.961c0.674-0.371,0.955-0.957,0.957-1.695
	c0.005-1.596,0.014-3.191-0.003-4.787c-0.011-0.977-0.455-1.402-1.446-1.406c-2.216-0.01-4.431,0.008-6.646-0.012
	c-0.421-0.004-0.57,0.088-0.557,0.543c0.035,1.195,0.012,2.393,0.012,3.588c0,4.365-0.001,8.729,0.003,13.094
	c0,0.279-0.137,0.619,0.407,0.613c2.303-0.025,4.607,0.006,6.911-0.021c0.997-0.01,1.381-0.449,1.387-1.459
	c0.008-1.375-0.09-2.756,0.025-4.119c0.14-1.672-0.241-2.969-1.903-3.654c-0.018-0.008-0.029-0.033-0.081-0.094
	C729.229,1004.336,729.518,1004.131,729.826,1003.961z M735.703,998.066c-0.001-0.643,0.229-1.506-0.095-1.865
	c-0.373-0.416-1.254-0.063-1.907-0.139c-0.558-0.066-0.693,0.131-0.691,0.68c0.022,5.027,0.012,10.055,0.015,15.082
	c0.001,0.662-0.229,1.555,0.105,1.926c0.385,0.428,1.295,0.072,1.971,0.145c0.504,0.057,0.621-0.119,0.616-0.615
	c-0.026-2.768-0.013-5.537-0.013-8.305C735.704,1002.672,735.706,1000.369,735.703,998.066z M740.506,1011.057
	c-0.012,0.402,0.055,0.605,0.532,0.58c0.771-0.041,1.549-0.031,2.321-0.004c0.399,0.016,0.538-0.094,0.53-0.514
	c-0.025-1.371-0.02-2.742-0.003-4.113c0.005-0.332-0.16-0.484-0.383-0.693c-0.749-0.707-1.653-0.602-2.553-0.611
	c-0.348-0.004-0.457,0.096-0.446,0.447c0.025,0.818,0.008,1.637,0.008,2.455C740.513,1009.42,740.53,1010.24,740.506,1011.057z
	 M740.513,1001.932c0,1.701,0,1.701,1.697,1.584c0.573-0.041,1.576-0.826,1.579-1.26c0.009-1.172-0.007-2.344,0.01-3.516
	c0.004-0.324-0.115-0.418-0.424-0.414c-0.817,0.016-1.636,0.016-2.453,0c-0.319-0.006-0.424,0.107-0.415,0.422
	c0.019,0.73,0.006,1.461,0.006,2.189C740.513,1001.27,740.513,1001.6,740.513,1001.932z M724.797,1011.168
	c-0.006,0.309,0.031,0.48,0.416,0.467c0.84-0.031,1.683-0.029,2.522,0c0.412,0.014,0.465-0.172,0.462-0.516
	c-0.014-1.371-0.017-2.742,0.002-4.115c0.005-0.336-0.165-0.488-0.392-0.693c-0.752-0.678-1.647-0.611-2.554-0.613
	c-0.396,0-0.471,0.135-0.459,0.492c0.023,0.795,0.007,1.592,0.007,2.389C724.802,1009.441,724.812,1010.305,724.797,1011.168z
	 M728.11,998.785c0.014-0.344-0.095-0.471-0.447-0.461c-0.797,0.021-1.594,0.027-2.391-0.002c-0.375-0.014-0.487,0.092-0.479,0.475
	c0.024,1.172,0.009,2.346,0.009,3.52c0,1.199,0,1.199,1.195,1.199c1.439,0,2.106-0.658,2.106-2.074c0-0.311,0-0.621,0-0.93
	C728.104,999.936,728.086,999.359,728.11,998.785z"/>
<path fill-rule="evenodd" clip-rule="evenodd" fill="#3A63CC" d="M763.089,1013.881c-0.909-0.01-1.304-0.445-1.315-1.439
	c-0.021-1.816-0.014-3.633-0.003-5.449l0.093-4.887c0.021-1.527,0.001-3.055,0.008-4.584c0.004-1.004,0.38-1.441,1.283-1.447h10.727
	c0.979,0.006,1.387,0.443,1.392,1.447c0.007,1.529-0.015,3.057,0.008,4.584l0.101,4.887c0.012,1.816,0.021,3.633-0.003,5.449
	c-0.012,0.994-0.44,1.43-1.427,1.439H763.089z M771.279,1011.391c1.543,0,2.177-0.072,2.186-0.809
	c0.017-1.344,0.001-2.947-0.008-4.293l-0.074-3.619c-0.018-1.131-0.001-2.262-0.006-3.395c-0.004-0.744-0.306-1.068-1.031-1.07
	h-7.15c-0.669,0.002-0.947,0.326-0.95,1.07c-0.005,1.133,0.01,2.264-0.006,3.395l-0.068,3.619c-0.008,1.346-0.014,2.691,0.002,4.037
	c0.009,0.734,0.3,1.059,0.975,1.064H771.279z M764.99,1000.139c2.528,0,5.059,0,7.588,0c0-0.084,0-0.172,0-0.256
	c-2.529,0-5.06,0-7.588,0C764.99,999.967,764.99,1000.055,764.99,1000.139z M764.989,1001.137c2.531,0,5.061,0,7.591,0
	c-0.001-0.08-0.003-0.16-0.004-0.242c-2.529,0-5.059,0-7.589,0C764.987,1000.977,764.989,1001.057,764.989,1001.137z
	 M772.578,1003.313c-2.531,0-5.062,0-7.592,0c0.002,0.068,0.005,0.135,0.007,0.201c2.529,0,5.06,0,7.589,0
	C772.581,1003.447,772.579,1003.381,772.578,1003.313z M764.988,1004.488c2.532,0,5.064,0,7.595,0
	c-0.002-0.068-0.004-0.137-0.007-0.203c-2.53,0-5.062,0-7.592,0C764.986,1004.352,764.987,1004.42,764.988,1004.488z
	 M764.99,1006.828c2.53,0,5.061,0,7.591,0c-0.002-0.072-0.004-0.145-0.006-0.217c-2.53,0-5.06,0-7.588,0
	C764.987,1006.684,764.989,1006.756,764.99,1006.828z M772.578,1007.701c-2.53,0-5.06,0-7.591,0c0.002,0.08,0.004,0.16,0.005,0.24
	c2.529,0,5.059,0,7.588,0C772.58,1007.861,772.579,1007.781,772.578,1007.701z M765.031,1002.17c2.034,0,4.068,0,6.102,0
	c-0.002-0.078-0.004-0.156-0.006-0.23c-2.033,0-4.066,0-6.099,0C765.029,1002.014,765.03,1002.092,765.031,1002.17z
	 M769.262,1005.344c-1.411,0-2.823,0-4.235,0c0,0.086,0.001,0.172,0.002,0.262c1.411,0,2.822,0,4.234,0
	C769.263,1005.516,769.262,1005.43,769.262,1005.344z M770.131,1012.477c-1.037,0-2.073,0-3.109,0c0,0.088,0.001,0.174,0.001,0.262
	c1.036,0,2.072,0,3.108,0C770.131,1012.65,770.131,1012.564,770.131,1012.477z M765.842,1009.523
	c-0.477-0.24-0.833-0.264-1.185,0.094C765.029,1009.877,765.402,1010.033,765.842,1009.523z M773.276,1009.473
	c-0.461-0.154-0.823-0.238-1.164,0.164C772.489,1009.834,772.882,1010.09,773.276,1009.473z"/>
<path fill-rule="evenodd" clip-rule="evenodd" fill="#111111" d="M806.559,956.234c-2.69-0.028-3.857-1.316-3.891-4.258
	c-0.063-5.369-0.041-10.743-0.009-16.116l0.272-14.454c0.064-4.521,0.005-9.039,0.023-13.563c0.014-2.968,1.123-4.264,3.797-4.278
	h31.729c2.897,0.015,4.102,1.311,4.116,4.278c0.019,4.523-0.045,9.042,0.023,13.563l0.296,14.454
	c0.036,5.373,0.061,10.747-0.009,16.116c-0.034,2.941-1.301,4.229-4.219,4.258H806.559z M830.785,948.872
	c4.564,0,6.438-0.214,6.466-2.393c0.049-3.978,0.001-8.718-0.024-12.698l-0.22-10.705c-0.05-3.346-0.003-6.693-0.017-10.042
	c-0.012-2.2-0.903-3.159-3.05-3.169h-21.15c-1.98,0.01-2.804,0.969-2.813,3.169c-0.015,3.349,0.03,6.696-0.017,10.042l-0.203,10.705
	c-0.022,3.98-0.039,7.961,0.006,11.938c0.025,2.175,0.889,3.132,2.883,3.152H830.785z M812.182,915.588c7.48,0,14.965,0,22.445,0
	c0-0.251,0-0.508,0-0.76c-7.482,0-14.965,0-22.445,0C812.182,915.08,812.182,915.337,812.182,915.588z M812.18,918.54
	c7.486,0,14.968,0,22.454,0c-0.003-0.239-0.009-0.473-0.011-0.717c-7.484,0-14.965,0-22.449,0
	C812.174,918.067,812.18,918.301,812.18,918.54z M834.627,924.973c-7.486,0-14.973,0-22.457,0c0.008,0.207,0.014,0.402,0.021,0.596
	c7.483,0,14.966,0,22.449,0C834.635,925.375,834.631,925.18,834.627,924.973z M812.178,928.454c7.488,0,14.979,0,22.463,0
	c-0.004-0.203-0.012-0.406-0.018-0.604c-7.486,0-14.973,0-22.457,0C812.17,928.048,812.173,928.251,812.178,928.454z
	 M812.182,935.372c7.484,0,14.971,0,22.455,0c-0.006-0.21-0.013-0.424-0.02-0.637c-7.482,0-14.965,0-22.444,0
	C812.174,934.948,812.18,935.162,812.182,935.372z M834.627,937.955c-7.483,0-14.967,0-22.453,0c0.006,0.24,0.01,0.477,0.016,0.713
	c7.48,0,14.963,0,22.444,0C834.633,938.432,834.629,938.195,834.627,937.955z M812.305,921.594c6.016,0,12.033,0,18.047,0
	c-0.006-0.231-0.012-0.46-0.018-0.683c-6.013,0-12.026,0-18.04,0C812.297,921.134,812.302,921.362,812.305,921.594z
	 M824.818,930.982c-4.176,0-8.352,0-12.528,0c0,0.256,0.003,0.512,0.004,0.773c4.175,0,8.351,0,12.525,0
	C824.819,931.494,824.818,931.238,824.818,930.982z M827.388,952.084c-3.066,0-6.132,0-9.198,0c0.002,0.257,0.004,0.514,0.004,0.774
	c3.064,0,6.131,0,9.195,0C827.389,952.598,827.388,952.341,827.388,952.084z M814.701,943.348c-1.41-0.709-2.463-0.782-3.504,0.278
	C812.297,944.391,813.4,944.855,814.701,943.348z M836.691,943.199c-1.363-0.461-2.435-0.709-3.443,0.484
	C834.363,944.264,835.525,945.023,836.691,943.199z"/>
<g>
	<path fill-rule="evenodd" clip-rule="evenodd" fill="#111111" d="M605.651,997.633c0-3.181,0.013-6.361-0.013-9.542
		c-0.004-0.541,0.15-0.712,0.681-0.672c0.582,0.044,1.175,0.054,1.754-0.003c0.608-0.059,0.701,0.191,0.699,0.735
		c-0.021,5.267-0.012,10.535-0.012,15.803c0,1.204,0,1.204,1.198,1.204c1.068,0,2.137,0.016,3.206-0.008
		c0.403-0.008,0.618,0.066,0.567,0.533c-0.077,0.723,0.309,1.668-0.158,2.111c-0.367,0.35-1.303,0.111-1.986,0.115
		c-1.756,0.007-3.512-0.018-5.268,0.014c-0.526,0.01-0.686-0.129-0.682-0.673C605.664,1004.045,605.651,1000.839,605.651,997.633z"
		/>
	<path fill-rule="evenodd" clip-rule="evenodd" fill="#111111" d="M618.695,997.669c0,3.183-0.017,6.365,0.015,9.548
		c0.006,0.589-0.167,0.761-0.729,0.703c-0.778-0.08-1.822,0.326-2.27-0.169c-0.385-0.428-0.122-1.451-0.123-2.211
		c-0.004-5.78,0.009-11.56-0.018-17.34c-0.002-0.644,0.175-0.855,0.805-0.779c0.748,0.091,1.727-0.318,2.197,0.165
		c0.432,0.442,0.114,1.406,0.118,2.139C618.703,992.372,618.695,995.021,618.695,997.669z"/>
	<path fill-rule="evenodd" clip-rule="evenodd" fill="#111111" d="M600.978,997.211c0.427,0.27,0.8,0.526,1.192,0.751
		c0.786,0.45,1.127,1.154,1.133,2.024c0.014,2.088,0.023,4.176-0.003,6.263c-0.014,1.143-0.506,1.644-1.64,1.654
		c-2.647,0.024-5.296-0.008-7.943,0.021c-0.623,0.007-0.468-0.382-0.469-0.703c-0.004-4.762-0.002-9.522-0.002-14.283
		c0-1.654,0.015-3.311-0.011-4.965c-0.007-0.436,0.12-0.557,0.554-0.553c2.596,0.019,5.193-0.002,7.79,0.015
		c1.126,0.006,1.594,0.51,1.599,1.663c0.009,1.758-0.017,3.514,0.01,5.271c0.016,0.979-0.305,1.728-1.202,2.195
		C601.65,996.738,601.346,996.973,600.978,997.211z M584.043,996.5c0.774-0.427,1.098-1.099,1.1-1.949
		c0.006-1.834,0.017-3.668-0.003-5.501c-0.013-1.123-0.523-1.613-1.663-1.618c-2.547-0.01-5.093,0.009-7.64-0.014
		c-0.484-0.004-0.655,0.103-0.64,0.625c0.039,1.373,0.014,2.75,0.014,4.125c0,5.017-0.002,10.034,0.003,15.051
		c0,0.322-0.157,0.712,0.468,0.705c2.647-0.029,5.297,0.007,7.945-0.023c1.146-0.013,1.587-0.517,1.594-1.679
		c0.009-1.579-0.104-3.166,0.029-4.734c0.16-1.921-0.277-3.413-2.188-4.201c-0.021-0.009-0.034-0.037-0.094-0.108
		C583.356,996.932,583.688,996.695,584.043,996.5z M590.799,989.725c-0.001-0.738,0.264-1.73-0.108-2.145
		c-0.429-0.478-1.442-0.071-2.193-0.16c-0.64-0.076-0.797,0.151-0.794,0.783c0.025,5.779,0.013,11.559,0.017,17.337
		c0.001,0.762-0.265,1.788,0.121,2.215c0.442,0.49,1.489,0.081,2.265,0.165c0.58,0.064,0.715-0.136,0.709-0.707
		c-0.03-3.182-0.014-6.364-0.014-9.546C590.801,995.02,590.803,992.372,590.799,989.725z M596.32,1004.658
		c-0.014,0.463,0.063,0.696,0.611,0.666c0.888-0.048,1.78-0.035,2.669-0.004c0.459,0.018,0.618-0.108,0.609-0.592
		c-0.029-1.575-0.022-3.151-0.003-4.729c0.005-0.38-0.184-0.555-0.441-0.797c-0.86-0.813-1.899-0.691-2.934-0.701
		c-0.399-0.005-0.525,0.108-0.513,0.514c0.028,0.939,0.009,1.881,0.009,2.821S596.348,1003.719,596.32,1004.658z M596.328,994.168
		c0,1.956,0,1.956,1.951,1.82c0.659-0.046,1.813-0.95,1.815-1.448c0.01-1.347-0.008-2.694,0.011-4.04
		c0.005-0.373-0.132-0.482-0.486-0.477c-0.94,0.017-1.881,0.018-2.82-0.001c-0.367-0.007-0.487,0.123-0.478,0.486
		c0.021,0.839,0.007,1.678,0.007,2.516C596.328,993.406,596.328,993.787,596.328,994.168z M578.262,1004.785
		c-0.007,0.355,0.035,0.553,0.479,0.537c0.965-0.035,1.934-0.034,2.898-0.001c0.475,0.017,0.535-0.196,0.531-0.591
		c-0.016-1.577-0.019-3.154,0.003-4.731c0.005-0.386-0.189-0.562-0.45-0.797c-0.864-0.779-1.894-0.704-2.936-0.705
		c-0.455,0-0.541,0.155-0.528,0.564c0.027,0.915,0.009,1.832,0.009,2.747C578.268,1002.802,578.278,1003.793,578.262,1004.785z
		 M582.07,990.551c0.016-0.395-0.109-0.54-0.514-0.529c-0.916,0.023-1.833,0.03-2.748-0.002c-0.432-0.017-0.561,0.105-0.552,0.544
		c0.028,1.348,0.011,2.696,0.011,4.046c0,1.379,0,1.379,1.374,1.379c1.653,0,2.421-0.756,2.421-2.385c0-0.356,0-0.713,0-1.068
		C582.063,991.874,582.043,991.211,582.07,990.551z"/>
	<path fill-rule="evenodd" clip-rule="evenodd" fill="#111111" d="M622.281,1007.903c-1.046-0.011-1.5-0.512-1.512-1.654
		c-0.024-2.087-0.016-4.175-0.004-6.263l0.106-5.618c0.024-1.757,0.001-3.513,0.009-5.271c0.005-1.153,0.437-1.657,1.476-1.663
		h12.331c1.126,0.006,1.594,0.51,1.6,1.663c0.008,1.758-0.018,3.514,0.01,5.271l0.115,5.618c0.014,2.088,0.022,4.176-0.004,6.263
		c-0.014,1.143-0.506,1.644-1.64,1.654H622.281z M631.696,1005.042c1.774,0,2.503-0.083,2.513-0.929
		c0.02-1.547,0.001-3.389-0.01-4.936l-0.085-4.16c-0.02-1.301-0.001-2.602-0.007-3.902c-0.004-0.855-0.351-1.229-1.185-1.232h-8.22
		c-0.77,0.004-1.09,0.377-1.094,1.232c-0.005,1.301,0.012,2.602-0.006,3.902l-0.079,4.16c-0.009,1.547-0.015,3.094,0.003,4.64
		c0.01,0.846,0.345,1.217,1.119,1.225H631.696z M624.467,992.107c2.906,0,5.815,0,8.723,0c0-0.098,0-0.197,0-0.296
		c-2.908,0-5.816,0-8.723,0C624.467,991.91,624.467,992.01,624.467,992.107z M624.466,993.254c2.909,0,5.817,0,8.727,0
		c-0.001-0.093-0.003-0.184-0.005-0.277c-2.908,0-5.816,0-8.724,0C624.464,993.07,624.465,993.161,624.466,993.254z
		 M633.189,995.755c-2.909,0-5.818,0-8.728,0c0.003,0.079,0.005,0.155,0.008,0.231c2.908,0,5.816,0,8.725,0
		C633.193,995.91,633.191,995.834,633.189,995.755z M624.465,997.107c2.91,0,5.821,0,8.73,0c-0.002-0.079-0.005-0.158-0.008-0.234
		c-2.909,0-5.818,0-8.727,0C624.462,996.949,624.463,997.028,624.465,997.107z M624.467,999.796c2.908,0,5.818,0,8.727,0
		c-0.002-0.082-0.005-0.165-0.008-0.248c-2.908,0-5.815,0-8.723,0C624.464,999.631,624.465,999.714,624.467,999.796z
		 M633.189,1000.8c-2.908,0-5.816,0-8.726,0c0.001,0.094,0.003,0.186,0.005,0.277c2.908,0,5.816,0,8.724,0
		C633.191,1000.985,633.19,1000.894,633.189,1000.8z M624.514,994.441c2.338,0,4.677,0,7.014,0c-0.002-0.09-0.004-0.179-0.006-0.266
		c-2.337,0-4.674,0-7.012,0C624.512,994.263,624.514,994.352,624.514,994.441z M629.377,998.09c-1.623,0-3.245,0-4.868,0
		c0,0.1,0.001,0.199,0.001,0.301c1.623,0,3.246,0,4.868,0C629.378,998.289,629.377,998.189,629.377,998.09z M630.376,1006.291
		c-1.191,0-2.383,0-3.574,0c0.001,0.1,0.001,0.199,0.001,0.301c1.191,0,2.383,0,3.574,0
		C630.377,1006.49,630.376,1006.391,630.376,1006.291z M625.445,1002.896c-0.547-0.276-0.957-0.304-1.361,0.107
		C624.512,1003.301,624.94,1003.481,625.445,1002.896z M633.992,1002.838c-0.53-0.179-0.946-0.275-1.338,0.188
		C633.087,1003.252,633.539,1003.547,633.992,1002.838z"/>
</g>
</svg>
