<?xml version="1.0" encoding="utf-8"?>
<!-- Generator: Adobe Illustrator 16.0.0, SVG Export Plug-In . SVG Version: 6.00 Build 0)  -->
<!DOCTYPE svg PUBLIC "-//W3C//DTD SVG 1.1//EN" "http://www.w3.org/Graphics/SVG/1.1/DTD/svg11.dtd">
<svg version="1.1" id="Layer_1" xmlns="http://www.w3.org/2000/svg" xmlns:xlink="http://www.w3.org/1999/xlink" x="0px" y="0px"
	 width="53.222px" height="52.393px" viewBox="0 0 53.222 52.393" enable-background="new 0 0 53.222 52.393" xml:space="preserve">
<path fill-rule="evenodd" clip-rule="evenodd" fill="#FD0000" d="M26.513,0c1.58,0.015,2.911,1.396,2.909,3.023
	c-0.002,1.678-1.361,3.042-3.003,3.012c-1.608-0.03-2.854-1.377-2.834-3.063C23.604,1.302,24.901-0.015,26.513,0z"/>
<g>
	<path fill-rule="evenodd" clip-rule="evenodd" fill="#5A9CFD" d="M53.214,27.192c-0.155,5.84-2.1,11.03-5.677,15.626
		c-0.448,0.576-0.957,1.105-1.431,1.661c-0.132,0.156-0.237,0.336-0.318,0.452c-0.458-0.121-0.469-0.429-0.563-0.645
		c-4.496-10.317-8.983-20.639-13.471-30.959c-0.472-1.084-0.47-1.085,0.671-1.085c1.083,0,2.168-0.033,3.248,0.012
		c0.815,0.033,1.067-0.302,1.058-1.091c-0.033-2.839,0.009-5.679-0.027-8.518c-0.01-0.765,0.191-0.835,0.832-0.525
		c9.091,4.39,14.311,11.563,15.579,21.594c0.073,0.583,0.14,1.161,0.091,1.748C53.135,26.04,53.122,26.615,53.214,27.192z"/>
	<path fill-rule="evenodd" clip-rule="evenodd" fill="#5A9CFD" d="M16.216,11.615c0.143,0.531,0.574,0.511,0.987,0.512
		c1.171,0.004,2.342,0.001,3.513,0.001c1.143,0,1.145,0.001,0.675,1.093c-1.468,3.41-2.939,6.818-4.404,10.229
		c-3.011,7.011-6.019,14.021-9.028,21.031c-0.057,0.134-0.125,0.263-0.233,0.486c-1.255-1.127-2.238-2.419-3.146-3.763
		c-3.26-4.827-4.866-10.146-4.537-15.981C0.65,14.465,5.979,6.837,15.559,2.075c0.155-0.077,0.331-0.108,0.497-0.162
		c0.18,0.267,0.093,0.569,0.094,0.854c0.007,2.66,0.002,5.32,0.007,7.981C16.156,11.037,16.103,11.333,16.216,11.615z"/>
	<path fill-rule="evenodd" clip-rule="evenodd" fill="#5A9CFD" d="M24.647,32.879c0,4.986,0,9.975,0,14.962
		c-0.07,0.017-0.141,0.032-0.211,0.047c-0.448-1.027-0.901-2.052-1.345-3.082c-1.805-4.188-3.605-8.378-5.412-12.564
		c-0.166-0.385-0.266-0.728-0.076-1.165c2.271-5.261,4.544-10.519,7.047-15.972c0,4.984,0,9.721,0,14.455
		c-0.136,0.573-0.027,1.155-0.062,1.732C24.621,31.82,24.52,32.354,24.647,32.879z"/>
	<path fill-rule="evenodd" clip-rule="evenodd" fill="#5A9CFD" d="M28.357,47.855c0-10.821,0-21.613,0-32.419
		c0.303,0.058,0.313,0.328,0.397,0.522c2.188,5.012,4.37,10.026,6.557,15.039c0.154,0.354,0.244,0.668,0.066,1.074
		c-2.234,5.086-4.446,10.185-6.673,15.275C28.631,47.517,28.625,47.75,28.357,47.855z"/>
	<path fill-rule="evenodd" clip-rule="evenodd" fill="#5A9CFD" d="M37.52,36.097c0.88,2.016,1.667,3.825,2.456,5.633
		c0.747,1.713,1.488,3.431,2.249,5.138c0.161,0.362,0.198,0.598-0.187,0.874c-3.284,2.351-6.905,3.9-10.876,4.635
		c-0.193,0.035-0.398,0.005-0.721,0.005C32.797,46.963,35.117,41.625,37.52,36.097z"/>
	<path fill-rule="evenodd" clip-rule="evenodd" fill="#5A9CFD" d="M15.454,36.119c2.373,5.52,4.664,10.848,6.994,16.268
		c-1.052,0.008-1.912-0.272-2.779-0.498c-3.09-0.801-5.93-2.139-8.524-3.992c-0.255-0.182-0.64-0.286-0.414-0.804
		C12.294,43.505,13.829,39.904,15.454,36.119z"/>
	<path fill-rule="evenodd" clip-rule="evenodd" fill="#F1F3E0" d="M16.216,11.615c-0.251-0.275-0.142-0.613-0.143-0.924
		c-0.013-2.926-0.014-5.852-0.018-8.778c0.308-0.014,0.182,0.229,0.182,0.354C16.237,5.383,16.226,8.499,16.216,11.615z"/>
	<path fill-rule="evenodd" clip-rule="evenodd" fill="#F1F3E0" d="M24.504,31.307c0.065-0.581-0.151-1.186,0.146-1.747
		c0,0.583,0,1.166,0,1.747C24.602,31.383,24.553,31.387,24.504,31.307z"/>
	<path fill-rule="evenodd" clip-rule="evenodd" fill="#F1F3E0" d="M24.504,31.307c0.049,0,0.098,0,0.146,0
		c-0.002,0.524-0.002,1.048-0.003,1.572C24.352,32.377,24.572,31.828,24.504,31.307z"/>
</g>
</svg>
