<?xml version="1.0" encoding="utf-8"?>
<!-- Generator: Adobe Illustrator 16.0.0, SVG Export Plug-In . SVG Version: 6.00 Build 0)  -->
<!DOCTYPE svg PUBLIC "-//W3C//DTD SVG 1.1//EN" "http://www.w3.org/Graphics/SVG/1.1/DTD/svg11.dtd">
<svg version="1.1" id="Layer_1" xmlns="http://www.w3.org/2000/svg" xmlns:xlink="http://www.w3.org/1999/xlink" x="0px" y="0px"
	 width="146.87px" height="146.869px" viewBox="0 0 146.87 146.869" enable-background="new 0 0 146.87 146.869"
	 xml:space="preserve">
<path fill-rule="evenodd" clip-rule="evenodd" fill="#3E0154" d="M125.361,21.509c28.678,28.678,28.678,75.174-0.001,103.851
	c-28.677,28.679-75.173,28.679-103.851,0c-28.678-28.678-28.678-75.175,0-103.851C50.186-7.17,96.682-7.17,125.361,21.509z
	 M37.403,56.243c1.961-3.878,4.57-7.528,7.826-10.784c3.526-3.526,7.515-6.294,11.755-8.3L41.724,10.795
	c-6.457,3.343-12.538,7.737-17.979,13.18c-4.861,4.86-8.885,10.23-12.071,15.923L37.403,56.243z M106.768,134.992
	c5.693-3.187,11.063-7.211,15.923-12.071c5.442-5.442,9.837-11.522,13.18-17.979l-26.364-15.26c-2.006,4.239-4.774,8.228-8.3,11.755
	c-3.256,3.256-6.907,5.864-10.784,7.826L106.768,134.992z M56.819,110.213c-3.84-1.996-7.471-4.626-10.727-7.882
	c-3.526-3.527-6.318-7.491-8.367-11.688l-25.557,14.454c3.402,6.397,7.829,12.445,13.271,17.887
	c4.86,4.861,10.204,8.911,15.849,12.146L56.819,110.213z M135.309,40.657c-3.204-5.674-7.24-11.034-12.1-15.895
	c-5.442-5.442-11.511-9.85-17.944-13.215L90.322,37.596c4.222,2.021,8.202,4.8,11.728,8.326c3.256,3.257,5.873,6.898,7.849,10.762
	L135.309,40.657z M47.95,47.948c-14.074,14.075-14.075,36.895,0,50.97c14.076,14.075,36.895,14.075,50.969,0
	c14.075-14.074,14.076-36.894,0-50.97C84.843,33.874,62.025,33.874,47.95,47.948z"/>
</svg>
