<?xml version="1.0" encoding="utf-8"?>
<!-- Generator: Adobe Illustrator 16.0.0, SVG Export Plug-In . SVG Version: 6.00 Build 0)  -->
<!DOCTYPE svg PUBLIC "-//W3C//DTD SVG 1.1//EN" "http://www.w3.org/Graphics/SVG/1.1/DTD/svg11.dtd">
<svg version="1.1" id="Layer_1" xmlns="http://www.w3.org/2000/svg" xmlns:xlink="http://www.w3.org/1999/xlink" x="0px" y="0px"
	 width="274.723px" height="262.677px" viewBox="0 0 274.723 262.677" enable-background="new 0 0 274.723 262.677"
	 xml:space="preserve">
<g>
	<path fill="#FDAD1B" d="M241.647,161.308c2.482-10.727,2.416-58.143,1.324-57.163c-5.334-27.667-27.104-57.471-28-58.334
		c-11.77-14.039-9.803-14.148-22-26.666c-6.762-6.945-29.375-17.947-41.189-18.202c-15.811,0-22.811,3.203-35.478,5.203
		c-21.562,4.577-32.019,7.826-47.2,14.674c-14.346,6.485-27.643,15.152-40.471,24.469c-6.57,4.754-11.104,10.886-14.66,18.444
		C-1.405,96.379-3.501,129.87,4.805,164.396c2.976,12.381,6.776,24.334,12.704,35.571c4.346,8.213,8.361,16.632,12.055,25.185
		c2.604,5.983,6.881,9.618,12.437,12.315c15.705,7.598,31.575,14.669,48.709,18.45c4.425,0.968,8.714,2.572,13.077,3.884
		c30.454,7.42,72.75-0.965,91.21-8.804c19.141-8.128,29.467-47.086,35.633-57.749C236.797,182.585,239.165,172.034,241.647,161.308z
		"/>
	<path fill="#1E0000" d="M54.499,98.014c-0.063-0.021-0.153-0.054-0.153-0.09C54.358,97.826,54.416,97.858,54.499,98.014
		L54.499,98.014z"/>
	<path fill="none" d="M104.755,144.528c0,0.643,3.57,1.144,7.969,1.144"/>
	<path fill="#111111" d="M100.474,151.475c-0.918-0.183-2.508-0.482-4.461-0.918c-8.185-1.843-16.717-3.817-25.232-8.925
		c-0.789-0.495-2.684-1.843-6.502-4.547c-0.188-0.121-13.42-9.819-14.33-10.506c-0.65-1.19-0.719-2.515-0.967-3.796
		c-0.459-2.321-0.572-10.202-0.352-12.464c0.016-0.217,0.551-5.832,0.768-7.511c0.014-0.157,0.587-3.994,1.237-5.673v-0.005
		c2.278-0.688,5.165-1.428,8.563-1.953c5.026-0.788,8.878-0.797,11.377-0.788c7.161,0.021,11.34,1.001,12.359,1.245
		c0.371,0.079,0.664,0.17,0.872,0.224L83.8,95.85c0.619,1.447,1.111,2.716,1.471,3.745c0,0,0.289,0.808,1.201,5.908
		c0,0.021,0.014,0.098-0.013,0.189c-0.044,0.092-0.112,0.157-0.221,0.2c-0.217,0.104-0.317-0.088-0.399-0.213
		c-1.095-1.877-2.254-3.713-3.297-5.62c-0.58-1.056-1.424-1.383-2.535-1.753c-1.114-0.396-3.087-0.842-4.346-0.854
		c-2.109-0.009-4.195-0.074-6.24,0.183c-1.93,0.234-3.827,0.761-5.668,1.391c-0.941,0.324-1.693,0.864-2.367,1.628
		c-2.941,3.254-4.322,7.105-4.48,11.42c-0.09,2.519-0.012,3.194,0.529,7.346c0.078,0.618,0.277,1.213,0.607,1.753
		c0.134,0.213,0.28,0.446,0.423,0.672c0.021,0.021,0.226,0.327,0.508,0.593c2.423,2.313,6.139,4.085,6.139,4.085
		c7.171,3.391,8.865,4.079,11.257,4.818c0.282,0.075,0.743,0.17,1.648,0.459c3.932,1.286,7.926,2.256,11.969,3.134
		c3.656,0.797,9.514,1.785,9.514,1.785s6.895,1.033,7.875,1.209l5.296,0.562l-3.906,14.021L100.474,151.475z"/>
	<path fill="#FFFFFF" d="M110.691,143.406c-0.368-1.022-0.157-2.629-0.036-2.988c1.037-2.995,2.132-3.218,3.975-4.882
		c3.717-3.348,4.02-3.524,4.02-3.524c0.494-0.502-0.627,1.429,0.329,0.629c-1.069,1.212-2.733,2.491-3.817,4.021
		c-1.239,1.724-2.27,3.396-3.152,4.925c0,0,3.465-1.169,0.627,1.73c-2.842,2.907-3.738,3.252-3.738,3.252l2.031,0.854l-3.345,5.637
		l3.345-0.923l-0.945,2.865l1.575,1.655c0,0-0.462,1.483-1.396,5.739c-0.918,4.255-4.553,27.879-2.558,1.536
		c0.171-2.3,0.9-5.693,0.9-5.693s-1.031,0.273-1.385-1.178c-0.221-0.939-0.476-0.882-1.242-1.243c0,0-0.832,0-0.336-3.399
		c0.131-0.933,2.605-4.212,2.605-4.212s-1.216-0.249-0.674-1.447C107.976,145.581,110.691,143.406,110.691,143.406z"/>
	<path fill="#111111" d="M269.34,129.725c-0.107-0.45-0.086-0.893-0.637-0.752l-0.473,1.099c-0.322,0.412-3.621,18.785-4.275,22.517
		c-0.213,1.259-1.92,9.561-2.717,12.422c-0.494,1.832-1.309,3.534-2.266,5.186l-0.676,1.373c0.438,0.918,0.459,1.886,0.271,2.861
		c-0.109,0.436-0.471,0.604-0.875,0.331c-0.328-0.206-0.516-0.206-0.67,0.104c-0.125,0.257-0.17,0.565-0.266,0.808
		c-0.207,0.493-0.502,0.731-0.705,0.563c-0.248-0.222-0.121-0.547-0.156-0.82c-0.123-0.132-0.25-0.251-0.361-0.368
		c-0.467,0.438-0.76,1.031-1.346,1.313c-0.088,0.03-0.248,0.03-0.299-0.025c-0.047-0.079-0.084-0.221-0.033-0.278
		c0.301-0.508,0.605-1.001,0.951-1.447c0.189-0.281,0.439-0.542,0.346-0.923v-0.051c-0.412-0.141-0.559-0.379-0.324-0.699
		c0.184-0.272,0.484-0.493,0.771-0.64c0.768-0.361,1.541-0.672,2.328-1.001l0.617-1.886c0.291-0.933,2.986-10.28,3.209-14.186
		c0.088-1.677,0.418-6.927,0.471-7.894c0.168-0.784-0.008-1.606,0.146-2.387c0.037-0.226,0.021,0.053,0.037-0.181
		c-0.082,0.042-0.061,0.146-0.082,0.21c-1.67,3.584-3.154,7.246-4.879,10.785c-2.295,4.782-14.281,27.312-14.34,27.425
		c-2.711,5.411-15.678,24.578-16.238,25.229c-1.715,1.968-2.109,4.302-1.994,6.78c0.109,2.406,1.863,30.392,1.74,31.597
		c-0.238,2.345-1.439,4.442-3.889,5.187c-2.207,0.68-4.465,1.086-6.777,1.2c-1.518,0.101-1.922,0.437-2.189,1.89
		c-0.121,0.576-0.797,1.286-1.256,1.503c-1.449,0.681-2.898,1.286-4.572,1.433c-2.871,0.193-5.732,0.404-8.607,0.391
		c-2.76-0.029-5.52-0.14-8.27-0.495c-0.629-0.098-1.268-0.188-1.85-0.389c-1.215-0.363-2.193-1.01-2.268-2.47
		c-0.021-0.519-0.184-1.021-0.211-1.528c-0.119-2.323-0.264-4.598-0.309-6.916c-0.053-4.553-0.617-9.055-1.371-13.533
		c-0.041-0.335-0.029-0.707-0.402-0.896c-0.248-0.136-0.804,0.28-1.021,0.739c-0.225,0.496-0.208,1.024-0.246,1.524
		c-0.145,2.814-1.033,9.465-1.146,12.271c-0.055,1.171-0.098,2.31-0.146,3.458c-0.033,0.988-0.255,1.928-0.522,2.873
		c-0.319,1.18-1.114,1.658-2.231,1.796c-1.254,0.166-2.52,0.328-3.76,0.489c-0.736,0.098-0.804,0.161-0.938,0.979
		c-0.191,1.067-0.303,1.067-0.923,1.326c-1.288,0.581-2.401,0.728-3.813,0.771c-3.639,0.092-7.43,0.028-11.031-0.302
		c-0.299-0.031-3.256-0.235-4.427-0.537c-1.088-0.283-1.603-0.941-1.683-2.098c-0.281-4.247-0.606-8.487-0.592-12.755
		c0-4.319-0.316-8.641-1.158-12.857c-0.833-4.185-4.578-17.352-5.488-19.781c-0.939-2.531-5.951-13.646-7.383-16.723
		c-1.595-3.389-3.405-6.664-5.346-9.858c-0.234-0.389-0.434-0.824-0.771-1.126c-0.889-0.787-0.988-1.767-0.846-2.84
		c0.042-0.493,0.021-0.688,0.146-1.022c-0.076,0.007-0.182,0.043-0.281,0.11c-0.107,0.068-0.191,0.166-0.223,0.224
		c-1.146,1.572-2.311,3.124-3.438,4.705c-3.912,6.61-15.15,17.225-16.217,18.135h0.013c-0.204,0-0.372,0.304-0.372,0.304
		c-0.17,0.058-3.646,2.679-4.835,3.367c-0.886,0.529-1.819,0.979-2.716,1.494c-4.955,2.842-10.281,4.58-15.885,5.478
		c-2.895,0.472-5.791,0.86-8.721,1.122c-2.566,0.223-5.128,0.642-7.704,0.973c-1.802,0.23-3.229,1.127-4.306,2.576
		c-0.168,0.2-0.326,0.457-0.515,0.674c-0.571,0.681-1.909,0.771-2.311-0.474c-0.844-2.58-2.193-4.903-3.809-7.118
		c-1.087-1.49-2.255-2.905-3.604-4.148c-0.897-0.818-0.982-1.752-0.874-2.821c0.047-0.476,0.296-0.839,0.642-1.166
		c0.412-0.411,0.91-0.473,1.438-0.26c0.145,0.079,0.324,0.161,0.425,0.296c0.831,1.086,1.751,0.918,2.871,0.45
		c4.009-1.686,8.274-2.379,12.562-2.887c2.221-0.295,4.457-0.529,6.668-0.956c3.469-0.672,6.754-1.817,9.73-3.771
		c1.338-0.897,2.639-1.815,3.963-2.75c0.222-0.158,0.459-0.347,0.65-0.547c2.322-2.314,4.5-4.739,6.264-7.556
		c1.873-2.986,6.543-17.148,6.912-18.408c0.832-2.972,1.254-6.063,2.436-8.923c0.281-0.661-0.741-0.025-1.166,0.136
		c-0.155,0.056-0.359,0.021-0.48-0.072c-0.24-0.145-0.125-0.396-0.043-0.612c0.076-0.146,0.627-1.292,1.074-1.955
		c0.199-0.266,0.382-0.551,0.537-0.865c0.058-0.096,0.113-0.204,0.193-0.291c0.081-0.021,0.108-0.079,0.088-0.179
		c-0.088,0.07-0.182,0.121-0.281,0.179c-0.087,0.087-0.176,0.161-0.27,0.238c-0.09,0.087-0.164,0.15-0.268,0.233
		c-0.079,0.079-0.168,0.146-0.26,0.226c-0.088,0.074-0.188,0.134-0.291,0.193c-0.146,0.085-0.295,0.177-0.414,0.302
		c-0.103,0.132-0.229,0.255-0.336,0.381c-0.061,0.021-0.113,0.069-0.158,0.091c-0.427,0.264-0.799,0.67-1.366,0.321
		c-0.589-1.154-0.177-2.245,0.233-3.331c0.706-1.619,1.977-2.806,3.242-3.962c-0.341-0.593-1.482,0.056-1.504-0.999
		c3.6-2.739,3.6-2.739,4.6-4.85c-0.38-0.036-0.537,0.316-0.803,0.461c-0.307,0.145-0.607,0.436-0.948,0.202
		c-0.368-0.245-0.405-0.679-0.331-1.073c0.199-1.443,1.054-2.498,2.082-3.454c0.238-0.206,3.65-3.409,3.86-3.826l-0.323,0.359
		l1.615-2.378l-1.523-0.108c-0.145,0.096-1.301-0.168-1.481-0.238c-0.245-0.092-0.202-0.372-0.124-0.587
		c0.021-0.067,0.045-0.125,0.054-0.168c1.19-1.87,0.64-3.592-0.474-5.263c-0.515,0.204-0.632,0.663-0.932,0.999
		c-0.289,0.374-0.557,0.744-0.863,1.076c-0.098,0.138-0.244,0.225-0.438,0.138c-0.189-0.096-0.225-0.246-0.225-0.427
		c0-0.674,0.021-1.365,0.051-2.056c0.006-0.444,0.185-0.895,0.021-1.403c-0.742,0.09-1.354,0.585-2.111,0.619
		c-0.508,0.011-0.729-0.226-0.564-0.74c0.441-1.236,1.012-2.45,1.045-3.783c0.293-1.024,0.076-2.044,0.113-3.063
		c0.021-0.342-0.037-0.731-0.572-0.529c-0.27,0.472-0.425,0.882-0.529,1.21c-0.236,0.801-0.21,1.438-0.514,1.518
		c-0.17,0.042-0.326-0.079-0.35-0.101c-0.246-0.17-0.271-0.472-0.293-0.584c-0.404-1.907-0.771-3.817-0.695-5.781
		c0.037-0.572,0.059-1.142,0.079-1.72c0.034-0.376,0.228-1.08-0.358-0.976c0,0-1.238,1.651-1.933,2.406
		c-0.278,0.304-0.581,0.559-0.997,0.671c-0.268,0.056-0.584,0.189-0.81-0.057c-0.247-0.26-0.054-0.527,0.138-0.729
		c0.471-0.593,0.795-1.267,1.109-1.953c0.26-0.571,0.459-1.178,0.417-1.828c-0.114-2.087,0.231-4.121,0.706-6.132
		c0.152-0.276-0.021-0.569,0.055-0.826c-0.021,0.008,0.07-0.092,0.07-0.092s-0.125-0.011-0.125,0
		c-0.092,0.219-0.221,0.403-0.447,0.495c-0.123,0.119-0.237,0.28-0.373,0.349c-0.412,0.168-0.787,0.007-0.795-0.349
		c-0.021-0.506-0.021-1.035,0.042-1.537c0.121-0.911,0.304-1.809,0.45-2.694c-0.45-0.313-0.909-0.058-1.334-0.092
		c-0.697-0.021-1.377-0.021-2.066-0.067c-0.327-0.007-0.508-0.392-0.307-0.625c0.196-0.228,0.398-0.419,0.596-0.621
		c1.596-1.615,2.391-3.613,2.717-5.828c0.021-0.108-0.021-0.233-0.043-0.331c0-0.043-0.055-0.094-0.092-0.123
		c-0.522,0.08-0.881,0.492-1.348,0.707c-0.514,0.247-1.03,0.493-1.566,0.697c-0.291,0.119-0.543-0.104-0.543-0.45
		c0.049-0.91,0.182-1.821,0.476-2.697c0.638-1.85,1.252-3.703,1.884-5.552c0.021-0.177,0.696-1.942,0.797-2.215
		c0.104-0.155,0.191-0.325,0.279-0.493c-0.012,0.011,0.066-0.112,0.066-0.112s-0.963,0.71-1.617,1.662l0.015-0.013
		c-0.2,0.425-0.459,0.707-0.765,0.091c-0.155-0.338-0.146-0.729-0.189-1.135c-0.416-3.501,0.504-6.78,1.615-10
		c-0.304-0.347-0.559-0.043-0.818-0.068c-0.441-0.045-0.629-0.255-0.629-0.652c0.066-3.364,0.695-6.589,2.244-9.603
		c0.137-0.126,0.092-0.319,0.137-0.487c0,0.013,0.055-0.134,0.055-0.134s-0.146,0.047-0.157,0.047
		c-0.132,0.1-0.294,0.123-0.427,0.213c-1.322,1.043-2.515,2.168-3.14,3.796c-0.235,0.58-0.765,0.818-1.329,0.997
		c-0.602,0.204-0.939-0.157-0.815-0.831c0.815-4.164,2.34-8.032,4.69-11.569c0.226-0.351,0.404-0.688,0.615-1.035
		c0.17-0.212,0.273-0.909,0.273-0.909s-1.596,1.247-2.201,1.36c-0.273,0.057-0.563,0.155-0.8-0.113
		c-0.145-0.191-0.098-0.438-0.021-0.654c0.687-1.872,1.718-3.501,3.278-4.77c1.247-1.031,2.637-1.839,4.105-2.502
		c1.9-0.844,3.888-1.428,5.862-2.031c1.101-0.33,2.183-0.661,3.29-1.029c1.307-0.442,2.457-1.229,3.537-2.089
		c0.208-0.168,0.395-0.421,0.533-0.655c0.078-0.134,0.036-0.333-0.186-0.346c-0.709-0.045-1.375,0.178-2.027,0.372
		c-0.334,0.1-0.646,0.268-0.961,0.38c-0.729,0.255-1.149,0.213-1.236-0.098c-0.146-0.463,0.161-0.775,0.43-1.059
		c0.736-0.741,1.639-1.269,2.578-1.694c2.136-1.001,4.376-1.731,6.625-2.427c0.83-0.244,1.664-0.493,2.478-0.737
		c0.104-0.115,0.26-0.115,0.415-0.149c-0.168-0.021-0.305-0.042-0.379-0.212c-1.048-0.41-2.146-0.323-3.225-0.404
		c-0.348-0.006-0.671-0.063-1.018-0.134c-0.183-0.042-0.262-0.417-0.146-0.571c0.302-0.473,0.773-0.676,1.254-0.861
		c1.505-0.612,3.063-1.037,4.685-1.095c1.886-0.055,3.792-0.208,5.675,0.271c0.572,0.148,0.811-0.047,1.029-0.623
		c0.119-0.327-0.037-0.621-0.357-0.621c-0.623,0-1.244,0.032-1.879,0.021c-0.148,0-0.347-0.11-0.404-0.225
		c-0.062-0.122-0.047-0.347,0.058-0.457c0.567-0.804,1.286-1.476,2.081-2.068c0.701-0.493,1.383-1.019,2.076-1.561
		c0.049-0.033,0.049-0.191,0.049-0.289c0-0.146-0.094-0.195-0.225-0.225c-0.585-0.104-1.15-0.062-1.707,0.121
		c-0.221,0.083-0.446,0.146-0.663,0.201c-0.729,0.213-1.165,0.171-1.222-0.134c-0.135-0.563,0.324-0.81,0.654-1.086
		c0.714-0.605,1.588-0.909,2.441-1.26c0.572-0.249,1.227-0.292,1.781-0.8c-0.688-0.75-1.689-0.939-2.484-1.475
		c0.939-0.825,1.996-1.037,3.105-0.982c0.697,0.049,1.404,0.07,2.053,0.283c0.697,0.221,1.044-0.03,1.473-0.508
		c2.054-2.276,4.477-4.115,7.252-5.488c0.2-0.092,0.392-0.226,0.608-0.289c0.376-0.136,0.813-0.347,1.14,0
		c0.329,0.359,0.059,0.752-0.158,1.073c-0.452,0.744-1.03,1.386-1.343,2.2c0.063,0.057,0.108,0.104,0.166,0.125
		c0.034,0.021,0.104,0.049,0.159,0.021c5.31-2.054,10.664-3.96,16.092-5.644c0.251-0.446-0.186-0.439-0.383-0.584
		c-0.584-0.115-1.162,0.013-1.704-0.266c-0.089-0.034-0.233-0.151-0.233-0.217c0-0.159,0.047-0.334,0.145-0.451
		c0.264-0.302,0.631-0.467,1.037-0.535c0.837-0.17,1.674-0.397,2.543-0.495c2.894-0.381,5.793-0.795,8.736-0.74
		c0.514,0.011,0.984,0,1.433-0.403c1.503-1.369,3.313-2.249,5.155-3.067c3.57-1.56,7.262-2.515,11.141-2.703
		c1.83-0.087,3.672,0.138,5.414,0.788c1.018,0.404,1.998,0.882,2.682,1.794c0.066,0.697-0.463,0.65-0.889,0.719
		c-2.928,0.199-4.535,0.729-5.891,2.055c1.039,0.336,2.016,0.258,2.996,0.075c1.555,0.17,3.084,0.183,4.602,0.586
		c1.436,0.383,2.682,1.031,3.67,2.119c0.43,0.464,0.898,0.887,1.27,1.395c0.828,1.122,1.943,1.772,3.246,2.119
		c0.346,0.094,0.672,0.17,0.996,0.304c0.256,0.092,0.246,0.304,0.146,0.549c-0.225,0.55-0.797,0.803-1.111,1.272
		c0.076,0.434,0.457,0.455,0.762,0.525c1.875,0.508,3.76,0.963,5.648,1.471c3.008,0.795,5.914,1.862,8.598,3.447
		c1.141,0.65,2.209,1.411,3.061,2.444c0.775,0.932,1.674,1.752,2.652,2.475c0.268,0.176,0.168,0.49-0.146,0.635
		c-0.316,0.162-0.645,0.162-0.996,0.137c-0.914-0.079-1.82-0.094-2.732-0.137c-0.088,0.064-0.131,0.137-0.088,0.184
		c0.033,0.053,0.068,0.063,0.088,0.063l0.037,0.036c0.107,0.262,0.48,0.157,0.588,0.401c0.826,0.551,1.607,1.125,2.432,1.639
		c3.129,1.981,6.057,4.198,8.447,7.048c0.807,0.976,1.533,2,2.09,3.144c0.619,1.304,1.291,2.568,1.906,3.864
		c0.141,0.221,0.371,0.459,0.162,0.882c-1.707-0.696-3.113-2.053-5.066-2.421c-0.01,1.414,0.395,2.657,0.979,3.835
		c0.467,0.988,1.08,1.897,1.738,2.773c1.27,1.707,2.68,3.301,4.186,4.818c0.314,0.329,0.621,0.65,0.947,0.982
		c-1.254,0.935-1.93,1.113-5.367,1.428c-0.113,0.47,0.332,0.54,0.58,0.723c4.461,3.261,8.059,7.315,11.225,11.817
		c1.037,1.478,1.842,3.042,2.324,4.791c0.092,0.313,0.238,0.629,0.385,0.941c0.256,0.28,0.303,0.642,0.053,0.901
		c-0.313,0.381-0.582,0.021-0.826-0.181c-0.307-0.27-0.623-0.497-0.855-0.808l-0.021-0.021c-0.607-0.204-0.6,0.13-0.461,0.551
		c-0.01,0.108,0.037,0.185,0.133,0.235c0.07,0.132,0.158,0.245,0.256,0.349l0.016,0.005c0.133,0.104,0.221,0.251,0.289,0.385l0,0
		c0.283,0.1,0.172,0.461,0.416,0.593l0.035,0.058c0.088,0.114,0.178,0.237,0.281,0.34c2.254,3.005,5.152,5.205,8.617,6.674
		c0.563,0.246,1.213,0.34,1.754,0.833c-0.678,1.367-2.135,1.393-3.299,1.841c-0.059,0.455,0.264,0.638,0.48,0.882
		c1.518,1.73,2.971,3.516,4.346,5.358c0.941,1.267,1.648,2.625,1.996,4.175c0.188,0.896,0.426,1.774,0.664,2.674
		c0.064,0.403,0.5,0.933-0.359,1.018c-1.877-2.006-3.865-3.894-6.074-5.532c-0.271,0.347-0.156,0.616-0.059,0.875
		c0.377,0.966,0.75,1.929,1.125,2.887c0.639,1.571,1.527,2.95,2.73,4.149c0.654,0.654,1.289,1.317,1.914,1.989
		c0.369,0.393,0.398,0.403-0.166,0.909c-0.16,0.17-0.135,0.291-0.068,0.43c0.191,0.347,0.416,0.692,0.676,0.997
		c1.141,1.487,1.752,3.188,1.996,5.059c0.346,2.786,0.586,5.594,0.729,8.406c0.057,1.496,0.117,2.983,0.184,4.479
		c-0.348,0.211-0.494-0.065-0.688-0.257c-0.428-0.457-0.865-0.922-1.256-1.337c-0.508,0.17-0.359,0.48-0.359,0.74
		c0.168,3.111,0.066,6.208-0.605,9.265c-0.115,0.557-0.225,1.12-0.697,1.53c-0.314,0.264-0.625,0.219-0.82-0.164
		c-0.225-0.527-0.447-1.041-0.66-1.57L269.34,129.725z"/>
	<path fill="#FFFFFF" d="M167.485,147.128c0.145,0.24,0.27,0.5,0.438,0.733c0.899,1.178,0.502,1.19,1.906,0.6
		c0.643-0.253,1.262-0.565,1.865-0.891c1.774-0.967,3.457-2.068,5.056-3.277c3.118-2.368,5.497-5.378,7.257-8.857
		c0.335-0.665,0.619-1.355,0.964-2.031c0.666-1.313,0.846-2.726,0.742-4.177c-0.26-4.442-1.618-8.574-3.76-12.436
		c-0.472-0.854-0.988-1.671-1.518-2.489c-1.836-2.861-4.306-5.076-6.999-7.071c-0.162-0.021-0.314-0.043-0.461-0.146l-0.139-0.058
		l0.039,0.161c0.021,0.153,0.01,0.323,0.143,0.457c0.403,0.699,0.967,1.337,1.17,2.09c0.173,0.684-0.035,1.466-0.049,2.221
		c-0.008,1.781,0,3.558,0,5.352c0,0.451-0.021,0.912-0.055,1.369c-0.008,0.079-0.113,0.204-0.191,0.238
		c-0.076,0.031-0.234,0-0.289-0.068c-0.854-0.931-1.547-1.985-2.047-3.165c-0.761-1.798-1.346-3.673-1.928-5.534
		c-0.309-0.988-0.529-2.007-0.878-2.974c-0.412-1.222-0.533-2.479-0.569-3.738c-0.038-1.492,0.561-2.211,2.09-2.437
		c2.443-0.346,4.893-0.682,7.381-0.602c0.854,0.03,1.539,0.287,2.172,0.861c1.501,1.369,2.816,2.874,4.082,4.446
		c1.503,1.888,2.962,3.826,4.433,5.745c1.697,2.236,3.377,4.502,5.119,6.723c0.537,0.695,0.863,1.447,1.094,2.302
		c0.68,2.513,0.488,5.031,0.027,7.531c-0.711,3.738-1.852,7.352-3.098,10.945c-0.898,2.604-1.863,5.192-2.783,7.779
		c-0.1,0.268-0.221,0.536-0.326,0.802c-0.424,1.113-1.135,1.944-2.189,2.553c-1.887,1.099-3.716,2.308-5.578,3.442
		c-2.749,1.698-5.746,2.896-8.598,4.39c-1.369,0.729-2.785,1.371-4.189,2.031c-0.614,0.281-1.265,0.529-1.915,0.764
		c-0.674,0.233-1.348,0.229-1.975-0.198c-0.606-0.443-1.297-0.765-1.864-1.226c-2.096-1.654-4.085-3.382-5.855-5.365
		c-0.451-0.521-0.959-1.01-1.443-1.46c-1.223-1.156-1.367-2.569-0.875-3.996c0.55-1.56,1.296-3.063,2.293-4.41
		c1.514-2.053,3.66-2.692,6.038-2.808c1.165-0.056,2.132,0.461,2.849,1.369c0.875,1.088,1.751,2.146,2.436,3.345
		C167.855,146.73,167.128,146.346,167.485,147.128"/>
	<path fill="#7E7473" d="M173.019,107.646c-0.311-0.134-0.39-0.408-0.473-0.685c0.17-0.154,0.375-0.176,0.576-0.057
		c0.152,0.057,0.314,0.11,0.314,0.327C173.296,107.363,173.158,107.499,173.019,107.646"/>
	<path fill="#AA8E8D" d="M173.122,106.904c-0.193,0.021-0.385,0.044-0.576,0.057c-0.197-0.1-0.233-0.259-0.112-0.414
		c0.049-0.049,0.217-0.034,0.304,0.021C172.886,106.659,172.985,106.791,173.122,106.904"/>
	<path fill="#FFFFFF" d="M121.939,124.379c-0.112-2.11-0.884-3.5-1.335-5.532c-0.125-0.459-0.27-1.101-0.426-1.855
		c-0.25-1.207-0.633-3.196-0.92-5.619c-0.178-1.356-0.28-2.504-0.474-5.771c-0.124-2.074-0.292-4.824-0.438-8.087
		c-0.48,0.345-0.75,0.623-1.18,0.976c-0.689,0.536-1.219,1.534-2.061,2.195c-1.443-0.053,2.04-7.56,2.824-9.012
		c0.48-0.933,0.931-1.572,0.831-1.809c-0.731-0.289-0.289-0.727-0.134-1.163c0.076-0.206,0.676-1.194,0.719-1.337
		c0.427-0.743,2.48-3.222,2.367-2.729c0.092-0.121,0.193-0.121,0.289-0.211c0.062-0.051,0.117-0.093,0.172-0.148
		c0.137-0.07,0.26-0.134,0.392-0.226c0.314-0.529,0.967-0.638,0.056-0.797c-1.156-0.515,1.149-1.539,1.863-2.074
		c0.484-0.37,1.035-0.572,1.144-1.295c0,0,0-0.021-0.021-0.021c-0.059-0.103-0.279-0.007-0.426-0.09
		c-0.181-0.078-0.201-0.338-0.223-0.425c-0.081-0.648,1.783-1.762,2.414-2.157c0.838-0.517,1.037-0.81,3.026-2.188
		c0.21-0.161,0.309-0.438,0.339-0.707c0.229-3.134,1.529-6.43,2.131-9.314c0.056-0.367,0.247-0.839,0.338-1.213
		c0.974-4.468,3.773-9.472,2.881-9.472c-0.398,0.064-2.867,1.244-3.271,1.469c-0.195-0.104-0.768,0.685-0.844-0.104
		c0.119-0.166,0.705-1.301,0.844-1.454c0.381-0.44,0.996-0.954,1.433-1.339c0.44-0.383,1.921-1.188,2.146-1.367
		c0.224-0.181,0.761-0.555,1.022-0.685c0.242-0.146,0.238-0.033,0.367-0.342c0.035-0.151-2.301-0.602-2.448-0.627
		c-0.569,0.092-0.884-0.27-0.884-0.276c0.112-0.397,0.338-0.474,0.561-0.65c0.753-0.359,2.547-0.909,3.393-0.867
		c0.425-0.078,3.312-0.125,4.17-0.157c0.486-0.268,0.98-0.674,1.563-1.122c0.561-0.54,1.339-1.163,2.355-1.707
		c1.529-0.81,3.525-1.377,3.706-1.03c0.032,0.057,0.023,0.145-0.081,0.295c-0.225,0.468-1.303,1.328-1.547,1.758
		c-0.047,0.155-0.188,0.296-0.181,0.446c0.036,0.175,0.181,0.092,0.338,0.07c0.761-0.134,7.765-2.166,8.132-2.253
		c0.221-0.081,0.871,0.004,1.08-0.038c-0.1,0.08-1.006,0.539-1.105,0.593c-0.372,0.117-9.473,3.369-10.26,3.08
		c-0.138-1.112,1.165-1.945,1.481-2.428c0.269-0.457,0.157-0.569-0.145-0.562c-0.508,0.236-0.652,0.328-1.058,0.529
		c-0.135,0.083-0.361,0.247-0.496,0.305c-0.436,0.314-1.516,1.043-1.604,1.156c-0.725,0.625-1.198,1.657-1.839,1.601
		c-1.46-0.411-1.977-0.153-2.877-0.222c-0.242,0.068-0.513,0.068-0.758,0.113c-1.113,0.244-2.641,0.616-2.647,0.795
		c0.042,0.159,0.31,0.193,0.448,0.302c0.311,0.161,1.367,0.571,1.604,0.676c0.103,0.042,0.276,0.316,0.39,0.346
		c-0.135,0.171-0.338,0.281-0.471,0.347c-0.34,0.162-0.729,0.436-1.074,0.555c-0.247,0.157-0.529,0.255-0.753,0.438
		c-0.224,0.185-0.487,0.313-0.744,0.459c-0.41,0.313-0.897,0.559-1.331,0.862c-0.284,0.271-0.597,0.63-0.723,1.035
		c-0.01,0.166,1.461-0.486,1.907-0.631c0.869-0.459,2.017-0.954,1.769,0.202c-0.442,1.301-3.461,9.16-3.785,10.988
		c-0.543,2.851-1.314,5.637-1.867,8.128c-0.461,3.064-0.133,2.098-3.299,3.949c-0.537,0.367-2.098,1.496-2.352,1.698
		c-0.341,0.414-0.455,0.478,0.187,0.877c0.591-0.095,0.788-0.161,1.182-0.399c0.851-0.68,1.073-0.063,1.073-0.063
		s-0.693,0.484-0.685,0.468c-0.692,0.465-1.817,1.364-2.421,1.975c-0.486,0.484-1.793,1.396-0.789,1.518
		c2.473-0.179-0.528,1.014-1.103,1.36c-0.627,0.389-2.575,1.83-2.667,1.962c-0.652,0.924-1.38,1.989-1.594,2.58
		c0.069,0.383,1.827-0.153,0.221,1.428c-0.109,0.104-2.266,3.118-3.261,6.388c-0.14,0.405-0.114,0.761-0.015,1.02
		c0.846-0.631,1.523-1.288,2.441-1.838c0.207-0.204,1.497-0.912,1.658-1.067c0.311-0.191,1.186-0.574,0.771,0.021
		c-0.078,0.034-0.191,0.125-0.278,0.191c-0.104,0.074-0.191,0.125-0.282,0.191c-0.685,0.47-1.346,1.213-1.535,2.178
		c-0.376,1.848,0.195,8.617,0.195,8.819c0.07,2.168,0.319,4.053,0.487,5.186c0.217,1.496,0.538,3.369,1.067,5.535
		c0.405,2.136,0.951,3.458,1.432,5.554c0.025,0.17,0.689,1.821,0.652,2.199c-0.021,0.2-0.098,0.341-0.131,0.408
		c-1.864,4.26-3.805,6.988-3.805,6.988c-0.417,0.578-1.607,1.403-2.404,2.357c0.822-1.405,2.226-2.95,3.006-4.665
		C120.647,127.88,121.365,126.05,121.939,124.379"/>
	<path fill="#FFFFFF" d="M110.649,140.514"/>
</g>
</svg>
