<?xml version="1.0" encoding="utf-8"?>
<!-- Generator: Adobe Illustrator 16.0.0, SVG Export Plug-In . SVG Version: 6.00 Build 0)  -->
<!DOCTYPE svg PUBLIC "-//W3C//DTD SVG 1.1//EN" "http://www.w3.org/Graphics/SVG/1.1/DTD/svg11.dtd">
<svg version="1.1" id="Layer_1" xmlns="http://www.w3.org/2000/svg" xmlns:xlink="http://www.w3.org/1999/xlink" x="0px" y="0px"
	 width="52.379px" height="52.099px" viewBox="0 0 52.379 52.099" enable-background="new 0 0 52.379 52.099" xml:space="preserve">
<path fill-rule="evenodd" clip-rule="evenodd" fill="#D64141" d="M11.284,22.935c0.205-0.076,0.436-0.268,0.628-0.112
	c0.187,0.151,0.088,0.424,0.035,0.639c-0.146,0.582-0.18,1.172-0.142,1.764c0.052,0.825,0.154,0.872,0.83,0.431
	c0.536-0.348,0.805-0.218,0.891,0.432c0.039,0.304,0.058,0.609,0.106,0.911c0.077,0.48,0.226,0.717,0.801,0.438
	c0.959-0.459,1.586-0.067,1.716,0.975c0.06,0.485,0.139,0.971,0.171,1.459c0.026,0.384,0.179,0.512,0.57,0.501
	c1-0.028,2.001-0.019,3-0.005c0.34,0.005,0.615-0.067,0.898-0.286c0.717-0.556,1.671-0.558,2.391-0.018
	c0.298,0.223,0.594,0.309,0.958,0.306c1.287-0.016,2.573,0.011,3.86-0.018c0.408-0.008,0.962,0.268,1.157-0.416
	c0.015-0.049,0.185-0.072,0.283-0.078c1.407-0.046,2.849-0.431,4.167,0.429c0.109,0.07,0.274,0.073,0.414,0.073
	c1.286,0.005,2.572-0.003,3.859,0.008c0.297,0.002,0.441-0.075,0.465-0.402c0.062-0.854,0.196-1.701,0.235-2.559
	c0.142-3.09,0.04-6.159-1.001-9.124c-0.54-1.543-1.209-3.028-1.932-4.49c-0.218-0.441-0.156-0.667,0.386-0.734
	c0.292-0.039,0.646,0.022,0.941-0.271c-0.757-0.446-1.548-0.732-2.223-1.23c-1.117-0.823-2.259-1.61-3.38-2.428
	c-1.333-0.972-2.794-1.579-4.455-1.691c-0.652-0.041-0.701-0.135-0.445-0.763c0.276-0.678,0.435-1.358,0.193-2.083
	c-0.126-0.379-0.277-0.612-0.645-0.187C25.872,4.573,25.68,4.7,25.507,4.843c-0.392,0.324-0.571,0.195-0.598-0.277
	c-0.027-0.473-0.139-0.928-0.37-1.346c-0.073-0.132-0.103-0.351-0.309-0.322c-0.157,0.021-0.175,0.211-0.222,0.338
	c-0.161,0.439-0.274,0.898-0.535,1.296c-0.074,0.114-0.133,0.283-0.315,0.221c-0.131-0.047-0.137-0.189-0.147-0.312
	c-0.04-0.429-0.05-0.859-0.128-1.277C22.673,2.041,22.273,1,21.481,0c-0.037,0.226-0.051,0.322-0.069,0.415
	c-0.239,1.263-0.457,2.529-1.144,3.654c-0.247,0.404-0.495,0.581-0.891,0.161c-0.261-0.275-0.485-0.33-0.542,0.163
	c-0.078,0.668-0.394,1.223-0.795,1.758c-1.006,1.332-2.116,2.597-2.851,4.119c-0.478,0.986-0.652,2.007-0.325,3.084
	c0.086,0.278,0.39,0.593,0.149,0.85c-0.229,0.244-0.52-0.07-0.776-0.146c-0.394-0.114-0.461,0.06-0.339,0.371
	c0.112,0.283,0.258,0.554,0.414,0.815c0.17,0.286,0.09,0.408-0.223,0.434c-0.209,0.019-0.496-0.088-0.561,0.221
	c-0.053,0.258,0.191,0.385,0.346,0.54c0.071,0.07,0.152,0.133,0.231,0.2c0.365,0.304,0.343,0.574-0.073,0.805
	c-0.501,0.281-0.979,0.59-1.41,0.969c-1.413,1.244-2.037,2.797-1.868,4.755C10.985,23.066,11.132,22.991,11.284,22.935z
	 M15.995,46.084c0.059,1.345,0.125,2.688,0.17,4.032c0.017,0.488,0.143,0.795,0.716,0.639c0.096-0.025,0.206-0.021,0.306-0.013
	c0.32,0.031,0.406-0.08,0.379-0.421c-0.188-2.376-0.348-4.757-0.526-7.136c-0.064-0.854-0.083-0.786-0.967-0.877
	c-0.761-0.078-1.075,0.221-1.31,0.893c-0.368,1.047-0.835,2.057-1.32,3.23c-0.488-1.221-0.914-2.288-1.34-3.354
	c-0.227-0.569-1.006-1.063-1.54-0.826c-0.435,0.192-0.081,0.717-0.164,1.083c-0.026,0.114,0.01,0.244,0.009,0.366
	c-0.001,0.158,0.046,0.296,0.21,0.33c0.431,0.083,0.38,0.396,0.364,0.709c-0.096,1.771-0.186,3.541-0.279,5.31
	c-0.027,0.496,0.178,0.67,0.586,0.507c0.265-0.106,0.189-0.33,0.202-0.522c0.091-1.313,0.179-2.63,0.275-4.051
	c0.088,0.148,0.119,0.18,0.127,0.213c0.212,1.019,0.42,2.036,0.633,3.052c0.279,1.334,0.28,1.318,1.642,1.301
	c0.379-0.006,0.542-0.138,0.626-0.499c0.318-1.368,0.662-2.729,0.996-4.095C15.936,45.876,15.96,45.987,15.995,46.084z M32.6,33.23
	c0.861-0.239,1.334-0.808,1.289-1.548c-0.048-0.789-0.584-1.397-1.433-1.509c-0.891-0.114-1.791-0.067-2.687,0.028
	c-0.311,0.031-0.391,0.172-0.388,0.479c0.017,2.428,0.027,4.855,0.008,7.283c-0.005,0.476,0.155,0.571,0.593,0.582
	c0.478,0.013,0.579-0.158,0.571-0.601c-0.027-1.326-0.013-2.651-0.006-3.978c0.001-0.172-0.084-0.405,0.104-0.504
	c0.196-0.104,0.396,0.018,0.562,0.146c0.306,0.231,0.387,0.553,0.361,0.922c-0.122,1.771-0.096,3.547-0.088,5.32
	c0.002,0.85,0.408,1.399,1.219,1.615c0.41,0.109,0.844,0.133,1.269,0.182c0.105,0.011,0.266,0.07,0.312-0.088
	c0.044-0.153-0.03-0.302-0.192-0.333c-0.856-0.158-0.849-0.825-0.849-1.464c0-1.429,0.008-2.856,0.042-4.282
	c0.021-0.875-0.191-1.615-1.109-2.135C32.409,33.282,32.505,33.256,32.6,33.23z M22.253,41.379c-0.06-0.351-0.214-0.463-0.569-0.447
	c-0.651,0.031-1.305,0.008-1.957,0.008c-1.226,0-1.228,0-1.118,1.187c0.03,0.33-0.031,0.735,0.514,0.709
	c0.157-0.005,0.176,0.133,0.15,0.271c-0.046,0.239-0.082,0.48-0.122,0.722c-0.31,1.847-0.611,3.695-0.936,5.539
	c-0.067,0.387,0.03,0.496,0.423,0.488c0.434-0.008,0.531-0.221,0.591-0.598c0.255-1.607,0.267-1.597,1.637-1.545
	c0.297,0.013,0.442,0.088,0.474,0.402c0.045,0.444,0.137,0.886,0.193,1.327c0.031,0.255,0.118,0.426,0.411,0.423
	c0.586-0.005,1.172-0.002,1.789-0.002C23.231,46.993,22.735,44.188,22.253,41.379z M11.965,36.733c0,0.794,0.017,1.592-0.004,2.386
	c-0.029,1.185-0.039,1.166,1.157,1.177c0.455,0.005,0.595-0.125,0.588-0.587c-0.024-1.856-0.01-3.716-0.01-5.572
	c0-1.185-0.001-1.189,1.167-1.408c0.264-0.046,0.484-0.091,0.484-0.42c-0.001-0.616-0.001-1.226,0-1.839
	c0.001-0.216-0.103-0.275-0.309-0.26c-1.567,0.138-3.138,0.143-4.709,0.07c-0.302-0.016-0.446,0.072-0.438,0.408
	c0.02,0.714,0.022,1.431,0,2.145c-0.012,0.348,0.129,0.405,0.434,0.376c0.447-0.044,0.897-0.03,1.344-0.072
	c0.427-0.042,0.505,0.163,0.499,0.54c-0.02,1.018-0.008,2.038-0.008,3.057C12.096,36.733,12.03,36.733,11.965,36.733z M31.33,42.602
	c0.007-0.434-0.085-0.659-0.56-0.6c-0.121,0.016-0.25,0.023-0.365-0.005c-0.505-0.125-0.569,0.127-0.565,0.555
	c0.011,1.244-0.032,2.485-0.026,3.729c0.002,0.379-0.081,0.556-0.5,0.54c-0.425-0.021-0.856,0.016-1.279,0.07
	c-0.745,0.094-1.168,0.573-1.163,1.321c0.006,0.896,0.028,1.792,0.066,2.688c0.03,0.74,0.45,1.146,1.211,1.164
	c0.835,0.022,1.672,0,2.506,0.033c0.451,0.016,0.53-0.15,0.516-0.579c-0.052-1.485-0.118-2.973,0.146-4.458
	C31.318,45.575,31.303,44.087,31.33,42.602z M24.213,44.702c0,1.262,0.021,2.524-0.011,3.786c-0.013,0.48,0.243,0.47,0.57,0.457
	c0.3-0.008,0.6,0.075,0.596-0.431c-0.009-1.161,0.023-2.322,0.082-3.482c0.017-0.324-0.252-0.831,0.214-0.945
	c0.423-0.104,0.455,0.441,0.609,0.717c0.744,1.313,0.732,1.306,2.212,1.275c0.39-0.011,0.477-0.136,0.473-0.496
	c-0.017-1.488-0.006-2.977-0.008-4.464c0-0.26,0.069-0.563-0.376-0.509c-0.347,0.044-0.726-0.045-0.678,0.553
	c0.082,1.016,0.089,2.036,0.121,3.054c0.005,0.169,0.104,0.395-0.14,0.473c-0.271,0.086-0.356-0.143-0.43-0.327
	c-0.305-0.756-0.726-1.49-0.867-2.277c-0.225-1.254-0.971-1.553-2.08-1.524c-0.382,0.011-0.531,0.05-0.522,0.476
	c0.03,1.22,0.011,2.443,0.011,3.666C24.063,44.702,24.139,44.702,24.213,44.702z M23.988,35.151c0-0.529,0.003-1.06-0.001-1.589
	c-0.004-0.551,0.035-1.101-0.065-1.649c-0.212-1.15-0.939-1.861-1.923-1.877c-1.092-0.021-1.8,0.582-2.05,1.786
	c-0.052,0.247-0.315,0.696,0.231,0.676c0.407-0.011,1.06,0.532,1.207-0.364c0.061-0.368,0.223-0.615,0.619-0.623
	c0.4-0.01,0.668,0.197,0.749,0.585c0.07,0.337,0.087,0.686,0.131,1.028c0.039,0.301-0.063,0.441-0.396,0.434
	c-0.447-0.011-0.9-0.006-1.342,0.052c-0.768,0.101-1.144,0.529-1.138,1.265c0.009,0.938,0.028,1.875,0.063,2.813
	c0.022,0.612,0.383,0.991,0.995,1.02c0.692,0.029,1.387,0.031,2.079,0.011c0.717-0.021,0.891-0.21,0.9-0.935
	c0.012-0.878,0.004-1.753,0.004-2.631C24.029,35.151,24.009,35.151,23.988,35.151z M25.063,38.138
	c0.101,0.969,0.534,1.449,1.452,1.584c0.888,0.133,1.531-0.244,1.867-1.111c0.17-0.438,0.263-0.9,0.239-1.376
	c-0.038-0.729-0.627-0.397-0.978-0.468c-0.454-0.086-0.263,0.283-0.251,0.483c0.017,0.272-0.004,0.529-0.098,0.781
	c-0.077,0.205-0.207,0.361-0.435,0.377c-0.276,0.018-0.339-0.224-0.374-0.408c-0.22-1.137-0.429-2.274-0.366-3.448
	c0.031-0.598,0.267-0.686,0.796-0.618c1.585,0.208,1.576,0.188,1.609-1.443c0.006-0.369-0.105-0.52-0.476-0.52
	c-0.427,0.003-0.854-0.034-1.281-0.047c-0.274-0.008-0.438-0.099-0.354-0.405c0.126-0.473-0.134-0.558-0.522-0.548
	c-0.203,0.006-0.413-0.005-0.608-0.052c-0.461-0.111-0.554,0.086-0.544,0.509c0.026,0.995,0.009,1.992,0.009,2.989
	C24.845,35.661,24.935,36.899,25.063,38.138z M38.221,34.736c0-0.756,0.012-1.509-0.003-2.262c-0.016-0.917-0.466-1.353-1.364-1.332
	c-0.405,0.008-0.812,0.041-1.217,0.08c-0.661,0.058-1.029,0.39-1.04,1.042c-0.023,1.604-0.027,3.214,0.001,4.821
	c0.013,0.735,0.358,1.044,1.107,1.109c0.426,0.036,0.854,0.049,1.282,0.046c0.81-0.005,1.203-0.379,1.226-1.187
	c0.022-0.773,0.005-1.547,0.005-2.318C38.219,34.736,38.221,34.736,38.221,34.736z M16.126,35.466c0,1.309,0.012,2.612-0.008,3.918
	c-0.004,0.369,0.101,0.515,0.484,0.502c0.652-0.023,1.309-0.05,1.958,0.005c0.69,0.06,0.568-0.431,0.593-0.797
	c0.032-0.488-0.375-0.26-0.574-0.265c-1.175-0.034-1.176-0.021-1.188-1.177c0-0.042,0-0.081,0-0.122
	c-0.003-0.922-0.003-0.945,0.892-0.911c0.461,0.021,0.683-0.091,0.627-0.598c-0.039-0.343-0.045-0.698,0.001-1.038
	c0.082-0.608-0.137-0.767-0.735-0.696c-0.787,0.088-0.792,0.044-0.785-0.771c0-0.039,0-0.08,0-0.122
	c0.021-1.135,0.021-1.137,1.171-1.194c0.24-0.011,0.547,0.042,0.467-0.355c-0.06-0.294,0.108-0.751-0.479-0.729
	c-0.632,0.021-1.266,0.025-1.898-0.003c-0.389-0.021-0.525,0.086-0.517,0.498c0.027,1.286,0.009,2.571,0.009,3.856
	C16.141,35.466,16.133,35.466,16.126,35.466z M37.445,46.458c0,1.121,0.021,2.243-0.009,3.365c-0.012,0.451,0.161,0.556,0.571,0.537
	c1.059-0.052,2.12-0.08,3.18-0.104c0.27-0.005,0.457-0.008,0.458-0.377c0-0.353-0.161-0.41-0.441-0.404
	c-0.348,0.008-0.694,0-1.041,0c-0.813,0-0.826,0-0.835-0.837c-0.019-1.653-0.005-3.308-0.03-4.962
	c-0.018-1.246-0.034-1.233-1.258-1.147c-0.383,0.028-0.528,0.163-0.521,0.561c0.022,1.122,0.008,2.243,0.008,3.368
	C37.5,46.458,37.473,46.458,37.445,46.458z M31.891,46.931c0,1.119,0.031,2.238-0.01,3.357c-0.031,0.82,0.556,0.485,0.922,0.556
	c0.509,0.101,0.374-0.296,0.37-0.543c-0.022-1.503-0.103-3.007-0.021-4.516c0.034-0.623,0.297-1.016,0.924-1.08
	c0.466-0.047,0.646-0.244,0.526-0.706c-0.035-0.136-0.027-0.283-0.041-0.426c-0.067-0.811-0.154-0.862-0.907-0.593
	c-0.271,0.097-0.474,0.234-0.851,0.047c-0.626-0.312-0.993,0.026-0.994,0.728c0,1.06,0,2.116,0,3.176
	C31.836,46.931,31.864,46.931,31.891,46.931z M35.239,46.481c0,0.776,0,1.553,0,2.326c0,0.904-0.001,0.889,0.923,0.836
	c0.327-0.018,0.458-0.099,0.453-0.454c-0.023-1.817-0.035-3.636-0.02-5.45c0.005-0.577-0.355-0.473-0.694-0.471
	c-0.317,0.003-0.655-0.088-0.631,0.46c0.039,0.917,0.011,1.836,0.011,2.753C35.267,46.481,35.254,46.481,35.239,46.481z
	 M35.863,40.249c-0.459,0.003-0.854,0.366-0.818,0.797c0.038,0.468,0.241,0.826,0.773,0.852c0.488,0.023,0.887-0.345,0.892-0.802
	C36.714,40.612,36.351,40.249,35.863,40.249z M15.995,46.084c0.022-0.13,0.09-0.31-0.054-0.358
	c-0.153-0.055-0.159,0.109-0.151,0.229C15.859,45.998,15.927,46.04,15.995,46.084z M25.785,23.274
	c-1.309-0.036-1.579-0.247-1.904-1.52c-0.253-0.991-0.344-2.004-0.383-3.027c-0.043-1.078-0.073-2.158-0.135-3.238
	c-0.026-0.418-0.15-0.856-0.658-0.896c-0.502-0.039-0.603,0.397-0.698,0.781c-0.174,0.701-0.118,1.421-0.086,2.13
	c0.074,1.63,0.152,3.259-0.149,4.876c-0.217,1.166-0.605,1.512-1.778,1.634c-0.525,0.052-1.048,0.15-1.218,0.74
	c-0.172,0.592-0.007,1.124,0.453,1.555c0.442,0.416,0.982,0.673,1.551,0.823c0.664,0.174,1.139,0.485,1.367,1.163
	c0.109,0.322,0.37,0.541,0.758,0.488c0.355-0.047,0.526-0.291,0.588-0.615c0.1-0.498,0.398-0.82,0.834-1.064
	c0.696-0.387,1.362-0.826,1.927-1.392c0.383-0.385,0.671-0.821,0.676-1.143C26.924,23.644,26.544,23.298,25.785,23.274z
	 M24.511,21.387c0.361-1.224,0.722-2.446,1.074-3.675c0.044-0.153,0.049-0.319,0.053-0.482c0.005-0.192-0.059-0.361-0.248-0.449
	c-0.219-0.106-0.389-0.006-0.544,0.143c-0.273,0.265-0.423,0.595-0.504,0.955c-0.275,1.242-0.336,2.488-0.071,3.74
	C24.452,21.636,24.479,21.501,24.511,21.387z M21.438,21.135c-0.232-1.216-0.707-2.345-1.352-3.401
	c-0.178-0.294-0.522-0.333-0.808-0.136c-0.292,0.2-0.246,0.512-0.07,0.759c0.678,0.955,1.374,1.896,2.064,2.841
	C21.328,21.176,21.383,21.155,21.438,21.135z M25.093,21.479c0.536-0.565,1.076-1.127,1.605-1.703
	c0.189-0.205,0.418-0.387,0.518-0.667c0.071-0.203,0.122-0.41-0.065-0.563c-0.167-0.135-0.349-0.055-0.502,0.063
	c-0.929,0.709-1.431,1.664-1.683,2.768C25.007,21.41,25.051,21.446,25.093,21.479z M21.491,16.214
	c-0.001-0.169-0.092-0.322-0.275-0.366c-0.202-0.047-0.358,0.055-0.479,0.2c-0.149,0.182-0.184,0.402-0.18,0.634
	c0.016,0.942,0.43,1.75,0.938,2.547C21.495,18.224,21.5,17.219,21.491,16.214z M19.211,19.527c-0.242-0.172-0.557-0.166-0.756,0.13
	c-0.203,0.301-0.144,0.623,0.128,0.815c0.575,0.405,1.252,0.604,1.938,0.823C20.258,20.558,19.829,19.961,19.211,19.527z
	 M26.387,14.804c-0.476-0.01-0.779,0.203-0.804,0.701c-0.019,0.408,0.366,0.792,0.778,0.756c0.427-0.039,0.71-0.268,0.749-0.751
	C27.069,15.09,26.856,14.812,26.387,14.804z M19.399,15.048c-0.461-0.01-0.766,0.221-0.767,0.681
	c-0.002,0.457,0.306,0.706,0.759,0.695c0.423-0.01,0.678-0.244,0.704-0.731C20.068,15.297,19.84,15.061,19.399,15.048z M24.11,15.97
	c0.001-0.146-0.091-0.218-0.232-0.205c-0.136,0.013-0.232,0.104-0.229,0.236c0.012,0.488-0.117,0.994,0.161,1.524
	C24.111,17.006,24.103,16.486,24.11,15.97z M31.896,32.282c0.361,0,0.659-0.083,0.668-0.527c0.008-0.451-0.235-0.686-0.672-0.693
	c-0.346-0.005-0.692,0.042-1.039,0.047c-0.231,0.006-0.314,0.117-0.351,0.33c-0.134,0.769,0.016,0.914,1.018,0.844
	C31.569,32.282,31.732,32.282,31.896,32.282z M21.047,46.048c-0.102-0.767-0.2-1.532-0.328-2.296
	c-0.028-0.169,0.086-0.47-0.214-0.491c-0.354-0.023-0.333,0.299-0.371,0.525c-0.127,0.763-0.236,1.529-0.362,2.29
	c-0.122,0.725-0.129,0.725,0.604,0.725C21.123,46.777,21.17,46.979,21.047,46.048z M29.87,49.514c0-0.387-0.012-0.776,0.004-1.163
	c0.013-0.338-0.109-0.506-0.463-0.438c-0.303,0.06-0.768-0.141-0.76,0.438c0.012,0.735,0.039,1.467,0.055,2.202
	c0.005,0.268,0.117,0.39,0.396,0.437c0.803,0.132,0.861,0.096,0.828-0.743c-0.008-0.244-0.03-0.485-0.046-0.729
	C29.877,49.517,29.874,49.514,29.87,49.514z M22.865,35.087c-0.002-0.257,0.055-0.613-0.371-0.496
	c-0.349,0.096-0.993-0.288-0.961,0.537c0.023,0.608,0.025,1.221-0.001,1.831c-0.024,0.579,0.207,0.764,0.793,0.776
	c0.654,0.013,0.536-0.382,0.542-0.756c0.002-0.283,0-0.568,0-0.854C22.866,35.78,22.869,35.435,22.865,35.087z M37.121,32.597
	c0.001-0.242-0.001-0.501-0.335-0.421c-0.281,0.067-0.768-0.187-0.77,0.413c-0.001,0.467,0,0.938,0,1.404
	c0,0.936,0.005,1.873-0.001,2.808c-0.004,0.576,0.431,0.402,0.741,0.454c0.392,0.065,0.366-0.194,0.365-0.446
	c-0.004-0.714-0.001-1.426-0.001-2.138C37.12,33.978,37.117,33.287,37.121,32.597z M20.398,25.157
	c-0.126-0.073-0.239-0.026-0.314,0.086c-0.092,0.137-0.055,0.28,0.06,0.379c0.37,0.324,0.74,0.651,1.319,0.872
	C21.282,25.816,20.889,25.445,20.398,25.157z M25.325,25.362c0.096-0.104,0.166-0.231,0.026-0.374
	c-0.089-0.091-0.184-0.094-0.27-0.031c-0.465,0.348-0.849,0.758-1.104,1.285C24.519,26.065,24.955,25.76,25.325,25.362z"/>
</svg>
