<?xml version="1.0" encoding="utf-8"?>
<!-- Generator: Adobe Illustrator 16.0.0, SVG Export Plug-In . SVG Version: 6.00 Build 0)  -->
<!DOCTYPE svg PUBLIC "-//W3C//DTD SVG 1.1//EN" "http://www.w3.org/Graphics/SVG/1.1/DTD/svg11.dtd">
<svg version="1.1" id="Layer_1" xmlns="http://www.w3.org/2000/svg" xmlns:xlink="http://www.w3.org/1999/xlink" x="0px" y="0px"
	 width="53.222px" height="52.916px" viewBox="0 0 53.222 52.916" enable-background="new 0 0 53.222 52.916" xml:space="preserve">
<g>
	<path fill-rule="evenodd" clip-rule="evenodd" fill="#00A88E" d="M13.849,25.138c0.224-2.919,1.397-5.447,3.174-7.729
		c1.684-2.162,3.387-4.309,4.735-6.709c1.854-3.298,3.112-6.828,4.146-10.449c0.022-0.08,0.002-0.183,0.17-0.251
		c0.539,0.774,1.089,1.56,1.633,2.349c2.967,4.308,5.8,8.699,8.131,13.393c1.5,3.021,2.781,6.127,3.357,9.473
		c0.497,2.888,0.408,5.717-1.134,8.329c-1.187,2.011-2.96,3.372-5.022,4.392c-1.564,0.773-3.194,1.354-4.925,1.623
		c-0.181,0.028-0.455,0.212-0.551-0.105c-0.091-0.299,0.008-0.538,0.322-0.705c0.726-0.388,1.432-0.811,2.146-1.22
		c1.195-0.683,2.391-1.368,3.589-2.047c0.36-0.204,0.667-0.447,0.646-0.906c-0.03-0.689-0.731-1.028-1.39-0.659
		c-1.312,0.736-2.613,1.491-3.918,2.238c-0.357,0.205-0.717,0.405-1.069,0.617c-0.229,0.137-0.353,0.146-0.349-0.181
		c0.009-0.914,0.011-1.829-0.002-2.742c-0.004-0.295,0.187-0.401,0.39-0.52c1.253-0.729,2.505-1.459,3.758-2.188
		c0.124-0.072,0.251-0.14,0.371-0.217c0.477-0.309,0.62-0.755,0.386-1.188c-0.231-0.429-0.774-0.573-1.263-0.298
		c-1.013,0.572-2.014,1.166-3.021,1.749c-0.181,0.104-0.367,0.198-0.616,0.333c0-0.974,0.007-1.863-0.004-2.753
		c-0.003-0.275,0.188-0.363,0.372-0.47c0.884-0.511,1.77-1.018,2.65-1.531c0.623-0.364,0.806-0.869,0.51-1.375
		c-0.299-0.508-0.815-0.606-1.447-0.254c-0.563,0.313-1.119,0.638-1.67,0.973c-0.333,0.202-0.424,0.113-0.417-0.257
		c0.017-0.914,0.011-1.829,0.004-2.743c-0.006-0.79-0.381-1.234-1.028-1.238c-0.639-0.004-1.041,0.458-1.046,1.229
		c-0.008,1.056-0.002,2.112-0.002,3.276c-0.563-0.324-1.065-0.613-1.569-0.901c-0.279-0.16-0.552-0.333-0.841-0.473
		c-0.525-0.254-1.05-0.091-1.294,0.381c-0.225,0.432-0.069,0.978,0.395,1.254c0.968,0.577,1.942,1.146,2.927,1.694
		c0.291,0.162,0.397,0.355,0.389,0.684c-0.021,0.799-0.006,1.599-0.006,2.498c-0.759-0.441-1.434-0.834-2.108-1.225
		c-0.542-0.315-1.081-0.635-1.627-0.941c-0.507-0.286-1.021-0.189-1.279,0.226c-0.283,0.454-0.143,0.938,0.406,1.263
		c1.388,0.818,2.777,1.633,4.181,2.424c0.327,0.185,0.445,0.4,0.435,0.769c-0.023,0.823-0.021,1.648-0.001,2.473
		c0.01,0.395-0.095,0.425-0.415,0.239c-1.626-0.939-3.261-1.867-4.892-2.799c-0.589-0.337-1.093-0.272-1.364,0.174
		c-0.289,0.476-0.102,0.969,0.509,1.318c1.91,1.096,3.822,2.188,5.731,3.284c0.163,0.094,0.364,0.146,0.421,0.378
		c0.11,0.456-0.013,0.626-0.499,0.584c-2.615-0.229-4.862-1.286-6.741-3.103c-2.711-2.621-4.061-5.876-4.374-9.598
		c-0.105-0.244,0.046-0.519-0.091-0.759c0-0.107,0-0.215,0-0.322C13.895,25.656,13.742,25.381,13.849,25.138z"/>
	<path fill-rule="evenodd" clip-rule="evenodd" fill="#00A88E" d="M32.6,45.984c0.722-0.803,1.34-1.493,1.963-2.18
		c0.333-0.366,0.71-0.623,1.227-0.365c0.549,0.272,0.68,0.873,0.276,1.344c-0.302,0.353-0.62,0.697-0.968,1.005
		c-0.376,0.333-0.44,0.602-0.081,1.019c0.524,0.609,0.98,1.278,1.452,1.932c0.436,0.603,0.404,1.171-0.062,1.523
		c-0.468,0.354-1.073,0.191-1.507-0.412c-0.438-0.611-0.859-1.234-1.308-1.837c-0.114-0.154-0.183-0.493-0.428-0.382
		c-0.272,0.125-0.57,0.322-0.565,0.715c0.004,0.34,0.003,0.681,0,1.021c-0.008,0.741-0.309,1.076-0.96,1.073
		c-0.646-0.002-0.941-0.331-0.944-1.092c-0.006-2.114-0.002-4.229-0.001-6.342c0-0.43-0.017-0.861,0.007-1.29
		c0.032-0.612,0.381-0.931,0.962-0.919c0.58,0.012,0.928,0.345,0.933,0.946C32.608,43.102,32.6,44.46,32.6,45.984z"/>
	<path fill-rule="evenodd" clip-rule="evenodd" fill="#00A88E" d="M18.306,44.427c0.766-0.905,1.683-1.246,2.775-1.043
		s1.767,0.917,1.809,2.024c0.052,1.395,0.033,2.794,0.015,4.191c-0.007,0.573-0.353,0.843-0.958,0.84
		c-0.602-0.003-0.916-0.273-0.929-0.869c-0.026-1.182,0.009-2.365-0.046-3.545c-0.042-0.92-0.863-1.365-1.695-0.965
		c-0.546,0.263-0.837,0.703-0.835,1.326c0.004,1.003,0.016,2.007-0.006,3.01c-0.018,0.82-0.428,1.152-1.205,1.028
		c-0.517-0.082-0.73-0.392-0.734-1.128c-0.008-1.595-0.007-3.189-0.001-4.784c0.003-0.789,0.25-1.135,0.806-1.173
		C17.884,43.299,18.138,43.558,18.306,44.427z"/>
	<path fill-rule="evenodd" clip-rule="evenodd" fill="#00A88E" d="M25.5,49.668c0,0.757,0.005,1.502-0.002,2.248
		c-0.007,0.688-0.287,0.99-0.902,0.999c-0.683,0.01-0.994-0.267-0.997-0.965c-0.011-2.561-0.01-5.122,0-7.683
		c0.002-0.617,0.228-0.871,0.742-0.937c0.533-0.066,0.822,0.184,1.046,0.933c0.912-1.081,2.019-1.145,3.222-0.627
		c0.565,0.243,0.972,0.676,1.229,1.226c0.607,1.302,0.651,2.639,0.059,3.946c-0.803,1.773-2.805,2.174-4.261,0.894
		C25.613,49.683,25.573,49.686,25.5,49.668z M28.042,45.53c-0.572-0.938-1.866-0.926-2.352,0.048
		c-0.45,0.903-0.433,1.846,0.067,2.725c0.508,0.892,1.795,0.853,2.295-0.043c0.231-0.415,0.304-0.872,0.321-1.328
		C28.366,46.432,28.301,45.955,28.042,45.53z"/>
</g>
</svg>
