<?xml version="1.0" encoding="utf-8"?>
<!-- Generator: Adobe Illustrator 16.0.0, SVG Export Plug-In . SVG Version: 6.00 Build 0)  -->
<!DOCTYPE svg PUBLIC "-//W3C//DTD SVG 1.1//EN" "http://www.w3.org/Graphics/SVG/1.1/DTD/svg11.dtd">
<svg version="1.1" id="Layer_1" xmlns="http://www.w3.org/2000/svg" xmlns:xlink="http://www.w3.org/1999/xlink" x="0px" y="0px"
	 width="52.837px" height="51.15px" viewBox="0 0 52.837 51.15" enable-background="new 0 0 52.837 51.15" xml:space="preserve">
<g>
	<path fill-rule="evenodd" clip-rule="evenodd" fill="#510541" d="M9.876,20.863c0.282,2.538,0.443,5.092,0.982,7.598
		c0.085,0.394,0.249,0.901-0.232,1.113c-0.484,0.213-0.695-0.304-0.972-0.583c-4.056-4.097-6.163-9.247-7.887-14.604
		c-0.145-0.453-0.276-0.909-0.429-1.359c-0.032-0.094-0.13-0.165-0.292-0.362c-0.29,5.73,0.305,11.387-0.393,17.105
		c-0.642-0.324-0.519-0.714-0.51-1.024c0.161-5.415-0.019-10.826-0.14-16.238c-0.011-0.476-0.006-0.955,0.046-1.426
		c0.038-0.342,0.097-0.749,0.521-0.833c0.435-0.086,0.634,0.266,0.777,0.591c0.383,0.87,0.775,1.738,1.101,2.63
		c1.533,4.196,3.356,8.26,5.569,12.143c0.371,0.65,0.668,1.382,1.45,1.878c-0.551-4.288-0.247-8.486-0.207-12.68
		c0.803,0.073,0.455,0.702,0.479,1.089C9.843,17.553,9.618,19.214,9.876,20.863z"/>
	<path fill-rule="evenodd" clip-rule="evenodd" fill="#510541" d="M18.732,13.853c-0.713,4.011-0.107,7.515,0.553,11
		c0.64,3.38,2.05,6.55,2.618,9.979c0.821,4.966,0.379,9.819-0.533,14.688c-0.109,0.586-0.227,1.159-1.101,1.495
		c0.283-2.573,0.629-5.01,0.804-7.459c0.365-5.141-0.222-10.184-1.836-15.09c-1.293-3.931-1.996-7.945-1.778-12.096
		C17.5,15.582,17.395,14.718,18.732,13.853z"/>
	<path fill-rule="evenodd" clip-rule="evenodd" fill="#510541" d="M14.98,51.15c-0.4-0.639-0.098-1.172,0.021-1.643
		c1.882-7.458,1.063-14.749-1.211-21.98c-1.113-3.541-1.772-7.17-1.531-10.906c0.051-0.787-0.106-1.671,0.894-2.586
		c-0.232,3.58,0.357,6.796,0.956,10.002c0.807,4.319,2.515,8.43,2.87,12.87c0.335,4.2,0.085,8.326-0.878,12.414
		C15.946,49.984,15.903,50.758,14.98,51.15z"/>
	<path fill-rule="evenodd" clip-rule="evenodd" fill="#510541" d="M37.725,14.831c1.471-0.022,2.543,0.739,2.645,2.062
		c0.3,3.912,0.384,7.841,0.535,11.764c0.005,0.132-0.182,0.271-0.291,0.421c-0.756-0.305-0.598-0.979-0.675-1.516
		c-0.393-2.719-0.425-5.463-0.428-8.2C39.509,17.607,39.158,16.07,37.725,14.831z"/>
	<path fill-rule="evenodd" clip-rule="evenodd" fill="#510541" d="M9.876,20.863c-0.623-1.235-0.152-2.555-0.3-3.827
		c-0.086-0.745,0.228-1.545-0.313-2.225C9.162,9.844,9.76,4.925,10.379,0c0.545,3.474-0.253,6.897-0.408,10.346
		C9.813,13.846,9.898,17.356,9.876,20.863z"/>
	<path fill-rule="evenodd" clip-rule="evenodd" fill="#510541" d="M29.433,14.841c1.582,0.185,2.713,1.272,2.672,3.084
		c-0.079,3.505,0.033,6.994,0.267,10.501C30.303,24.129,32.28,18.963,29.433,14.841z"/>
	<path fill-rule="evenodd" clip-rule="evenodd" fill="#510541" d="M22.698,15.095c0.278,4.582,1.188,9.079,1.415,13.647
		C22.111,24.357,22.26,19.729,22.698,15.095z"/>
	<path fill-rule="evenodd" clip-rule="evenodd" fill="#510541" d="M50.174,15.565c3.468,3.295,3.505,10.385,0.366,12.065
		C52.392,23.695,52.482,19.792,50.174,15.565z"/>
	<path fill-rule="evenodd" clip-rule="evenodd" fill="#510541" d="M44.242,28.313c-3.667-2.073-4.098-10.432-0.22-12.79
		C41.35,19.91,41.664,24.027,44.242,28.313z"/>
</g>
</svg>
