<?xml version="1.0" encoding="utf-8"?>
<!-- Generator: Adobe Illustrator 16.0.0, SVG Export Plug-In . SVG Version: 6.00 Build 0)  -->
<!DOCTYPE svg PUBLIC "-//W3C//DTD SVG 1.1//EN" "http://www.w3.org/Graphics/SVG/1.1/DTD/svg11.dtd">
<svg version="1.1" id="Layer_1" xmlns="http://www.w3.org/2000/svg" xmlns:xlink="http://www.w3.org/1999/xlink" x="0px" y="0px"
	 width="140.668px" height="96.275px" viewBox="171.689 195.389 140.668 96.275"
	 enable-background="new 171.689 195.389 140.668 96.275" xml:space="preserve">
<g>
	<path fill="#111111" d="M272.374,265.709h-25.181v-44.765h25.181V265.709L272.374,265.709z M271.064,222.957h-22.561v39.199h22.561
		V222.957z"/>
	<path fill="#111111" d="M213.876,249.842v-51.791h40.157v23.712c0.118-0.003,0.234-0.015,0.359-0.015
		c0.74,0,1.392,0.132,1.973,0.346v-26.705h-44.819v59.153h36.213c-0.114-1.63-0.023-3.136,0.192-4.7H213.876L213.876,249.842z"/>
	<path fill="#111111" d="M296.521,212.066h-41.085c0.073,0.443,0.099,0.914,0.033,1.434c-0.063,0.486-0.13,0.961-0.198,1.432
		c0.003,0,0.003,0,0.007,0c-0.004,0.012-0.01,0.018-0.01,0.029c-0.113,0.744-0.247,1.478-0.404,2.216h36.505v54.05h-98.689v-54.05
		h19.468c-0.484-1.683-0.204-3.645,0.836-5.11h-25.456v67.408h46.789l-2.646,12.189h20.706l-2.731-12.189h46.876V212.066z"/>
</g>
</svg>
