<?xml version="1.0" encoding="utf-8"?>
<!-- Generator: Adobe Illustrator 16.0.0, SVG Export Plug-In . SVG Version: 6.00 Build 0)  -->
<!DOCTYPE svg PUBLIC "-//W3C//DTD SVG 1.1//EN" "http://www.w3.org/Graphics/SVG/1.1/DTD/svg11.dtd">
<svg version="1.1" id="Layer_1" xmlns="http://www.w3.org/2000/svg" xmlns:xlink="http://www.w3.org/1999/xlink" x="0px" y="0px"
	 width="139.968px" height="140.057px" viewBox="0 0 139.968 140.057" enable-background="new 0 0 139.968 140.057"
	 xml:space="preserve">
<path fill="#282828" d="M139.968,70.063c-0.049,38.695-31.395,70.029-70.021,69.994C31.29,140.021-0.046,108.631,0,69.99
	C0.047,31.293,31.38-0.027,70.02,0C108.671,0.029,140.015,31.426,139.968,70.063z M113.889,46.037
	c-3.081,1.369-6.397,2.293-9.875,2.705c3.552-2.127,6.276-5.496,7.562-9.515c-3.322,1.974-7.002,3.402-10.918,4.179
	c-3.139-3.345-7.607-5.435-12.552-5.435c-9.495,0-17.194,7.697-17.194,17.195c0,1.346,0.151,2.658,0.445,3.918
	c-14.29-0.719-26.961-7.563-35.443-17.967c-1.48,2.539-2.326,5.491-2.326,8.646c0,5.967,3.033,11.23,7.647,14.312
	c-2.816-0.091-5.47-0.863-7.788-2.15c-0.001,0.07-0.001,0.145-0.001,0.217c0,8.33,5.926,15.279,13.793,16.859
	c-1.442,0.393-2.962,0.602-4.531,0.602c-1.108,0-2.186-0.104-3.234-0.309c2.188,6.832,8.538,11.803,16.061,11.942
	c-5.885,4.611-13.297,7.359-21.354,7.359c-1.387,0-2.757-0.08-4.102-0.238c7.611,4.882,16.649,7.726,26.358,7.726
	c31.628,0,48.922-26.201,48.922-48.922c0-0.748-0.016-1.488-0.048-2.23C108.669,52.514,111.585,49.482,113.889,46.037z"/>
</svg>
